M48
;GenerationSoftware,Autodesk,EAGLE,9.3.0*%
;CreationDate,2019-04-05T17:30:53Z*%
FMAT,2
ICI,OFF
METRIC,TZ,000.000
T6C0.610
T5C0.750
T4C0.813
T3C1.016
T2C3.556
%
G90
M71
T2
X3810Y80645
X60960Y80645
X60960Y3810
X3810Y3810
T3
X10160Y29210
X20320Y68580
X17780Y68580
X15240Y68580
X12700Y68580
X10160Y68580
X10160Y11430
X10160Y13970
X10160Y16510
X10160Y19050
X10160Y21590
X10160Y24130
X10160Y26670
X52070Y59690
X54610Y29210
X54610Y26670
X54610Y24130
X54610Y21590
X54610Y19050
X54610Y16510
X54610Y13970
X54610Y11430
X49530Y59690
X54610Y41910
X54610Y44450
X54610Y46990
X54610Y49530
X54610Y52070
X54610Y54610
X17780Y44450
X17780Y46990
X17780Y49530
X17780Y52070
X17780Y54610
X46990Y67310
X49530Y67310
X52070Y67310
X17780Y57150
X22860Y68580
T4
X40640Y52070
X40640Y59690
X40640Y57150
X40640Y54610
X40640Y41910
X11430Y59690
X8890Y59690
X53340Y35560
X50800Y35560
X17780Y74930
X10160Y74930
X35560Y74930
X27940Y74930
X53340Y74930
X45720Y74930
X25400Y54610
X25400Y29210
X25400Y31750
X25400Y34290
X25400Y36830
X25400Y39370
X25400Y41910
X25400Y44450
X25400Y46990
X25400Y49530
X25400Y52070
X40640Y46990
X25400Y57150
X25400Y59690
X30480Y68580
X27940Y68580
X38100Y68580
X35560Y68580
X11430Y44450
X8890Y44450
X11430Y49530
X8890Y49530
X25400Y24130
X40640Y49530
X40640Y44450
X40640Y39370
X40640Y36830
X40640Y34290
X40640Y31750
X40640Y29210
X40640Y26670
X40640Y24130
X40640Y21590
X40640Y16510
X25400Y26670
X25400Y21590
X25400Y19050
X25400Y16510
X25400Y13970
X25400Y11430
X40640Y11430
X40640Y13970
X40640Y19050
T5
X21590Y13970
X15245Y63505
X12700Y53340
X25405Y76205
X5080Y24130
X49535Y13965
X21590Y11430
X50063Y11430
T6
X10160Y38100
X15240Y38100
M30