G04 EAGLE Gerber RS-274X export*
G75*
%MOMM*%
%FSLAX34Y34*%
%LPD*%
%INTop Copper*%
%IPPOS*%
%AMOC8*
5,1,8,0,0,1.08239X$1,22.5*%
G01*
%ADD10P,1.429621X8X22.500000*%
%ADD11C,1.524000*%
%ADD12C,1.320800*%
%ADD13P,1.429621X8X202.500000*%
%ADD14C,1.117600*%
%ADD15C,1.778000*%
%ADD16C,0.609600*%


D10*
X88900Y495300D03*
X114300Y495300D03*
X88900Y444500D03*
X114300Y444500D03*
X355600Y685800D03*
X381000Y685800D03*
X279400Y685800D03*
X304800Y685800D03*
D11*
X469900Y680720D02*
X469900Y665480D01*
X495300Y665480D02*
X495300Y680720D01*
X520700Y680720D02*
X520700Y665480D01*
D12*
X260604Y596900D02*
X247396Y596900D01*
X247396Y571500D02*
X260604Y571500D01*
X260604Y546100D02*
X247396Y546100D01*
X247396Y520700D02*
X260604Y520700D01*
X260604Y495300D02*
X247396Y495300D01*
X247396Y469900D02*
X260604Y469900D01*
X260604Y444500D02*
X247396Y444500D01*
X247396Y419100D02*
X260604Y419100D01*
X260604Y393700D02*
X247396Y393700D01*
X247396Y368300D02*
X260604Y368300D01*
X260604Y342900D02*
X247396Y342900D01*
X247396Y317500D02*
X260604Y317500D01*
X260604Y292100D02*
X247396Y292100D01*
X247396Y266700D02*
X260604Y266700D01*
X260604Y241300D02*
X247396Y241300D01*
X247396Y215900D02*
X260604Y215900D01*
X260604Y190500D02*
X247396Y190500D01*
X247396Y165100D02*
X260604Y165100D01*
X260604Y139700D02*
X247396Y139700D01*
X247396Y114300D02*
X260604Y114300D01*
X399796Y114300D02*
X413004Y114300D01*
X413004Y139700D02*
X399796Y139700D01*
X399796Y165100D02*
X413004Y165100D01*
X413004Y190500D02*
X399796Y190500D01*
X399796Y215900D02*
X413004Y215900D01*
X413004Y241300D02*
X399796Y241300D01*
X399796Y266700D02*
X413004Y266700D01*
X413004Y292100D02*
X399796Y292100D01*
X399796Y317500D02*
X413004Y317500D01*
X413004Y342900D02*
X399796Y342900D01*
X399796Y368300D02*
X413004Y368300D01*
X413004Y393700D02*
X399796Y393700D01*
X399796Y419100D02*
X413004Y419100D01*
X413004Y444500D02*
X399796Y444500D01*
X399796Y469900D02*
X413004Y469900D01*
X413004Y495300D02*
X399796Y495300D01*
X399796Y520700D02*
X413004Y520700D01*
X413004Y546100D02*
X399796Y546100D01*
X399796Y571500D02*
X413004Y571500D01*
X413004Y596900D02*
X399796Y596900D01*
D11*
X538480Y419100D02*
X553720Y419100D01*
X553720Y444500D02*
X538480Y444500D01*
X538480Y469900D02*
X553720Y469900D01*
X553720Y495300D02*
X538480Y495300D01*
X538480Y520700D02*
X553720Y520700D01*
X553720Y546100D02*
X538480Y546100D01*
X538480Y114300D02*
X553720Y114300D01*
X553720Y139700D02*
X538480Y139700D01*
X538480Y165100D02*
X553720Y165100D01*
X553720Y190500D02*
X538480Y190500D01*
X538480Y215900D02*
X553720Y215900D01*
X553720Y241300D02*
X538480Y241300D01*
X538480Y266700D02*
X553720Y266700D01*
X553720Y292100D02*
X538480Y292100D01*
X109220Y292100D02*
X93980Y292100D01*
X93980Y266700D02*
X109220Y266700D01*
X109220Y241300D02*
X93980Y241300D01*
X93980Y215900D02*
X109220Y215900D01*
X109220Y190500D02*
X93980Y190500D01*
X93980Y165100D02*
X109220Y165100D01*
X109220Y139700D02*
X93980Y139700D01*
X93980Y114300D02*
X109220Y114300D01*
X101600Y678180D02*
X101600Y693420D01*
X127000Y693420D02*
X127000Y678180D01*
X152400Y678180D02*
X152400Y693420D01*
X177800Y693420D02*
X177800Y678180D01*
X203200Y678180D02*
X203200Y693420D01*
X228600Y693420D02*
X228600Y678180D01*
X495300Y604520D02*
X495300Y589280D01*
X520700Y589280D02*
X520700Y604520D01*
X185420Y571500D02*
X170180Y571500D01*
X170180Y546100D02*
X185420Y546100D01*
X185420Y520700D02*
X170180Y520700D01*
X170180Y495300D02*
X185420Y495300D01*
X185420Y469900D02*
X170180Y469900D01*
X170180Y444500D02*
X185420Y444500D01*
D13*
X114300Y596900D03*
X88900Y596900D03*
X533400Y355600D03*
X508000Y355600D03*
D14*
X101600Y375412D02*
X101600Y386588D01*
X152400Y386588D02*
X152400Y375412D01*
D13*
X177800Y749300D03*
X101600Y749300D03*
X355600Y749300D03*
X279400Y749300D03*
X533400Y749300D03*
X457200Y749300D03*
D15*
X215900Y139700D03*
D16*
X203200Y139700D01*
X190500Y127000D01*
X190500Y88900D01*
X215900Y63500D01*
X469900Y63500D01*
X500634Y94234D01*
X500634Y114300D01*
D15*
X500634Y114300D03*
X215900Y114300D03*
D16*
X241300Y88900D01*
X457200Y88900D01*
X469900Y101600D01*
X469900Y114196D01*
X495352Y139648D01*
D15*
X495352Y139648D03*
X50800Y241300D03*
D16*
X50800Y723900D01*
X114300Y787400D01*
X228704Y787400D02*
X254052Y762052D01*
D15*
X254052Y762052D03*
D16*
X228704Y787400D02*
X114300Y787400D01*
D15*
X127000Y533400D03*
D16*
X127000Y558800D01*
X152452Y584252D02*
X152452Y635052D01*
D15*
X152452Y635052D03*
D16*
X152452Y584252D02*
X127000Y558800D01*
M02*
