G04 EAGLE Gerber RS-274X export*
G75*
%MOMM*%
%FSLAX34Y34*%
%LPD*%
%INBottom Copper*%
%IPPOS*%
%AMOC8*
5,1,8,0,0,1.08239X$1,22.5*%
G01*
%ADD10P,1.429621X8X22.500000*%
%ADD11C,1.524000*%
%ADD12C,1.320800*%
%ADD13P,1.429621X8X202.500000*%
%ADD14C,1.117600*%
%ADD15C,0.609600*%
%ADD16C,1.778000*%
%ADD17C,0.812800*%

G36*
X590928Y10176D02*
X590928Y10176D01*
X591118Y10184D01*
X591173Y10196D01*
X591230Y10201D01*
X591415Y10246D01*
X591601Y10285D01*
X591654Y10306D01*
X591709Y10319D01*
X591884Y10394D01*
X592061Y10463D01*
X592110Y10492D01*
X592162Y10514D01*
X592322Y10616D01*
X592487Y10712D01*
X592531Y10749D01*
X592578Y10779D01*
X592720Y10905D01*
X592867Y11027D01*
X592904Y11070D01*
X592946Y11108D01*
X593066Y11256D01*
X593191Y11399D01*
X593221Y11447D01*
X593256Y11492D01*
X593350Y11657D01*
X593450Y11819D01*
X593472Y11871D01*
X593500Y11920D01*
X593566Y12099D01*
X593639Y12274D01*
X593652Y12330D01*
X593672Y12383D01*
X593708Y12569D01*
X593752Y12755D01*
X593756Y12811D01*
X593766Y12867D01*
X593772Y13057D01*
X593785Y13247D01*
X593780Y13303D01*
X593782Y13360D01*
X593757Y13549D01*
X593739Y13738D01*
X593725Y13793D01*
X593717Y13849D01*
X593662Y14032D01*
X593614Y14215D01*
X593591Y14267D01*
X593575Y14321D01*
X593491Y14492D01*
X593414Y14666D01*
X593383Y14714D01*
X593358Y14765D01*
X593248Y14920D01*
X593144Y15079D01*
X593105Y15121D01*
X593073Y15167D01*
X592939Y15302D01*
X592810Y15442D01*
X592774Y15469D01*
X592726Y15518D01*
X592513Y15673D01*
X587242Y20944D01*
X583563Y27315D01*
X581659Y34421D01*
X581659Y41779D01*
X583563Y48885D01*
X587242Y55256D01*
X592444Y60458D01*
X598815Y64137D01*
X605921Y66041D01*
X613279Y66041D01*
X620385Y64137D01*
X626756Y60458D01*
X632137Y55077D01*
X632166Y55052D01*
X632192Y55024D01*
X632354Y54893D01*
X632513Y54757D01*
X632546Y54738D01*
X632576Y54714D01*
X632757Y54611D01*
X632936Y54503D01*
X632971Y54489D01*
X633004Y54470D01*
X633200Y54397D01*
X633394Y54320D01*
X633431Y54311D01*
X633467Y54298D01*
X633672Y54258D01*
X633876Y54213D01*
X633914Y54211D01*
X633951Y54203D01*
X634159Y54197D01*
X634368Y54185D01*
X634406Y54189D01*
X634444Y54188D01*
X634651Y54215D01*
X634859Y54237D01*
X634895Y54248D01*
X634933Y54253D01*
X635133Y54313D01*
X635334Y54368D01*
X635369Y54384D01*
X635406Y54395D01*
X635593Y54487D01*
X635783Y54574D01*
X635815Y54595D01*
X635849Y54612D01*
X636018Y54732D01*
X636192Y54849D01*
X636220Y54875D01*
X636251Y54897D01*
X636399Y55044D01*
X636552Y55187D01*
X636575Y55217D01*
X636602Y55244D01*
X636725Y55413D01*
X636852Y55578D01*
X636870Y55612D01*
X636892Y55643D01*
X636986Y55829D01*
X637085Y56013D01*
X637098Y56049D01*
X637115Y56083D01*
X637177Y56282D01*
X637245Y56480D01*
X637251Y56517D01*
X637263Y56554D01*
X637273Y56646D01*
X637328Y56966D01*
X637329Y57138D01*
X637339Y57232D01*
X637339Y787318D01*
X637336Y787356D01*
X637338Y787394D01*
X637316Y787602D01*
X637299Y787810D01*
X637290Y787847D01*
X637286Y787885D01*
X637231Y788086D01*
X637181Y788289D01*
X637166Y788324D01*
X637155Y788361D01*
X637068Y788551D01*
X636986Y788742D01*
X636966Y788774D01*
X636950Y788809D01*
X636833Y788983D01*
X636721Y789158D01*
X636696Y789187D01*
X636674Y789218D01*
X636531Y789371D01*
X636392Y789526D01*
X636363Y789550D01*
X636337Y789578D01*
X636171Y789705D01*
X636008Y789836D01*
X635975Y789855D01*
X635945Y789878D01*
X635761Y789977D01*
X635580Y790080D01*
X635544Y790094D01*
X635510Y790112D01*
X635313Y790179D01*
X635117Y790252D01*
X635080Y790259D01*
X635044Y790272D01*
X634837Y790307D01*
X634633Y790347D01*
X634595Y790348D01*
X634557Y790354D01*
X634348Y790355D01*
X634140Y790362D01*
X634102Y790357D01*
X634064Y790357D01*
X633857Y790325D01*
X633651Y790297D01*
X633614Y790286D01*
X633577Y790281D01*
X633378Y790215D01*
X633179Y790155D01*
X633144Y790138D01*
X633108Y790126D01*
X632923Y790030D01*
X632735Y789938D01*
X632704Y789916D01*
X632670Y789898D01*
X632598Y789840D01*
X632333Y789653D01*
X632211Y789532D01*
X632137Y789473D01*
X626756Y784092D01*
X620385Y780413D01*
X613279Y778509D01*
X605921Y778509D01*
X598815Y780413D01*
X592444Y784092D01*
X587242Y789294D01*
X583563Y795665D01*
X581659Y802771D01*
X581659Y810129D01*
X583563Y817235D01*
X587242Y823606D01*
X592444Y828808D01*
X597545Y831753D01*
X597701Y831861D01*
X597861Y831963D01*
X597903Y832001D01*
X597951Y832033D01*
X598088Y832165D01*
X598229Y832292D01*
X598265Y832336D01*
X598306Y832376D01*
X598420Y832528D01*
X598539Y832676D01*
X598567Y832725D01*
X598601Y832771D01*
X598689Y832940D01*
X598783Y833104D01*
X598803Y833158D01*
X598829Y833208D01*
X598888Y833389D01*
X598954Y833567D01*
X598965Y833623D01*
X598983Y833677D01*
X599013Y833865D01*
X599049Y834051D01*
X599051Y834108D01*
X599060Y834164D01*
X599059Y834355D01*
X599065Y834544D01*
X599057Y834600D01*
X599057Y834658D01*
X599025Y834845D01*
X599000Y835033D01*
X598984Y835088D01*
X598974Y835144D01*
X598912Y835324D01*
X598858Y835506D01*
X598833Y835557D01*
X598814Y835611D01*
X598724Y835778D01*
X598641Y835949D01*
X598608Y835995D01*
X598581Y836045D01*
X598465Y836196D01*
X598355Y836351D01*
X598315Y836392D01*
X598280Y836437D01*
X598142Y836567D01*
X598009Y836702D01*
X597962Y836736D01*
X597921Y836775D01*
X597763Y836881D01*
X597610Y836992D01*
X597559Y837018D01*
X597511Y837050D01*
X597339Y837129D01*
X597169Y837215D01*
X597115Y837232D01*
X597063Y837256D01*
X596880Y837306D01*
X596699Y837363D01*
X596653Y837368D01*
X596587Y837386D01*
X596097Y837438D01*
X596052Y837436D01*
X596021Y837439D01*
X51679Y837439D01*
X51490Y837424D01*
X51300Y837416D01*
X51244Y837404D01*
X51187Y837399D01*
X51003Y837354D01*
X50817Y837315D01*
X50764Y837294D01*
X50708Y837281D01*
X50534Y837206D01*
X50357Y837137D01*
X50307Y837109D01*
X50255Y837086D01*
X50095Y836984D01*
X49931Y836888D01*
X49887Y836852D01*
X49839Y836821D01*
X49697Y836694D01*
X49551Y836573D01*
X49514Y836530D01*
X49471Y836492D01*
X49352Y836345D01*
X49227Y836201D01*
X49197Y836153D01*
X49161Y836108D01*
X49067Y835943D01*
X48967Y835782D01*
X48945Y835729D01*
X48917Y835680D01*
X48851Y835501D01*
X48778Y835326D01*
X48765Y835271D01*
X48746Y835217D01*
X48709Y835031D01*
X48666Y834846D01*
X48662Y834789D01*
X48651Y834733D01*
X48645Y834543D01*
X48632Y834354D01*
X48637Y834297D01*
X48635Y834240D01*
X48660Y834052D01*
X48678Y833863D01*
X48692Y833807D01*
X48700Y833751D01*
X48755Y833569D01*
X48803Y833385D01*
X48826Y833333D01*
X48842Y833279D01*
X48926Y833108D01*
X49003Y832934D01*
X49034Y832887D01*
X49059Y832835D01*
X49169Y832681D01*
X49273Y832522D01*
X49312Y832480D01*
X49345Y832433D01*
X49478Y832298D01*
X49607Y832158D01*
X49643Y832131D01*
X49691Y832082D01*
X50090Y831792D01*
X50130Y831771D01*
X50155Y831753D01*
X55256Y828808D01*
X60458Y823606D01*
X64137Y817235D01*
X66041Y810129D01*
X66041Y802771D01*
X64137Y795665D01*
X60458Y789294D01*
X55256Y784092D01*
X48885Y780413D01*
X41779Y778509D01*
X34421Y778509D01*
X27315Y780413D01*
X20944Y784092D01*
X15689Y789347D01*
X15637Y789428D01*
X15599Y789471D01*
X15567Y789518D01*
X15435Y789655D01*
X15308Y789796D01*
X15264Y789832D01*
X15225Y789873D01*
X15072Y789987D01*
X14924Y790106D01*
X14875Y790134D01*
X14830Y790168D01*
X14661Y790256D01*
X14496Y790350D01*
X14442Y790370D01*
X14392Y790396D01*
X14212Y790456D01*
X14033Y790522D01*
X13977Y790533D01*
X13923Y790550D01*
X13735Y790580D01*
X13549Y790616D01*
X13492Y790618D01*
X13436Y790627D01*
X13245Y790626D01*
X13056Y790632D01*
X13000Y790624D01*
X12943Y790624D01*
X12755Y790592D01*
X12567Y790567D01*
X12512Y790551D01*
X12456Y790541D01*
X12276Y790480D01*
X12094Y790425D01*
X12043Y790400D01*
X11990Y790381D01*
X11822Y790291D01*
X11651Y790208D01*
X11605Y790175D01*
X11555Y790148D01*
X11404Y790033D01*
X11249Y789922D01*
X11209Y789883D01*
X11163Y789848D01*
X11033Y789709D01*
X10898Y789576D01*
X10865Y789530D01*
X10826Y789488D01*
X10719Y789330D01*
X10608Y789177D01*
X10582Y789126D01*
X10550Y789079D01*
X10471Y788906D01*
X10385Y788737D01*
X10368Y788682D01*
X10345Y788631D01*
X10294Y788448D01*
X10237Y788266D01*
X10232Y788221D01*
X10214Y788155D01*
X10162Y787664D01*
X10164Y787619D01*
X10161Y787588D01*
X10161Y56962D01*
X10176Y56772D01*
X10184Y56582D01*
X10196Y56527D01*
X10201Y56470D01*
X10247Y56285D01*
X10285Y56099D01*
X10306Y56046D01*
X10319Y55991D01*
X10394Y55816D01*
X10463Y55639D01*
X10491Y55590D01*
X10514Y55538D01*
X10616Y55378D01*
X10712Y55213D01*
X10748Y55170D01*
X10779Y55122D01*
X10906Y54980D01*
X11027Y54834D01*
X11070Y54796D01*
X11108Y54754D01*
X11255Y54634D01*
X11399Y54510D01*
X11447Y54479D01*
X11492Y54444D01*
X11656Y54350D01*
X11818Y54250D01*
X11871Y54228D01*
X11920Y54200D01*
X12099Y54134D01*
X12274Y54061D01*
X12329Y54048D01*
X12383Y54028D01*
X12569Y53992D01*
X12754Y53948D01*
X12811Y53944D01*
X12867Y53934D01*
X13057Y53928D01*
X13247Y53915D01*
X13303Y53920D01*
X13360Y53918D01*
X13548Y53943D01*
X13738Y53961D01*
X13793Y53975D01*
X13849Y53983D01*
X14031Y54038D01*
X14215Y54086D01*
X14267Y54109D01*
X14321Y54125D01*
X14492Y54209D01*
X14666Y54286D01*
X14713Y54317D01*
X14765Y54342D01*
X14920Y54452D01*
X15079Y54556D01*
X15121Y54595D01*
X15167Y54628D01*
X15302Y54761D01*
X15442Y54890D01*
X15469Y54926D01*
X15518Y54974D01*
X15673Y55187D01*
X20944Y60458D01*
X27315Y64137D01*
X34421Y66041D01*
X41778Y66041D01*
X44268Y65374D01*
X44455Y65340D01*
X44640Y65298D01*
X44697Y65295D01*
X44753Y65285D01*
X44943Y65281D01*
X45133Y65271D01*
X45189Y65277D01*
X45246Y65276D01*
X45435Y65303D01*
X45623Y65323D01*
X45678Y65338D01*
X45735Y65346D01*
X45916Y65403D01*
X46099Y65454D01*
X46151Y65477D01*
X46205Y65495D01*
X46375Y65580D01*
X46547Y65659D01*
X46595Y65691D01*
X46646Y65717D01*
X46799Y65829D01*
X46957Y65935D01*
X46998Y65974D01*
X47044Y66007D01*
X47178Y66143D01*
X47316Y66273D01*
X47351Y66318D01*
X47391Y66358D01*
X47501Y66514D01*
X47616Y66664D01*
X47643Y66714D01*
X47676Y66761D01*
X47760Y66932D01*
X47850Y67099D01*
X47868Y67153D01*
X47893Y67204D01*
X47948Y67386D01*
X48010Y67565D01*
X48019Y67622D01*
X48036Y67676D01*
X48060Y67864D01*
X48092Y68052D01*
X48093Y68109D01*
X48100Y68165D01*
X48094Y68355D01*
X48095Y68545D01*
X48086Y68602D01*
X48085Y68658D01*
X48048Y68845D01*
X48019Y69032D01*
X48001Y69087D01*
X47990Y69143D01*
X47924Y69321D01*
X47864Y69501D01*
X47838Y69552D01*
X47818Y69605D01*
X47724Y69770D01*
X47637Y69939D01*
X47608Y69974D01*
X47574Y70034D01*
X47264Y70418D01*
X47231Y70448D01*
X47211Y70472D01*
X30855Y86828D01*
X29463Y90189D01*
X29463Y148748D01*
X29462Y148758D01*
X29463Y148768D01*
X29443Y149003D01*
X29423Y149240D01*
X29421Y149250D01*
X29420Y149259D01*
X29409Y149298D01*
X29305Y149719D01*
X29253Y149839D01*
X29231Y149915D01*
X28955Y150581D01*
X28955Y154219D01*
X30347Y157580D01*
X33348Y160581D01*
X33349Y160581D01*
X71020Y198253D01*
X74381Y199645D01*
X82464Y199645D01*
X82578Y199654D01*
X82692Y199653D01*
X82824Y199674D01*
X82956Y199685D01*
X83067Y199712D01*
X83179Y199730D01*
X83306Y199771D01*
X83435Y199803D01*
X83540Y199848D01*
X83648Y199884D01*
X83766Y199946D01*
X83888Y199998D01*
X83984Y200059D01*
X84086Y200112D01*
X84159Y200171D01*
X84304Y200263D01*
X84546Y200479D01*
X84619Y200537D01*
X85127Y201045D01*
X85176Y201103D01*
X85232Y201156D01*
X85336Y201291D01*
X85446Y201421D01*
X85486Y201486D01*
X85532Y201547D01*
X85613Y201697D01*
X85701Y201844D01*
X85729Y201915D01*
X85765Y201982D01*
X85821Y202143D01*
X85884Y202302D01*
X85900Y202376D01*
X85925Y202448D01*
X85954Y202617D01*
X85991Y202784D01*
X85995Y202860D01*
X86008Y202935D01*
X86009Y203106D01*
X86018Y203276D01*
X86010Y203352D01*
X86011Y203428D01*
X85984Y203597D01*
X85966Y203767D01*
X85946Y203840D01*
X85934Y203915D01*
X85881Y204078D01*
X85836Y204242D01*
X85804Y204312D01*
X85780Y204384D01*
X85701Y204535D01*
X85630Y204691D01*
X85587Y204754D01*
X85552Y204822D01*
X85486Y204904D01*
X85354Y205100D01*
X85193Y205272D01*
X85127Y205355D01*
X82351Y208130D01*
X80263Y213172D01*
X80263Y218628D01*
X82352Y223670D01*
X85127Y226445D01*
X85176Y226503D01*
X85232Y226556D01*
X85336Y226691D01*
X85446Y226821D01*
X85486Y226886D01*
X85532Y226947D01*
X85613Y227097D01*
X85701Y227244D01*
X85729Y227315D01*
X85765Y227382D01*
X85821Y227543D01*
X85884Y227702D01*
X85901Y227776D01*
X85925Y227848D01*
X85954Y228017D01*
X85991Y228184D01*
X85995Y228260D01*
X86008Y228335D01*
X86009Y228505D01*
X86018Y228676D01*
X86010Y228752D01*
X86011Y228828D01*
X85984Y228997D01*
X85966Y229167D01*
X85946Y229240D01*
X85934Y229315D01*
X85881Y229478D01*
X85836Y229642D01*
X85804Y229712D01*
X85780Y229784D01*
X85701Y229936D01*
X85630Y230091D01*
X85587Y230154D01*
X85552Y230222D01*
X85486Y230304D01*
X85354Y230500D01*
X85193Y230672D01*
X85127Y230755D01*
X84619Y231263D01*
X84532Y231337D01*
X84452Y231418D01*
X84344Y231496D01*
X84243Y231582D01*
X84145Y231641D01*
X84053Y231708D01*
X83934Y231768D01*
X83820Y231837D01*
X83714Y231879D01*
X83612Y231931D01*
X83486Y231971D01*
X83362Y232020D01*
X83251Y232045D01*
X83142Y232079D01*
X83048Y232089D01*
X82881Y232127D01*
X82556Y232145D01*
X82464Y232155D01*
X64112Y232155D01*
X63998Y232146D01*
X63884Y232147D01*
X63753Y232126D01*
X63620Y232115D01*
X63509Y232088D01*
X63397Y232070D01*
X63270Y232029D01*
X63141Y231997D01*
X63037Y231952D01*
X62928Y231916D01*
X62810Y231854D01*
X62688Y231802D01*
X62592Y231741D01*
X62490Y231688D01*
X62417Y231629D01*
X62272Y231537D01*
X62030Y231321D01*
X61957Y231263D01*
X59289Y228595D01*
X53781Y226313D01*
X47819Y226313D01*
X42311Y228595D01*
X38095Y232811D01*
X35813Y238319D01*
X35813Y244281D01*
X38095Y249789D01*
X42311Y254005D01*
X47819Y256287D01*
X53781Y256287D01*
X59289Y254005D01*
X61957Y251337D01*
X62044Y251263D01*
X62124Y251182D01*
X62232Y251104D01*
X62333Y251018D01*
X62431Y250959D01*
X62523Y250892D01*
X62642Y250832D01*
X62756Y250763D01*
X62862Y250721D01*
X62964Y250669D01*
X63091Y250629D01*
X63214Y250580D01*
X63325Y250555D01*
X63434Y250521D01*
X63528Y250511D01*
X63695Y250473D01*
X64020Y250455D01*
X64112Y250445D01*
X82464Y250445D01*
X82578Y250454D01*
X82692Y250453D01*
X82824Y250474D01*
X82956Y250485D01*
X83067Y250512D01*
X83179Y250530D01*
X83306Y250571D01*
X83435Y250603D01*
X83540Y250648D01*
X83648Y250684D01*
X83766Y250746D01*
X83888Y250798D01*
X83984Y250859D01*
X84086Y250912D01*
X84159Y250971D01*
X84304Y251063D01*
X84546Y251279D01*
X84619Y251337D01*
X85127Y251845D01*
X85176Y251903D01*
X85232Y251956D01*
X85336Y252091D01*
X85446Y252221D01*
X85486Y252286D01*
X85532Y252347D01*
X85613Y252497D01*
X85701Y252644D01*
X85729Y252715D01*
X85765Y252782D01*
X85821Y252943D01*
X85884Y253102D01*
X85900Y253176D01*
X85925Y253248D01*
X85954Y253417D01*
X85991Y253584D01*
X85995Y253660D01*
X86008Y253735D01*
X86009Y253906D01*
X86018Y254076D01*
X86010Y254152D01*
X86011Y254228D01*
X85984Y254397D01*
X85966Y254567D01*
X85946Y254640D01*
X85934Y254715D01*
X85881Y254878D01*
X85836Y255042D01*
X85804Y255112D01*
X85780Y255184D01*
X85701Y255335D01*
X85630Y255491D01*
X85587Y255554D01*
X85552Y255622D01*
X85486Y255704D01*
X85354Y255900D01*
X85193Y256072D01*
X85127Y256155D01*
X82351Y258930D01*
X80263Y263972D01*
X80263Y269428D01*
X82352Y274470D01*
X85127Y277245D01*
X85176Y277303D01*
X85232Y277356D01*
X85336Y277491D01*
X85446Y277621D01*
X85486Y277686D01*
X85532Y277747D01*
X85613Y277897D01*
X85701Y278044D01*
X85729Y278115D01*
X85765Y278182D01*
X85821Y278343D01*
X85884Y278502D01*
X85900Y278576D01*
X85925Y278648D01*
X85954Y278817D01*
X85991Y278984D01*
X85995Y279060D01*
X86008Y279135D01*
X86009Y279306D01*
X86018Y279476D01*
X86010Y279552D01*
X86011Y279628D01*
X85984Y279797D01*
X85966Y279967D01*
X85946Y280040D01*
X85934Y280115D01*
X85881Y280278D01*
X85836Y280442D01*
X85804Y280512D01*
X85780Y280584D01*
X85701Y280735D01*
X85630Y280891D01*
X85587Y280954D01*
X85552Y281022D01*
X85486Y281104D01*
X85354Y281300D01*
X85193Y281472D01*
X85127Y281555D01*
X82351Y284330D01*
X80263Y289372D01*
X80263Y294828D01*
X82352Y299870D01*
X86210Y303728D01*
X91252Y305817D01*
X111948Y305817D01*
X116990Y303728D01*
X118581Y302137D01*
X118668Y302063D01*
X118748Y301982D01*
X118856Y301904D01*
X118957Y301818D01*
X119055Y301759D01*
X119147Y301692D01*
X119266Y301632D01*
X119380Y301563D01*
X119486Y301521D01*
X119588Y301469D01*
X119714Y301429D01*
X119838Y301380D01*
X119949Y301355D01*
X120058Y301321D01*
X120152Y301311D01*
X120319Y301273D01*
X120644Y301255D01*
X120736Y301245D01*
X154219Y301245D01*
X157580Y299853D01*
X206095Y251337D01*
X206182Y251263D01*
X206263Y251182D01*
X206370Y251104D01*
X206471Y251018D01*
X206569Y250959D01*
X206661Y250892D01*
X206780Y250832D01*
X206894Y250763D01*
X207000Y250721D01*
X207102Y250669D01*
X207229Y250629D01*
X207352Y250580D01*
X207463Y250555D01*
X207572Y250521D01*
X207666Y250511D01*
X207834Y250473D01*
X208158Y250455D01*
X208250Y250445D01*
X237317Y250445D01*
X237431Y250454D01*
X237545Y250453D01*
X237676Y250474D01*
X237809Y250485D01*
X237919Y250512D01*
X238032Y250530D01*
X238159Y250571D01*
X238288Y250603D01*
X238392Y250648D01*
X238501Y250684D01*
X238619Y250746D01*
X238741Y250798D01*
X238837Y250859D01*
X238939Y250912D01*
X239012Y250971D01*
X239157Y251063D01*
X239399Y251279D01*
X239472Y251337D01*
X239980Y251845D01*
X240029Y251903D01*
X240085Y251956D01*
X240188Y252091D01*
X240299Y252221D01*
X240339Y252287D01*
X240385Y252347D01*
X240466Y252497D01*
X240554Y252644D01*
X240582Y252715D01*
X240618Y252782D01*
X240674Y252943D01*
X240737Y253102D01*
X240753Y253176D01*
X240778Y253248D01*
X240807Y253417D01*
X240844Y253584D01*
X240848Y253660D01*
X240861Y253735D01*
X240862Y253906D01*
X240871Y254076D01*
X240863Y254152D01*
X240864Y254228D01*
X240837Y254397D01*
X240819Y254567D01*
X240799Y254640D01*
X240787Y254715D01*
X240734Y254878D01*
X240688Y255042D01*
X240657Y255112D01*
X240633Y255184D01*
X240554Y255336D01*
X240483Y255491D01*
X240440Y255554D01*
X240405Y255622D01*
X240339Y255704D01*
X240207Y255900D01*
X240045Y256072D01*
X239980Y256155D01*
X238370Y257764D01*
X238363Y257771D01*
X238356Y257778D01*
X238177Y257929D01*
X237994Y258084D01*
X237986Y258089D01*
X237978Y258095D01*
X237944Y258114D01*
X237572Y258338D01*
X237450Y258387D01*
X237382Y258425D01*
X236120Y258947D01*
X162205Y332863D01*
X162118Y332937D01*
X162037Y333018D01*
X161930Y333096D01*
X161829Y333182D01*
X161731Y333241D01*
X161639Y333308D01*
X161520Y333368D01*
X161406Y333437D01*
X161300Y333479D01*
X161198Y333531D01*
X161071Y333571D01*
X160948Y333620D01*
X160837Y333645D01*
X160728Y333679D01*
X160634Y333689D01*
X160466Y333727D01*
X160142Y333745D01*
X160050Y333755D01*
X137881Y333755D01*
X134520Y335147D01*
X131519Y338149D01*
X106789Y362878D01*
X106623Y363020D01*
X106459Y363164D01*
X106435Y363179D01*
X106414Y363197D01*
X106226Y363310D01*
X106042Y363426D01*
X106015Y363437D01*
X105991Y363452D01*
X105789Y363533D01*
X105587Y363618D01*
X105559Y363625D01*
X105533Y363635D01*
X105321Y363682D01*
X105107Y363734D01*
X105079Y363736D01*
X105051Y363742D01*
X104833Y363754D01*
X104615Y363770D01*
X104587Y363768D01*
X104559Y363770D01*
X104342Y363746D01*
X104124Y363727D01*
X99276Y363727D01*
X94981Y365506D01*
X91694Y368793D01*
X89915Y373088D01*
X89915Y388912D01*
X91694Y393207D01*
X94981Y396494D01*
X99276Y398273D01*
X102108Y398273D01*
X102184Y398279D01*
X102260Y398277D01*
X102429Y398299D01*
X102600Y398313D01*
X102674Y398331D01*
X102749Y398341D01*
X102913Y398390D01*
X103079Y398431D01*
X103148Y398461D01*
X103222Y398483D01*
X103375Y398559D01*
X103532Y398626D01*
X103596Y398667D01*
X103665Y398700D01*
X103804Y398799D01*
X103948Y398891D01*
X104005Y398942D01*
X104067Y398986D01*
X104188Y399106D01*
X104316Y399220D01*
X104364Y399279D01*
X104418Y399333D01*
X104519Y399471D01*
X104626Y399604D01*
X104663Y399670D01*
X104708Y399731D01*
X104785Y399884D01*
X104870Y400032D01*
X104896Y400104D01*
X104931Y400172D01*
X104982Y400335D01*
X105041Y400495D01*
X105056Y400570D01*
X105079Y400642D01*
X105091Y400747D01*
X105136Y400979D01*
X105143Y401215D01*
X105155Y401320D01*
X105155Y434421D01*
X105146Y434535D01*
X105147Y434649D01*
X105126Y434780D01*
X105115Y434913D01*
X105088Y435023D01*
X105070Y435136D01*
X105029Y435263D01*
X104997Y435392D01*
X104952Y435496D01*
X104916Y435605D01*
X104854Y435723D01*
X104802Y435845D01*
X104741Y435941D01*
X104688Y436043D01*
X104629Y436116D01*
X104537Y436261D01*
X104321Y436503D01*
X104263Y436576D01*
X101240Y439598D01*
X101182Y439647D01*
X101130Y439703D01*
X100994Y439807D01*
X100864Y439918D01*
X100799Y439957D01*
X100739Y440003D01*
X100588Y440084D01*
X100442Y440172D01*
X100371Y440201D01*
X100304Y440237D01*
X100142Y440292D01*
X99984Y440355D01*
X99909Y440372D01*
X99837Y440397D01*
X99669Y440425D01*
X99502Y440462D01*
X99426Y440466D01*
X99351Y440479D01*
X99180Y440480D01*
X99009Y440490D01*
X98934Y440482D01*
X98857Y440482D01*
X98688Y440456D01*
X98519Y440438D01*
X98446Y440417D01*
X98370Y440406D01*
X98208Y440352D01*
X98043Y440307D01*
X97974Y440275D01*
X97902Y440251D01*
X97750Y440172D01*
X97595Y440101D01*
X97532Y440059D01*
X97464Y440023D01*
X97382Y439958D01*
X97185Y439826D01*
X97013Y439664D01*
X96931Y439598D01*
X92688Y435355D01*
X91947Y435355D01*
X91947Y444500D01*
X91947Y453645D01*
X92688Y453645D01*
X96931Y449402D01*
X96989Y449352D01*
X97041Y449297D01*
X97176Y449193D01*
X97307Y449082D01*
X97372Y449043D01*
X97432Y448997D01*
X97583Y448916D01*
X97729Y448828D01*
X97800Y448799D01*
X97867Y448763D01*
X98029Y448708D01*
X98187Y448645D01*
X98262Y448628D01*
X98334Y448603D01*
X98502Y448575D01*
X98669Y448538D01*
X98745Y448534D01*
X98820Y448521D01*
X98991Y448520D01*
X99162Y448510D01*
X99237Y448518D01*
X99314Y448518D01*
X99482Y448544D01*
X99652Y448562D01*
X99725Y448583D01*
X99801Y448594D01*
X99963Y448648D01*
X100128Y448693D01*
X100197Y448725D01*
X100269Y448749D01*
X100421Y448828D01*
X100576Y448899D01*
X100640Y448941D01*
X100707Y448977D01*
X100789Y449042D01*
X100986Y449174D01*
X101158Y449336D01*
X101240Y449402D01*
X109039Y457201D01*
X119561Y457201D01*
X125353Y451408D01*
X125382Y451384D01*
X125408Y451355D01*
X125570Y451224D01*
X125729Y451089D01*
X125762Y451069D01*
X125792Y451045D01*
X125973Y450942D01*
X126152Y450834D01*
X126187Y450820D01*
X126220Y450801D01*
X126416Y450728D01*
X126610Y450651D01*
X126647Y450643D01*
X126683Y450630D01*
X126888Y450590D01*
X127092Y450544D01*
X127130Y450542D01*
X127167Y450535D01*
X127375Y450528D01*
X127584Y450517D01*
X127622Y450521D01*
X127660Y450520D01*
X127867Y450547D01*
X128075Y450569D01*
X128111Y450579D01*
X128149Y450584D01*
X128349Y450644D01*
X128550Y450700D01*
X128585Y450715D01*
X128622Y450726D01*
X128809Y450818D01*
X128999Y450905D01*
X129031Y450927D01*
X129065Y450943D01*
X129234Y451064D01*
X129408Y451181D01*
X129436Y451207D01*
X129467Y451229D01*
X129615Y451375D01*
X129768Y451518D01*
X129791Y451549D01*
X129818Y451575D01*
X129941Y451744D01*
X130068Y451910D01*
X130086Y451943D01*
X130108Y451974D01*
X130202Y452160D01*
X130301Y452345D01*
X130314Y452381D01*
X130331Y452415D01*
X130393Y452613D01*
X130461Y452811D01*
X130467Y452849D01*
X130479Y452885D01*
X130489Y452978D01*
X130544Y453298D01*
X130545Y453470D01*
X130555Y453563D01*
X130555Y477550D01*
X130546Y477664D01*
X130547Y477778D01*
X130526Y477909D01*
X130515Y478042D01*
X130488Y478152D01*
X130470Y478265D01*
X130429Y478392D01*
X130397Y478520D01*
X130352Y478625D01*
X130316Y478734D01*
X130254Y478852D01*
X130202Y478974D01*
X130141Y479070D01*
X130088Y479171D01*
X130029Y479245D01*
X129937Y479390D01*
X129721Y479632D01*
X129663Y479705D01*
X125319Y484048D01*
X125261Y484097D01*
X125209Y484153D01*
X125073Y484257D01*
X124943Y484368D01*
X124878Y484407D01*
X124818Y484453D01*
X124667Y484534D01*
X124521Y484622D01*
X124450Y484651D01*
X124383Y484687D01*
X124221Y484742D01*
X124063Y484805D01*
X123988Y484822D01*
X123916Y484847D01*
X123748Y484875D01*
X123581Y484912D01*
X123505Y484916D01*
X123430Y484929D01*
X123259Y484930D01*
X123088Y484940D01*
X123013Y484932D01*
X122936Y484932D01*
X122767Y484906D01*
X122598Y484888D01*
X122524Y484867D01*
X122449Y484856D01*
X122287Y484802D01*
X122122Y484757D01*
X122053Y484725D01*
X121980Y484701D01*
X121829Y484622D01*
X121674Y484551D01*
X121610Y484509D01*
X121543Y484473D01*
X121461Y484408D01*
X121264Y484276D01*
X121092Y484114D01*
X121010Y484048D01*
X119561Y482599D01*
X109039Y482599D01*
X101240Y490398D01*
X101182Y490447D01*
X101130Y490503D01*
X100994Y490607D01*
X100864Y490718D01*
X100799Y490757D01*
X100739Y490803D01*
X100588Y490884D01*
X100442Y490972D01*
X100371Y491001D01*
X100304Y491037D01*
X100142Y491092D01*
X99984Y491155D01*
X99909Y491172D01*
X99837Y491197D01*
X99669Y491225D01*
X99502Y491262D01*
X99426Y491266D01*
X99351Y491279D01*
X99180Y491280D01*
X99009Y491290D01*
X98934Y491282D01*
X98857Y491282D01*
X98688Y491256D01*
X98519Y491238D01*
X98446Y491217D01*
X98370Y491206D01*
X98208Y491152D01*
X98043Y491107D01*
X97974Y491075D01*
X97902Y491051D01*
X97750Y490972D01*
X97595Y490901D01*
X97532Y490859D01*
X97464Y490823D01*
X97382Y490758D01*
X97185Y490626D01*
X97013Y490464D01*
X96931Y490398D01*
X92688Y486155D01*
X91947Y486155D01*
X91947Y495300D01*
X91947Y504445D01*
X92688Y504445D01*
X96931Y500202D01*
X96989Y500152D01*
X97041Y500097D01*
X97176Y499993D01*
X97307Y499882D01*
X97372Y499843D01*
X97432Y499797D01*
X97583Y499716D01*
X97729Y499628D01*
X97800Y499599D01*
X97867Y499563D01*
X98029Y499508D01*
X98187Y499445D01*
X98262Y499428D01*
X98334Y499403D01*
X98502Y499375D01*
X98669Y499338D01*
X98745Y499334D01*
X98820Y499321D01*
X98991Y499320D01*
X99162Y499310D01*
X99237Y499318D01*
X99314Y499318D01*
X99482Y499344D01*
X99652Y499362D01*
X99725Y499383D01*
X99801Y499394D01*
X99963Y499448D01*
X100128Y499493D01*
X100197Y499525D01*
X100269Y499549D01*
X100421Y499628D01*
X100576Y499699D01*
X100640Y499741D01*
X100707Y499777D01*
X100789Y499842D01*
X100986Y499974D01*
X101158Y500136D01*
X101240Y500202D01*
X109039Y508001D01*
X119561Y508001D01*
X122224Y505337D01*
X122311Y505263D01*
X122392Y505182D01*
X122499Y505104D01*
X122600Y505018D01*
X122698Y504959D01*
X122790Y504892D01*
X122909Y504832D01*
X123023Y504763D01*
X123129Y504721D01*
X123231Y504669D01*
X123358Y504629D01*
X123481Y504580D01*
X123592Y504555D01*
X123701Y504521D01*
X123795Y504511D01*
X123963Y504473D01*
X124287Y504455D01*
X124379Y504445D01*
X128819Y504445D01*
X132180Y503053D01*
X147453Y487780D01*
X148845Y484419D01*
X148845Y401320D01*
X148851Y401244D01*
X148849Y401168D01*
X148871Y400999D01*
X148885Y400828D01*
X148903Y400754D01*
X148913Y400679D01*
X148962Y400515D01*
X149003Y400349D01*
X149033Y400280D01*
X149055Y400206D01*
X149131Y400053D01*
X149198Y399896D01*
X149239Y399832D01*
X149272Y399763D01*
X149371Y399624D01*
X149463Y399480D01*
X149514Y399423D01*
X149558Y399361D01*
X149678Y399240D01*
X149792Y399112D01*
X149851Y399064D01*
X149905Y399010D01*
X150043Y398909D01*
X150176Y398802D01*
X150242Y398765D01*
X150303Y398720D01*
X150456Y398643D01*
X150604Y398558D01*
X150676Y398532D01*
X150744Y398497D01*
X150907Y398446D01*
X151067Y398387D01*
X151142Y398372D01*
X151214Y398349D01*
X151319Y398337D01*
X151551Y398292D01*
X151787Y398285D01*
X151892Y398273D01*
X154724Y398273D01*
X159019Y396494D01*
X162306Y393207D01*
X164085Y388912D01*
X164085Y383510D01*
X164094Y383396D01*
X164093Y383282D01*
X164114Y383151D01*
X164125Y383018D01*
X164152Y382908D01*
X164170Y382795D01*
X164211Y382668D01*
X164243Y382540D01*
X164288Y382435D01*
X164324Y382326D01*
X164386Y382208D01*
X164438Y382086D01*
X164499Y381990D01*
X164552Y381889D01*
X164611Y381815D01*
X164703Y381670D01*
X164919Y381428D01*
X164977Y381355D01*
X233257Y313076D01*
X233280Y313056D01*
X233300Y313033D01*
X233468Y312897D01*
X233633Y312756D01*
X233659Y312740D01*
X233683Y312721D01*
X233869Y312614D01*
X234055Y312502D01*
X234084Y312490D01*
X234110Y312475D01*
X234313Y312399D01*
X234513Y312319D01*
X234543Y312312D01*
X234572Y312301D01*
X234784Y312259D01*
X234995Y312212D01*
X235026Y312210D01*
X235055Y312204D01*
X235271Y312196D01*
X235488Y312184D01*
X235518Y312187D01*
X235548Y312186D01*
X235763Y312214D01*
X235978Y312236D01*
X236007Y312244D01*
X236038Y312248D01*
X236246Y312310D01*
X236454Y312367D01*
X236482Y312380D01*
X236511Y312388D01*
X236705Y312482D01*
X236902Y312573D01*
X236928Y312590D01*
X236955Y312603D01*
X237132Y312727D01*
X237312Y312848D01*
X237334Y312869D01*
X237359Y312887D01*
X237514Y313038D01*
X237671Y313186D01*
X237690Y313210D01*
X237712Y313232D01*
X237840Y313406D01*
X237971Y313577D01*
X237986Y313604D01*
X238004Y313629D01*
X238102Y313821D01*
X238205Y314012D01*
X238215Y314041D01*
X238228Y314068D01*
X238294Y314274D01*
X238356Y314453D01*
X254000Y314453D01*
X269229Y314453D01*
X269079Y313990D01*
X268425Y312707D01*
X267579Y311543D01*
X266561Y310525D01*
X265397Y309679D01*
X264989Y309471D01*
X264848Y309384D01*
X264703Y309305D01*
X264639Y309255D01*
X264569Y309212D01*
X264444Y309104D01*
X264314Y309003D01*
X264259Y308943D01*
X264197Y308889D01*
X264091Y308762D01*
X263978Y308641D01*
X263933Y308573D01*
X263881Y308510D01*
X263797Y308367D01*
X263706Y308230D01*
X263672Y308156D01*
X263631Y308085D01*
X263571Y307931D01*
X263503Y307780D01*
X263482Y307701D01*
X263452Y307625D01*
X263418Y307463D01*
X263375Y307304D01*
X263367Y307223D01*
X263350Y307142D01*
X263342Y306977D01*
X263326Y306813D01*
X263331Y306731D01*
X263327Y306650D01*
X263347Y306485D01*
X263357Y306320D01*
X263375Y306241D01*
X263384Y306160D01*
X263430Y306001D01*
X263467Y305839D01*
X263497Y305764D01*
X263520Y305685D01*
X263590Y305536D01*
X263653Y305382D01*
X263695Y305313D01*
X263730Y305239D01*
X263824Y305103D01*
X263910Y304962D01*
X263963Y304900D01*
X264009Y304832D01*
X264124Y304713D01*
X264232Y304588D01*
X264294Y304535D01*
X264351Y304476D01*
X264483Y304377D01*
X264610Y304271D01*
X264665Y304240D01*
X264745Y304180D01*
X265182Y303951D01*
X265197Y303946D01*
X265207Y303941D01*
X267798Y302867D01*
X271371Y299294D01*
X273305Y294626D01*
X273305Y289574D01*
X271371Y284906D01*
X268020Y281555D01*
X267971Y281497D01*
X267915Y281445D01*
X267812Y281309D01*
X267701Y281179D01*
X267661Y281113D01*
X267615Y281053D01*
X267534Y280903D01*
X267446Y280756D01*
X267418Y280686D01*
X267382Y280618D01*
X267326Y280457D01*
X267263Y280298D01*
X267247Y280224D01*
X267222Y280152D01*
X267193Y279983D01*
X267156Y279817D01*
X267152Y279740D01*
X267139Y279665D01*
X267138Y279494D01*
X267129Y279324D01*
X267137Y279248D01*
X267136Y279172D01*
X267163Y279003D01*
X267181Y278833D01*
X267201Y278760D01*
X267213Y278685D01*
X267266Y278522D01*
X267312Y278358D01*
X267343Y278288D01*
X267367Y278216D01*
X267446Y278064D01*
X267517Y277909D01*
X267560Y277846D01*
X267595Y277778D01*
X267661Y277696D01*
X267793Y277500D01*
X267955Y277327D01*
X268020Y277245D01*
X271371Y273894D01*
X273305Y269226D01*
X273305Y264174D01*
X271371Y259506D01*
X268020Y256155D01*
X267971Y256097D01*
X267915Y256045D01*
X267812Y255909D01*
X267701Y255779D01*
X267661Y255713D01*
X267615Y255653D01*
X267534Y255503D01*
X267446Y255356D01*
X267418Y255286D01*
X267382Y255218D01*
X267326Y255057D01*
X267263Y254898D01*
X267247Y254824D01*
X267222Y254752D01*
X267193Y254583D01*
X267156Y254417D01*
X267152Y254340D01*
X267139Y254265D01*
X267138Y254094D01*
X267129Y253924D01*
X267137Y253848D01*
X267136Y253772D01*
X267163Y253603D01*
X267181Y253433D01*
X267201Y253360D01*
X267213Y253285D01*
X267266Y253122D01*
X267312Y252958D01*
X267343Y252888D01*
X267367Y252816D01*
X267446Y252664D01*
X267517Y252509D01*
X267560Y252446D01*
X267595Y252378D01*
X267661Y252296D01*
X267793Y252100D01*
X267889Y251997D01*
X267900Y251982D01*
X267959Y251922D01*
X268020Y251845D01*
X271371Y248494D01*
X273305Y243826D01*
X273305Y238774D01*
X271371Y234106D01*
X268020Y230755D01*
X267971Y230697D01*
X267915Y230645D01*
X267812Y230509D01*
X267701Y230379D01*
X267661Y230313D01*
X267615Y230253D01*
X267534Y230103D01*
X267446Y229956D01*
X267418Y229886D01*
X267382Y229818D01*
X267326Y229657D01*
X267263Y229498D01*
X267247Y229424D01*
X267222Y229352D01*
X267193Y229183D01*
X267156Y229017D01*
X267152Y228940D01*
X267139Y228865D01*
X267138Y228694D01*
X267129Y228524D01*
X267137Y228448D01*
X267136Y228372D01*
X267163Y228203D01*
X267181Y228033D01*
X267201Y227960D01*
X267213Y227885D01*
X267266Y227722D01*
X267312Y227558D01*
X267343Y227488D01*
X267367Y227416D01*
X267446Y227264D01*
X267517Y227109D01*
X267560Y227046D01*
X267595Y226978D01*
X267661Y226896D01*
X267793Y226700D01*
X267955Y226527D01*
X268020Y226445D01*
X271371Y223094D01*
X273305Y218426D01*
X273305Y213374D01*
X271371Y208706D01*
X268020Y205355D01*
X267971Y205297D01*
X267915Y205245D01*
X267812Y205109D01*
X267701Y204979D01*
X267661Y204913D01*
X267615Y204853D01*
X267534Y204703D01*
X267446Y204556D01*
X267418Y204486D01*
X267382Y204418D01*
X267326Y204257D01*
X267263Y204098D01*
X267247Y204024D01*
X267222Y203952D01*
X267193Y203783D01*
X267156Y203617D01*
X267152Y203540D01*
X267139Y203465D01*
X267138Y203294D01*
X267129Y203124D01*
X267137Y203048D01*
X267136Y202972D01*
X267163Y202803D01*
X267181Y202633D01*
X267201Y202560D01*
X267213Y202485D01*
X267266Y202322D01*
X267312Y202158D01*
X267343Y202088D01*
X267367Y202016D01*
X267446Y201864D01*
X267517Y201709D01*
X267560Y201646D01*
X267595Y201578D01*
X267661Y201496D01*
X267793Y201300D01*
X267955Y201127D01*
X268020Y201045D01*
X271371Y197694D01*
X273305Y193026D01*
X273305Y187974D01*
X271371Y183306D01*
X268020Y179955D01*
X267971Y179897D01*
X267915Y179845D01*
X267812Y179709D01*
X267701Y179579D01*
X267661Y179513D01*
X267615Y179453D01*
X267534Y179303D01*
X267446Y179156D01*
X267418Y179086D01*
X267382Y179018D01*
X267326Y178857D01*
X267263Y178698D01*
X267247Y178624D01*
X267222Y178552D01*
X267193Y178383D01*
X267156Y178217D01*
X267152Y178140D01*
X267139Y178065D01*
X267138Y177894D01*
X267129Y177724D01*
X267137Y177648D01*
X267136Y177572D01*
X267163Y177403D01*
X267181Y177233D01*
X267201Y177160D01*
X267213Y177085D01*
X267266Y176922D01*
X267312Y176758D01*
X267343Y176688D01*
X267367Y176616D01*
X267446Y176464D01*
X267517Y176309D01*
X267560Y176246D01*
X267595Y176178D01*
X267661Y176096D01*
X267793Y175900D01*
X267867Y175821D01*
X267881Y175801D01*
X267960Y175721D01*
X268020Y175645D01*
X271371Y172294D01*
X273305Y167626D01*
X273305Y162574D01*
X271371Y157906D01*
X268020Y154555D01*
X267971Y154497D01*
X267915Y154445D01*
X267812Y154309D01*
X267701Y154179D01*
X267661Y154113D01*
X267615Y154053D01*
X267534Y153903D01*
X267446Y153756D01*
X267418Y153686D01*
X267382Y153618D01*
X267326Y153457D01*
X267263Y153298D01*
X267247Y153224D01*
X267222Y153152D01*
X267193Y152983D01*
X267156Y152817D01*
X267152Y152740D01*
X267139Y152665D01*
X267138Y152494D01*
X267129Y152324D01*
X267137Y152248D01*
X267136Y152172D01*
X267163Y152003D01*
X267181Y151833D01*
X267201Y151760D01*
X267213Y151685D01*
X267266Y151522D01*
X267312Y151358D01*
X267343Y151288D01*
X267367Y151216D01*
X267446Y151064D01*
X267517Y150909D01*
X267560Y150846D01*
X267595Y150778D01*
X267661Y150696D01*
X267793Y150500D01*
X267955Y150327D01*
X268020Y150245D01*
X271371Y146894D01*
X273305Y142226D01*
X273305Y137174D01*
X271371Y132506D01*
X268020Y129155D01*
X267971Y129097D01*
X267915Y129045D01*
X267812Y128909D01*
X267701Y128779D01*
X267661Y128713D01*
X267615Y128653D01*
X267534Y128503D01*
X267446Y128356D01*
X267418Y128286D01*
X267382Y128218D01*
X267326Y128057D01*
X267263Y127898D01*
X267247Y127824D01*
X267222Y127752D01*
X267193Y127583D01*
X267156Y127417D01*
X267152Y127340D01*
X267139Y127265D01*
X267138Y127094D01*
X267129Y126924D01*
X267137Y126848D01*
X267136Y126772D01*
X267163Y126603D01*
X267181Y126433D01*
X267201Y126360D01*
X267213Y126285D01*
X267266Y126122D01*
X267312Y125958D01*
X267343Y125888D01*
X267367Y125816D01*
X267446Y125664D01*
X267517Y125509D01*
X267560Y125446D01*
X267595Y125378D01*
X267661Y125296D01*
X267793Y125100D01*
X267955Y124927D01*
X268020Y124845D01*
X271371Y121494D01*
X273305Y116826D01*
X273305Y111774D01*
X271371Y107106D01*
X267512Y103247D01*
X267488Y103218D01*
X267459Y103192D01*
X267328Y103030D01*
X267193Y102871D01*
X267173Y102838D01*
X267149Y102808D01*
X267046Y102627D01*
X266938Y102448D01*
X266924Y102413D01*
X266905Y102380D01*
X266832Y102184D01*
X266755Y101990D01*
X266747Y101953D01*
X266734Y101917D01*
X266694Y101712D01*
X266648Y101508D01*
X266646Y101470D01*
X266639Y101433D01*
X266632Y101225D01*
X266621Y101016D01*
X266625Y100978D01*
X266624Y100940D01*
X266651Y100733D01*
X266673Y100525D01*
X266683Y100489D01*
X266688Y100451D01*
X266748Y100251D01*
X266804Y100050D01*
X266819Y100015D01*
X266830Y99978D01*
X266922Y99791D01*
X267009Y99601D01*
X267031Y99570D01*
X267047Y99535D01*
X267168Y99365D01*
X267285Y99192D01*
X267311Y99164D01*
X267333Y99133D01*
X267479Y98985D01*
X267622Y98832D01*
X267653Y98809D01*
X267679Y98782D01*
X267848Y98659D01*
X268014Y98532D01*
X268047Y98514D01*
X268078Y98492D01*
X268264Y98398D01*
X268449Y98299D01*
X268485Y98286D01*
X268519Y98269D01*
X268717Y98207D01*
X268915Y98139D01*
X268953Y98133D01*
X268989Y98121D01*
X269082Y98111D01*
X269402Y98056D01*
X269574Y98055D01*
X269667Y98045D01*
X274350Y98045D01*
X274464Y98054D01*
X274578Y98053D01*
X274709Y98074D01*
X274842Y98085D01*
X274952Y98112D01*
X275065Y98130D01*
X275192Y98171D01*
X275320Y98203D01*
X275425Y98248D01*
X275534Y98284D01*
X275652Y98346D01*
X275774Y98398D01*
X275870Y98459D01*
X275971Y98512D01*
X276045Y98571D01*
X276190Y98663D01*
X276432Y98879D01*
X276505Y98937D01*
X294763Y117195D01*
X294837Y117282D01*
X294918Y117363D01*
X294996Y117470D01*
X295082Y117571D01*
X295141Y117669D01*
X295208Y117761D01*
X295268Y117880D01*
X295337Y117994D01*
X295379Y118100D01*
X295431Y118202D01*
X295471Y118329D01*
X295520Y118452D01*
X295545Y118563D01*
X295579Y118672D01*
X295589Y118766D01*
X295627Y118934D01*
X295645Y119258D01*
X295655Y119350D01*
X295655Y230419D01*
X297047Y233780D01*
X309319Y246051D01*
X309319Y246052D01*
X312320Y249053D01*
X315681Y250445D01*
X389717Y250445D01*
X389831Y250454D01*
X389945Y250453D01*
X390076Y250474D01*
X390209Y250485D01*
X390319Y250512D01*
X390432Y250530D01*
X390559Y250571D01*
X390688Y250603D01*
X390792Y250648D01*
X390901Y250684D01*
X391019Y250745D01*
X391141Y250798D01*
X391237Y250859D01*
X391338Y250912D01*
X391412Y250971D01*
X391557Y251063D01*
X391799Y251279D01*
X391872Y251337D01*
X392380Y251845D01*
X392429Y251903D01*
X392485Y251955D01*
X392589Y252091D01*
X392699Y252221D01*
X392738Y252286D01*
X392785Y252347D01*
X392866Y252497D01*
X392954Y252644D01*
X392982Y252714D01*
X393018Y252782D01*
X393074Y252944D01*
X393137Y253102D01*
X393153Y253176D01*
X393178Y253248D01*
X393207Y253417D01*
X393244Y253583D01*
X393248Y253659D01*
X393261Y253735D01*
X393262Y253906D01*
X393271Y254076D01*
X393263Y254152D01*
X393264Y254228D01*
X393237Y254397D01*
X393219Y254567D01*
X393199Y254640D01*
X393187Y254715D01*
X393134Y254878D01*
X393088Y255042D01*
X393057Y255111D01*
X393033Y255184D01*
X392954Y255336D01*
X392883Y255491D01*
X392840Y255554D01*
X392805Y255622D01*
X392739Y255704D01*
X392607Y255900D01*
X392445Y256072D01*
X392380Y256155D01*
X389029Y259506D01*
X387095Y264174D01*
X387095Y269226D01*
X389029Y273894D01*
X392380Y277245D01*
X392429Y277303D01*
X392485Y277355D01*
X392588Y277491D01*
X392699Y277621D01*
X392739Y277687D01*
X392785Y277747D01*
X392866Y277897D01*
X392954Y278044D01*
X392982Y278114D01*
X393018Y278182D01*
X393074Y278343D01*
X393137Y278502D01*
X393153Y278576D01*
X393178Y278648D01*
X393207Y278817D01*
X393244Y278983D01*
X393248Y279060D01*
X393261Y279135D01*
X393262Y279306D01*
X393271Y279476D01*
X393263Y279552D01*
X393264Y279628D01*
X393237Y279797D01*
X393219Y279967D01*
X393199Y280040D01*
X393187Y280115D01*
X393134Y280278D01*
X393088Y280442D01*
X393057Y280512D01*
X393033Y280584D01*
X392954Y280736D01*
X392883Y280891D01*
X392840Y280954D01*
X392805Y281022D01*
X392739Y281104D01*
X392607Y281300D01*
X392445Y281473D01*
X392380Y281555D01*
X389029Y284906D01*
X387095Y289574D01*
X387095Y294626D01*
X389029Y299294D01*
X392380Y302645D01*
X392429Y302703D01*
X392485Y302755D01*
X392588Y302891D01*
X392699Y303021D01*
X392739Y303087D01*
X392785Y303147D01*
X392866Y303297D01*
X392954Y303444D01*
X392982Y303514D01*
X393018Y303582D01*
X393074Y303743D01*
X393137Y303902D01*
X393153Y303976D01*
X393178Y304048D01*
X393207Y304217D01*
X393244Y304383D01*
X393248Y304460D01*
X393261Y304535D01*
X393262Y304706D01*
X393271Y304876D01*
X393263Y304952D01*
X393264Y305028D01*
X393237Y305197D01*
X393219Y305367D01*
X393199Y305440D01*
X393187Y305515D01*
X393134Y305678D01*
X393088Y305842D01*
X393057Y305912D01*
X393033Y305984D01*
X392954Y306136D01*
X392883Y306291D01*
X392840Y306354D01*
X392805Y306422D01*
X392739Y306504D01*
X392607Y306700D01*
X392445Y306873D01*
X392380Y306955D01*
X389029Y310306D01*
X387095Y314974D01*
X387095Y320026D01*
X389029Y324694D01*
X392380Y328045D01*
X392429Y328103D01*
X392485Y328155D01*
X392588Y328291D01*
X392699Y328421D01*
X392739Y328487D01*
X392785Y328547D01*
X392866Y328697D01*
X392954Y328844D01*
X392982Y328914D01*
X393018Y328982D01*
X393074Y329143D01*
X393137Y329302D01*
X393153Y329376D01*
X393178Y329448D01*
X393207Y329617D01*
X393244Y329783D01*
X393248Y329860D01*
X393261Y329935D01*
X393262Y330106D01*
X393271Y330276D01*
X393263Y330352D01*
X393264Y330428D01*
X393237Y330597D01*
X393219Y330767D01*
X393199Y330840D01*
X393187Y330915D01*
X393134Y331078D01*
X393088Y331242D01*
X393057Y331312D01*
X393033Y331384D01*
X392954Y331536D01*
X392883Y331691D01*
X392840Y331754D01*
X392805Y331822D01*
X392739Y331904D01*
X392607Y332100D01*
X392445Y332273D01*
X392380Y332355D01*
X389029Y335706D01*
X387095Y340374D01*
X387095Y345426D01*
X389029Y350094D01*
X392602Y353667D01*
X395193Y354741D01*
X395324Y354807D01*
X395430Y354853D01*
X395446Y354863D01*
X395491Y354884D01*
X395560Y354929D01*
X395632Y354966D01*
X395765Y355064D01*
X395903Y355155D01*
X395964Y355210D01*
X396029Y355259D01*
X396145Y355377D01*
X396266Y355489D01*
X396317Y355553D01*
X396374Y355612D01*
X396469Y355747D01*
X396571Y355877D01*
X396610Y355949D01*
X396657Y356016D01*
X396729Y356165D01*
X396808Y356310D01*
X396835Y356387D01*
X396871Y356460D01*
X396918Y356619D01*
X396973Y356775D01*
X396987Y356855D01*
X397010Y356934D01*
X397031Y357098D01*
X397060Y357260D01*
X397061Y357342D01*
X397072Y357423D01*
X397065Y357588D01*
X397068Y357754D01*
X397056Y357835D01*
X397053Y357916D01*
X397020Y358078D01*
X396996Y358242D01*
X396972Y358320D01*
X396955Y358400D01*
X396897Y358554D01*
X396847Y358712D01*
X396810Y358785D01*
X396781Y358861D01*
X396698Y359004D01*
X396623Y359152D01*
X396575Y359218D01*
X396534Y359288D01*
X396429Y359416D01*
X396332Y359550D01*
X396273Y359607D01*
X396222Y359670D01*
X396098Y359779D01*
X395980Y359895D01*
X395927Y359931D01*
X395852Y359997D01*
X395434Y360259D01*
X395420Y360265D01*
X395411Y360271D01*
X395003Y360479D01*
X393839Y361325D01*
X392821Y362343D01*
X391975Y363507D01*
X391321Y364790D01*
X391171Y365253D01*
X406400Y365253D01*
X421629Y365253D01*
X421479Y364790D01*
X420825Y363507D01*
X419979Y362343D01*
X418961Y361325D01*
X417797Y360479D01*
X417389Y360271D01*
X417248Y360184D01*
X417103Y360105D01*
X417039Y360055D01*
X416969Y360012D01*
X416844Y359904D01*
X416714Y359803D01*
X416659Y359743D01*
X416597Y359689D01*
X416491Y359562D01*
X416378Y359441D01*
X416333Y359373D01*
X416281Y359310D01*
X416197Y359167D01*
X416106Y359030D01*
X416072Y358956D01*
X416031Y358885D01*
X415971Y358731D01*
X415903Y358580D01*
X415882Y358501D01*
X415852Y358425D01*
X415818Y358263D01*
X415775Y358104D01*
X415767Y358023D01*
X415750Y357942D01*
X415742Y357777D01*
X415726Y357613D01*
X415731Y357531D01*
X415727Y357450D01*
X415747Y357285D01*
X415757Y357120D01*
X415775Y357041D01*
X415784Y356960D01*
X415830Y356801D01*
X415867Y356639D01*
X415897Y356564D01*
X415920Y356485D01*
X415990Y356336D01*
X416053Y356182D01*
X416095Y356113D01*
X416130Y356039D01*
X416224Y355903D01*
X416310Y355762D01*
X416363Y355700D01*
X416409Y355632D01*
X416524Y355513D01*
X416632Y355388D01*
X416694Y355335D01*
X416751Y355276D01*
X416883Y355177D01*
X417010Y355071D01*
X417065Y355040D01*
X417145Y354980D01*
X417198Y354952D01*
X417205Y354947D01*
X417283Y354908D01*
X417582Y354751D01*
X417597Y354746D01*
X417607Y354741D01*
X420198Y353667D01*
X420928Y352937D01*
X421015Y352863D01*
X421096Y352782D01*
X421203Y352704D01*
X421304Y352618D01*
X421402Y352559D01*
X421494Y352492D01*
X421613Y352432D01*
X421727Y352363D01*
X421833Y352321D01*
X421935Y352269D01*
X422062Y352229D01*
X422185Y352180D01*
X422296Y352155D01*
X422405Y352121D01*
X422499Y352111D01*
X422667Y352073D01*
X422991Y352055D01*
X423083Y352045D01*
X433619Y352045D01*
X436980Y350653D01*
X485495Y302137D01*
X485582Y302063D01*
X485663Y301982D01*
X485770Y301904D01*
X485871Y301818D01*
X485969Y301759D01*
X486061Y301692D01*
X486180Y301632D01*
X486294Y301563D01*
X486400Y301521D01*
X486502Y301469D01*
X486629Y301429D01*
X486752Y301380D01*
X486863Y301355D01*
X486972Y301321D01*
X487066Y301311D01*
X487234Y301273D01*
X487558Y301255D01*
X487650Y301245D01*
X526964Y301245D01*
X527078Y301254D01*
X527192Y301253D01*
X527324Y301274D01*
X527456Y301285D01*
X527567Y301312D01*
X527679Y301330D01*
X527806Y301371D01*
X527935Y301403D01*
X528040Y301448D01*
X528148Y301484D01*
X528266Y301546D01*
X528388Y301598D01*
X528484Y301659D01*
X528586Y301712D01*
X528659Y301771D01*
X528804Y301863D01*
X529046Y302079D01*
X529119Y302137D01*
X530710Y303728D01*
X535752Y305817D01*
X556448Y305817D01*
X561490Y303728D01*
X565348Y299870D01*
X567437Y294828D01*
X567437Y289372D01*
X565348Y284330D01*
X562573Y281555D01*
X562524Y281497D01*
X562468Y281444D01*
X562364Y281309D01*
X562254Y281179D01*
X562214Y281114D01*
X562168Y281053D01*
X562087Y280903D01*
X561999Y280756D01*
X561971Y280685D01*
X561935Y280618D01*
X561879Y280457D01*
X561816Y280298D01*
X561800Y280224D01*
X561775Y280152D01*
X561746Y279983D01*
X561709Y279816D01*
X561705Y279740D01*
X561692Y279665D01*
X561691Y279494D01*
X561682Y279324D01*
X561690Y279248D01*
X561689Y279172D01*
X561716Y279003D01*
X561734Y278833D01*
X561754Y278760D01*
X561766Y278685D01*
X561819Y278522D01*
X561864Y278358D01*
X561896Y278288D01*
X561920Y278216D01*
X561999Y278065D01*
X562070Y277909D01*
X562113Y277846D01*
X562148Y277778D01*
X562214Y277696D01*
X562346Y277500D01*
X562507Y277328D01*
X562573Y277245D01*
X565349Y274470D01*
X567437Y269428D01*
X567437Y263972D01*
X565348Y258930D01*
X562573Y256155D01*
X562524Y256097D01*
X562468Y256044D01*
X562364Y255909D01*
X562254Y255779D01*
X562214Y255714D01*
X562168Y255653D01*
X562087Y255503D01*
X561999Y255356D01*
X561971Y255285D01*
X561935Y255218D01*
X561879Y255057D01*
X561816Y254898D01*
X561800Y254824D01*
X561775Y254752D01*
X561746Y254583D01*
X561709Y254416D01*
X561705Y254340D01*
X561692Y254265D01*
X561691Y254094D01*
X561682Y253924D01*
X561690Y253848D01*
X561689Y253772D01*
X561716Y253603D01*
X561734Y253433D01*
X561754Y253360D01*
X561766Y253285D01*
X561819Y253122D01*
X561864Y252958D01*
X561896Y252888D01*
X561920Y252816D01*
X561999Y252665D01*
X562070Y252509D01*
X562113Y252446D01*
X562148Y252378D01*
X562214Y252296D01*
X562346Y252100D01*
X562442Y251997D01*
X562453Y251982D01*
X562511Y251923D01*
X562573Y251845D01*
X565349Y249070D01*
X567437Y244028D01*
X567437Y238572D01*
X565348Y233530D01*
X562573Y230755D01*
X562524Y230697D01*
X562468Y230644D01*
X562364Y230509D01*
X562254Y230379D01*
X562214Y230314D01*
X562168Y230253D01*
X562087Y230103D01*
X561999Y229956D01*
X561971Y229885D01*
X561935Y229818D01*
X561879Y229657D01*
X561816Y229498D01*
X561800Y229424D01*
X561775Y229352D01*
X561746Y229183D01*
X561709Y229016D01*
X561705Y228940D01*
X561692Y228865D01*
X561691Y228694D01*
X561682Y228524D01*
X561690Y228448D01*
X561689Y228372D01*
X561716Y228203D01*
X561734Y228033D01*
X561754Y227960D01*
X561766Y227885D01*
X561819Y227722D01*
X561864Y227558D01*
X561896Y227488D01*
X561920Y227416D01*
X561999Y227265D01*
X562070Y227109D01*
X562113Y227046D01*
X562148Y226978D01*
X562214Y226896D01*
X562346Y226700D01*
X562507Y226528D01*
X562573Y226445D01*
X565349Y223670D01*
X567437Y218628D01*
X567437Y213172D01*
X565348Y208130D01*
X562573Y205355D01*
X562524Y205297D01*
X562468Y205244D01*
X562364Y205109D01*
X562254Y204979D01*
X562214Y204914D01*
X562168Y204853D01*
X562087Y204703D01*
X561999Y204556D01*
X561971Y204485D01*
X561935Y204418D01*
X561879Y204257D01*
X561816Y204098D01*
X561800Y204024D01*
X561775Y203952D01*
X561746Y203783D01*
X561709Y203616D01*
X561705Y203540D01*
X561692Y203465D01*
X561691Y203294D01*
X561682Y203124D01*
X561690Y203048D01*
X561689Y202972D01*
X561716Y202803D01*
X561734Y202633D01*
X561754Y202560D01*
X561766Y202485D01*
X561819Y202322D01*
X561864Y202158D01*
X561896Y202088D01*
X561920Y202016D01*
X561999Y201865D01*
X562070Y201709D01*
X562113Y201646D01*
X562148Y201578D01*
X562214Y201496D01*
X562346Y201300D01*
X562507Y201128D01*
X562573Y201045D01*
X565349Y198270D01*
X567437Y193228D01*
X567437Y187772D01*
X565348Y182730D01*
X562573Y179955D01*
X562524Y179897D01*
X562468Y179844D01*
X562364Y179709D01*
X562254Y179579D01*
X562214Y179514D01*
X562168Y179453D01*
X562087Y179303D01*
X561999Y179156D01*
X561971Y179085D01*
X561935Y179018D01*
X561879Y178857D01*
X561816Y178698D01*
X561800Y178624D01*
X561775Y178552D01*
X561746Y178383D01*
X561709Y178216D01*
X561705Y178140D01*
X561692Y178065D01*
X561691Y177894D01*
X561682Y177724D01*
X561690Y177648D01*
X561689Y177572D01*
X561716Y177403D01*
X561734Y177233D01*
X561754Y177160D01*
X561766Y177085D01*
X561819Y176922D01*
X561864Y176758D01*
X561896Y176688D01*
X561920Y176616D01*
X561999Y176465D01*
X562070Y176309D01*
X562113Y176246D01*
X562148Y176178D01*
X562214Y176096D01*
X562346Y175900D01*
X562420Y175821D01*
X562434Y175801D01*
X562512Y175722D01*
X562573Y175645D01*
X565349Y172870D01*
X567437Y167828D01*
X567437Y162372D01*
X565348Y157330D01*
X562573Y154555D01*
X562524Y154497D01*
X562468Y154444D01*
X562364Y154309D01*
X562254Y154179D01*
X562214Y154114D01*
X562168Y154053D01*
X562087Y153903D01*
X561999Y153756D01*
X561971Y153685D01*
X561935Y153618D01*
X561879Y153457D01*
X561816Y153298D01*
X561800Y153224D01*
X561775Y153152D01*
X561746Y152983D01*
X561709Y152816D01*
X561705Y152740D01*
X561692Y152665D01*
X561691Y152494D01*
X561682Y152324D01*
X561690Y152248D01*
X561689Y152172D01*
X561716Y152003D01*
X561734Y151833D01*
X561754Y151760D01*
X561766Y151685D01*
X561819Y151522D01*
X561864Y151358D01*
X561896Y151288D01*
X561920Y151216D01*
X561999Y151065D01*
X562070Y150909D01*
X562113Y150846D01*
X562148Y150778D01*
X562214Y150696D01*
X562346Y150500D01*
X562507Y150328D01*
X562573Y150245D01*
X565349Y147470D01*
X567437Y142428D01*
X567437Y136972D01*
X565348Y131930D01*
X562573Y129155D01*
X562524Y129097D01*
X562468Y129044D01*
X562364Y128909D01*
X562254Y128779D01*
X562214Y128714D01*
X562168Y128653D01*
X562087Y128503D01*
X561999Y128356D01*
X561971Y128285D01*
X561935Y128218D01*
X561879Y128057D01*
X561816Y127898D01*
X561800Y127824D01*
X561775Y127752D01*
X561746Y127583D01*
X561709Y127416D01*
X561705Y127340D01*
X561692Y127265D01*
X561691Y127094D01*
X561682Y126924D01*
X561690Y126848D01*
X561689Y126772D01*
X561716Y126603D01*
X561734Y126433D01*
X561754Y126360D01*
X561766Y126285D01*
X561819Y126122D01*
X561864Y125958D01*
X561896Y125888D01*
X561920Y125816D01*
X561999Y125665D01*
X562070Y125509D01*
X562113Y125446D01*
X562148Y125378D01*
X562214Y125296D01*
X562346Y125100D01*
X562507Y124928D01*
X562573Y124845D01*
X565349Y122070D01*
X567437Y117028D01*
X567437Y111572D01*
X565348Y106530D01*
X561490Y102672D01*
X556448Y100583D01*
X535752Y100583D01*
X530710Y102671D01*
X529119Y104263D01*
X529032Y104337D01*
X528952Y104418D01*
X528844Y104496D01*
X528743Y104582D01*
X528645Y104641D01*
X528553Y104708D01*
X528434Y104768D01*
X528320Y104837D01*
X528214Y104879D01*
X528112Y104931D01*
X527986Y104971D01*
X527862Y105020D01*
X527751Y105045D01*
X527642Y105079D01*
X527548Y105089D01*
X527381Y105127D01*
X527056Y105145D01*
X526964Y105155D01*
X513946Y105155D01*
X513832Y105146D01*
X513718Y105147D01*
X513587Y105126D01*
X513454Y105115D01*
X513343Y105088D01*
X513231Y105070D01*
X513104Y105029D01*
X512975Y104997D01*
X512871Y104952D01*
X512762Y104916D01*
X512644Y104854D01*
X512522Y104802D01*
X512426Y104741D01*
X512324Y104688D01*
X512251Y104629D01*
X512106Y104537D01*
X511864Y104321D01*
X511791Y104263D01*
X509123Y101595D01*
X503615Y99313D01*
X497653Y99313D01*
X492145Y101595D01*
X487929Y105811D01*
X485647Y111319D01*
X485647Y117281D01*
X488075Y123142D01*
X488098Y123215D01*
X488130Y123284D01*
X488174Y123450D01*
X488226Y123612D01*
X488238Y123687D01*
X488257Y123761D01*
X488274Y123931D01*
X488300Y124100D01*
X488299Y124176D01*
X488307Y124252D01*
X488296Y124422D01*
X488294Y124593D01*
X488280Y124668D01*
X488276Y124744D01*
X488238Y124911D01*
X488208Y125079D01*
X488183Y125151D01*
X488166Y125225D01*
X488101Y125383D01*
X488045Y125545D01*
X488009Y125611D01*
X487980Y125682D01*
X487891Y125828D01*
X487809Y125978D01*
X487763Y126038D01*
X487723Y126103D01*
X487611Y126233D01*
X487506Y126367D01*
X487451Y126419D01*
X487401Y126477D01*
X487270Y126587D01*
X487145Y126703D01*
X487081Y126745D01*
X487023Y126794D01*
X486998Y126808D01*
X482647Y131159D01*
X481945Y132854D01*
X481863Y133014D01*
X481787Y133178D01*
X481750Y133234D01*
X481720Y133293D01*
X481613Y133438D01*
X481512Y133588D01*
X481466Y133636D01*
X481427Y133690D01*
X481297Y133816D01*
X481174Y133947D01*
X481121Y133988D01*
X481074Y134034D01*
X480926Y134138D01*
X480783Y134247D01*
X480724Y134279D01*
X480669Y134317D01*
X480507Y134395D01*
X480348Y134481D01*
X480285Y134502D01*
X480225Y134531D01*
X480052Y134582D01*
X479881Y134641D01*
X479815Y134652D01*
X479752Y134670D01*
X479573Y134693D01*
X479395Y134723D01*
X479328Y134724D01*
X479262Y134732D01*
X479082Y134725D01*
X478901Y134726D01*
X478836Y134716D01*
X478769Y134713D01*
X478593Y134678D01*
X478414Y134650D01*
X478351Y134629D01*
X478286Y134616D01*
X478117Y134552D01*
X477946Y134495D01*
X477887Y134465D01*
X477824Y134441D01*
X477668Y134351D01*
X477508Y134267D01*
X477467Y134234D01*
X477397Y134194D01*
X477015Y133882D01*
X476993Y133857D01*
X476975Y133842D01*
X449680Y106547D01*
X446319Y105155D01*
X423083Y105155D01*
X422969Y105146D01*
X422855Y105147D01*
X422724Y105126D01*
X422591Y105115D01*
X422481Y105088D01*
X422368Y105070D01*
X422241Y105029D01*
X422112Y104997D01*
X422008Y104952D01*
X421899Y104916D01*
X421781Y104854D01*
X421659Y104802D01*
X421563Y104741D01*
X421461Y104688D01*
X421388Y104629D01*
X421243Y104537D01*
X421001Y104321D01*
X420928Y104263D01*
X420198Y103533D01*
X415530Y101599D01*
X397270Y101599D01*
X392602Y103533D01*
X389029Y107106D01*
X387095Y111774D01*
X387095Y116826D01*
X389029Y121494D01*
X392380Y124845D01*
X392429Y124903D01*
X392485Y124955D01*
X392588Y125091D01*
X392699Y125221D01*
X392739Y125287D01*
X392785Y125347D01*
X392866Y125497D01*
X392954Y125644D01*
X392982Y125714D01*
X393018Y125782D01*
X393074Y125943D01*
X393137Y126102D01*
X393153Y126176D01*
X393178Y126248D01*
X393207Y126417D01*
X393244Y126583D01*
X393248Y126660D01*
X393261Y126735D01*
X393262Y126906D01*
X393271Y127076D01*
X393263Y127152D01*
X393264Y127228D01*
X393237Y127397D01*
X393219Y127567D01*
X393199Y127640D01*
X393187Y127715D01*
X393134Y127878D01*
X393088Y128042D01*
X393057Y128112D01*
X393033Y128184D01*
X392954Y128336D01*
X392883Y128491D01*
X392840Y128554D01*
X392805Y128622D01*
X392739Y128704D01*
X392607Y128900D01*
X392445Y129073D01*
X392380Y129155D01*
X389029Y132506D01*
X387095Y137174D01*
X387095Y142226D01*
X389029Y146894D01*
X392380Y150245D01*
X392429Y150303D01*
X392485Y150355D01*
X392588Y150491D01*
X392699Y150621D01*
X392739Y150687D01*
X392785Y150747D01*
X392866Y150897D01*
X392954Y151044D01*
X392982Y151114D01*
X393018Y151182D01*
X393074Y151343D01*
X393137Y151502D01*
X393153Y151576D01*
X393178Y151648D01*
X393207Y151817D01*
X393244Y151983D01*
X393248Y152060D01*
X393261Y152135D01*
X393262Y152306D01*
X393271Y152476D01*
X393263Y152552D01*
X393264Y152628D01*
X393237Y152797D01*
X393219Y152967D01*
X393199Y153040D01*
X393187Y153115D01*
X393134Y153278D01*
X393088Y153442D01*
X393057Y153512D01*
X393033Y153584D01*
X392954Y153736D01*
X392883Y153891D01*
X392840Y153954D01*
X392805Y154022D01*
X392739Y154104D01*
X392607Y154300D01*
X392445Y154473D01*
X392380Y154555D01*
X391872Y155063D01*
X391785Y155137D01*
X391704Y155218D01*
X391597Y155296D01*
X391496Y155382D01*
X391398Y155441D01*
X391306Y155508D01*
X391187Y155568D01*
X391073Y155637D01*
X390967Y155679D01*
X390865Y155731D01*
X390738Y155771D01*
X390615Y155820D01*
X390504Y155845D01*
X390395Y155879D01*
X390301Y155889D01*
X390133Y155927D01*
X389809Y155945D01*
X389717Y155955D01*
X360650Y155955D01*
X360536Y155946D01*
X360422Y155947D01*
X360291Y155926D01*
X360158Y155915D01*
X360048Y155888D01*
X359935Y155870D01*
X359808Y155829D01*
X359680Y155797D01*
X359575Y155752D01*
X359466Y155716D01*
X359348Y155654D01*
X359226Y155602D01*
X359130Y155541D01*
X359029Y155488D01*
X358955Y155429D01*
X358810Y155337D01*
X358568Y155121D01*
X358495Y155063D01*
X351413Y147981D01*
X351339Y147894D01*
X351258Y147813D01*
X351180Y147706D01*
X351094Y147605D01*
X351035Y147507D01*
X350968Y147415D01*
X350908Y147296D01*
X350839Y147182D01*
X350797Y147076D01*
X350745Y146974D01*
X350705Y146847D01*
X350656Y146724D01*
X350631Y146613D01*
X350597Y146504D01*
X350587Y146410D01*
X350549Y146242D01*
X350531Y145918D01*
X350521Y145826D01*
X350521Y97331D01*
X349129Y93970D01*
X299222Y44063D01*
X295861Y42671D01*
X76981Y42671D01*
X73620Y44063D01*
X70472Y47211D01*
X70327Y47334D01*
X70187Y47463D01*
X70139Y47494D01*
X70096Y47531D01*
X69933Y47629D01*
X69774Y47733D01*
X69722Y47756D01*
X69673Y47785D01*
X69497Y47856D01*
X69323Y47933D01*
X69268Y47947D01*
X69215Y47968D01*
X69030Y48009D01*
X68846Y48058D01*
X68789Y48063D01*
X68734Y48075D01*
X68544Y48086D01*
X68355Y48104D01*
X68298Y48100D01*
X68241Y48103D01*
X68052Y48083D01*
X67863Y48070D01*
X67807Y48057D01*
X67750Y48051D01*
X67567Y48000D01*
X67382Y47957D01*
X67330Y47935D01*
X67275Y47920D01*
X67102Y47841D01*
X66927Y47768D01*
X66878Y47738D01*
X66826Y47714D01*
X66669Y47608D01*
X66507Y47508D01*
X66464Y47471D01*
X66417Y47439D01*
X66279Y47309D01*
X66135Y47184D01*
X66099Y47140D01*
X66057Y47101D01*
X65942Y46951D01*
X65821Y46804D01*
X65792Y46755D01*
X65757Y46710D01*
X65668Y46543D01*
X65571Y46378D01*
X65551Y46325D01*
X65524Y46275D01*
X65462Y46095D01*
X65394Y45918D01*
X65383Y45862D01*
X65364Y45808D01*
X65332Y45621D01*
X65293Y45435D01*
X65291Y45378D01*
X65281Y45322D01*
X65280Y45132D01*
X65272Y44942D01*
X65279Y44897D01*
X65278Y44829D01*
X65355Y44341D01*
X65369Y44298D01*
X65374Y44268D01*
X66041Y41778D01*
X66041Y34421D01*
X64137Y27315D01*
X60458Y20944D01*
X55203Y15689D01*
X55122Y15637D01*
X55079Y15599D01*
X55032Y15567D01*
X54895Y15435D01*
X54754Y15308D01*
X54718Y15264D01*
X54677Y15225D01*
X54563Y15072D01*
X54444Y14924D01*
X54416Y14875D01*
X54382Y14830D01*
X54294Y14661D01*
X54200Y14496D01*
X54180Y14442D01*
X54154Y14392D01*
X54094Y14212D01*
X54028Y14033D01*
X54017Y13977D01*
X54000Y13923D01*
X53970Y13735D01*
X53934Y13549D01*
X53932Y13492D01*
X53923Y13436D01*
X53924Y13245D01*
X53918Y13056D01*
X53926Y13000D01*
X53926Y12943D01*
X53958Y12755D01*
X53983Y12567D01*
X53999Y12512D01*
X54009Y12456D01*
X54070Y12276D01*
X54125Y12094D01*
X54150Y12043D01*
X54169Y11990D01*
X54259Y11822D01*
X54342Y11651D01*
X54375Y11605D01*
X54402Y11555D01*
X54517Y11404D01*
X54628Y11249D01*
X54667Y11209D01*
X54702Y11163D01*
X54841Y11033D01*
X54974Y10898D01*
X55020Y10865D01*
X55062Y10826D01*
X55220Y10719D01*
X55373Y10608D01*
X55424Y10582D01*
X55471Y10550D01*
X55644Y10471D01*
X55813Y10385D01*
X55868Y10368D01*
X55919Y10345D01*
X56102Y10294D01*
X56284Y10237D01*
X56329Y10232D01*
X56395Y10214D01*
X56886Y10162D01*
X56931Y10164D01*
X56962Y10161D01*
X590738Y10161D01*
X590928Y10176D01*
G37*
%LPC*%
G36*
X254000Y320547D02*
X254000Y320547D01*
X238771Y320547D01*
X238921Y321010D01*
X239575Y322293D01*
X240421Y323457D01*
X241439Y324475D01*
X242603Y325321D01*
X243011Y325529D01*
X243152Y325616D01*
X243297Y325695D01*
X243361Y325745D01*
X243431Y325788D01*
X243556Y325896D01*
X243686Y325997D01*
X243741Y326057D01*
X243803Y326111D01*
X243909Y326238D01*
X244022Y326359D01*
X244067Y326427D01*
X244119Y326490D01*
X244203Y326633D01*
X244294Y326770D01*
X244328Y326844D01*
X244369Y326915D01*
X244429Y327069D01*
X244497Y327220D01*
X244518Y327299D01*
X244548Y327375D01*
X244582Y327537D01*
X244625Y327696D01*
X244633Y327777D01*
X244650Y327858D01*
X244658Y328023D01*
X244674Y328187D01*
X244669Y328269D01*
X244673Y328350D01*
X244653Y328515D01*
X244643Y328680D01*
X244625Y328759D01*
X244616Y328840D01*
X244570Y328999D01*
X244533Y329161D01*
X244503Y329236D01*
X244480Y329315D01*
X244410Y329464D01*
X244347Y329618D01*
X244305Y329687D01*
X244270Y329761D01*
X244176Y329897D01*
X244090Y330038D01*
X244037Y330100D01*
X243991Y330168D01*
X243876Y330287D01*
X243768Y330412D01*
X243706Y330465D01*
X243649Y330524D01*
X243517Y330623D01*
X243390Y330729D01*
X243335Y330760D01*
X243255Y330820D01*
X242818Y331049D01*
X242803Y331054D01*
X242793Y331059D01*
X240202Y332133D01*
X236629Y335706D01*
X234695Y340374D01*
X234695Y345426D01*
X236629Y350094D01*
X239980Y353445D01*
X240029Y353503D01*
X240085Y353556D01*
X240189Y353691D01*
X240299Y353821D01*
X240339Y353886D01*
X240385Y353947D01*
X240466Y354097D01*
X240554Y354244D01*
X240582Y354315D01*
X240618Y354382D01*
X240674Y354543D01*
X240737Y354702D01*
X240753Y354776D01*
X240778Y354848D01*
X240807Y355017D01*
X240844Y355184D01*
X240848Y355260D01*
X240861Y355335D01*
X240862Y355506D01*
X240871Y355676D01*
X240863Y355752D01*
X240864Y355828D01*
X240837Y355997D01*
X240819Y356167D01*
X240799Y356240D01*
X240787Y356315D01*
X240734Y356478D01*
X240688Y356642D01*
X240657Y356712D01*
X240633Y356784D01*
X240554Y356935D01*
X240483Y357091D01*
X240440Y357154D01*
X240405Y357222D01*
X240339Y357304D01*
X240207Y357500D01*
X240045Y357672D01*
X239980Y357755D01*
X236629Y361106D01*
X234695Y365774D01*
X234695Y370826D01*
X236629Y375494D01*
X239980Y378845D01*
X240029Y378903D01*
X240085Y378956D01*
X240189Y379091D01*
X240299Y379221D01*
X240339Y379286D01*
X240385Y379347D01*
X240466Y379497D01*
X240554Y379644D01*
X240582Y379715D01*
X240618Y379782D01*
X240674Y379943D01*
X240737Y380102D01*
X240753Y380176D01*
X240778Y380248D01*
X240807Y380417D01*
X240844Y380584D01*
X240848Y380660D01*
X240861Y380735D01*
X240862Y380906D01*
X240871Y381076D01*
X240863Y381152D01*
X240864Y381228D01*
X240837Y381397D01*
X240819Y381567D01*
X240799Y381640D01*
X240787Y381715D01*
X240734Y381878D01*
X240688Y382042D01*
X240657Y382112D01*
X240633Y382184D01*
X240554Y382335D01*
X240483Y382491D01*
X240440Y382554D01*
X240405Y382622D01*
X240339Y382704D01*
X240207Y382900D01*
X240045Y383072D01*
X239980Y383155D01*
X236629Y386506D01*
X234695Y391174D01*
X234695Y396226D01*
X236629Y400894D01*
X239980Y404245D01*
X240029Y404303D01*
X240085Y404356D01*
X240189Y404491D01*
X240299Y404621D01*
X240339Y404686D01*
X240385Y404747D01*
X240466Y404897D01*
X240554Y405044D01*
X240582Y405115D01*
X240618Y405182D01*
X240674Y405343D01*
X240737Y405502D01*
X240753Y405576D01*
X240778Y405648D01*
X240807Y405817D01*
X240844Y405984D01*
X240848Y406060D01*
X240861Y406135D01*
X240862Y406306D01*
X240871Y406476D01*
X240863Y406552D01*
X240864Y406628D01*
X240837Y406797D01*
X240819Y406967D01*
X240799Y407040D01*
X240787Y407115D01*
X240734Y407278D01*
X240688Y407442D01*
X240657Y407512D01*
X240633Y407584D01*
X240554Y407735D01*
X240483Y407891D01*
X240440Y407954D01*
X240405Y408022D01*
X240339Y408104D01*
X240207Y408300D01*
X240045Y408472D01*
X239980Y408555D01*
X236629Y411906D01*
X234695Y416574D01*
X234695Y421626D01*
X236629Y426294D01*
X239980Y429645D01*
X240029Y429703D01*
X240085Y429756D01*
X240189Y429891D01*
X240299Y430021D01*
X240339Y430087D01*
X240385Y430147D01*
X240465Y430297D01*
X240554Y430444D01*
X240582Y430515D01*
X240618Y430582D01*
X240674Y430743D01*
X240737Y430902D01*
X240753Y430976D01*
X240778Y431048D01*
X240807Y431217D01*
X240844Y431384D01*
X240848Y431460D01*
X240861Y431535D01*
X240862Y431706D01*
X240871Y431876D01*
X240863Y431952D01*
X240864Y432028D01*
X240837Y432197D01*
X240819Y432367D01*
X240799Y432440D01*
X240787Y432515D01*
X240734Y432678D01*
X240688Y432842D01*
X240657Y432912D01*
X240633Y432984D01*
X240554Y433135D01*
X240483Y433291D01*
X240440Y433354D01*
X240405Y433422D01*
X240339Y433504D01*
X240207Y433700D01*
X240045Y433872D01*
X239980Y433955D01*
X239472Y434463D01*
X239385Y434537D01*
X239304Y434618D01*
X239197Y434696D01*
X239096Y434782D01*
X238998Y434841D01*
X238906Y434908D01*
X238787Y434968D01*
X238673Y435037D01*
X238567Y435079D01*
X238465Y435131D01*
X238338Y435171D01*
X238215Y435220D01*
X238104Y435245D01*
X237995Y435279D01*
X237901Y435289D01*
X237734Y435327D01*
X237409Y435345D01*
X237317Y435355D01*
X196936Y435355D01*
X196822Y435346D01*
X196708Y435347D01*
X196576Y435326D01*
X196444Y435315D01*
X196333Y435288D01*
X196221Y435270D01*
X196094Y435229D01*
X195965Y435197D01*
X195860Y435152D01*
X195752Y435116D01*
X195634Y435054D01*
X195512Y435002D01*
X195416Y434941D01*
X195314Y434888D01*
X195241Y434829D01*
X195096Y434737D01*
X194854Y434521D01*
X194781Y434463D01*
X193190Y432872D01*
X188148Y430783D01*
X167452Y430783D01*
X162410Y432872D01*
X158552Y436730D01*
X156463Y441772D01*
X156463Y447228D01*
X158552Y452270D01*
X161327Y455045D01*
X161376Y455103D01*
X161432Y455156D01*
X161536Y455291D01*
X161646Y455421D01*
X161686Y455486D01*
X161732Y455547D01*
X161813Y455697D01*
X161901Y455844D01*
X161929Y455915D01*
X161965Y455982D01*
X162021Y456143D01*
X162084Y456302D01*
X162100Y456376D01*
X162125Y456448D01*
X162154Y456617D01*
X162191Y456784D01*
X162195Y456860D01*
X162208Y456935D01*
X162209Y457106D01*
X162218Y457276D01*
X162210Y457352D01*
X162211Y457428D01*
X162184Y457597D01*
X162166Y457767D01*
X162146Y457840D01*
X162134Y457915D01*
X162081Y458078D01*
X162036Y458242D01*
X162004Y458312D01*
X161980Y458384D01*
X161901Y458535D01*
X161830Y458691D01*
X161787Y458754D01*
X161752Y458822D01*
X161686Y458904D01*
X161554Y459100D01*
X161393Y459272D01*
X161327Y459355D01*
X158551Y462130D01*
X156463Y467172D01*
X156463Y472628D01*
X158552Y477670D01*
X161327Y480445D01*
X161376Y480503D01*
X161432Y480556D01*
X161536Y480691D01*
X161646Y480821D01*
X161686Y480886D01*
X161732Y480947D01*
X161813Y481097D01*
X161901Y481244D01*
X161929Y481315D01*
X161965Y481382D01*
X162021Y481543D01*
X162084Y481702D01*
X162100Y481776D01*
X162125Y481848D01*
X162154Y482017D01*
X162191Y482184D01*
X162195Y482260D01*
X162208Y482335D01*
X162209Y482506D01*
X162218Y482676D01*
X162210Y482752D01*
X162211Y482828D01*
X162184Y482997D01*
X162166Y483167D01*
X162146Y483240D01*
X162134Y483315D01*
X162081Y483478D01*
X162036Y483642D01*
X162004Y483712D01*
X161980Y483784D01*
X161901Y483935D01*
X161830Y484091D01*
X161787Y484154D01*
X161752Y484222D01*
X161686Y484304D01*
X161554Y484500D01*
X161393Y484672D01*
X161327Y484755D01*
X158551Y487530D01*
X156463Y492572D01*
X156463Y498028D01*
X158552Y503070D01*
X161327Y505845D01*
X161376Y505903D01*
X161432Y505956D01*
X161536Y506091D01*
X161646Y506221D01*
X161686Y506286D01*
X161732Y506347D01*
X161813Y506497D01*
X161901Y506644D01*
X161929Y506715D01*
X161965Y506782D01*
X162021Y506943D01*
X162084Y507102D01*
X162100Y507176D01*
X162125Y507248D01*
X162154Y507417D01*
X162191Y507584D01*
X162195Y507660D01*
X162208Y507735D01*
X162209Y507906D01*
X162218Y508076D01*
X162210Y508152D01*
X162211Y508228D01*
X162184Y508397D01*
X162166Y508567D01*
X162146Y508640D01*
X162134Y508715D01*
X162081Y508878D01*
X162036Y509042D01*
X162004Y509112D01*
X161980Y509184D01*
X161901Y509335D01*
X161830Y509491D01*
X161787Y509554D01*
X161752Y509622D01*
X161686Y509704D01*
X161554Y509900D01*
X161393Y510072D01*
X161327Y510155D01*
X158551Y512930D01*
X156463Y517972D01*
X156463Y523428D01*
X158552Y528470D01*
X161327Y531245D01*
X161376Y531303D01*
X161432Y531356D01*
X161536Y531491D01*
X161646Y531621D01*
X161686Y531686D01*
X161732Y531747D01*
X161813Y531897D01*
X161901Y532044D01*
X161929Y532115D01*
X161965Y532182D01*
X162021Y532343D01*
X162084Y532502D01*
X162100Y532576D01*
X162125Y532648D01*
X162154Y532817D01*
X162191Y532984D01*
X162195Y533060D01*
X162208Y533135D01*
X162209Y533306D01*
X162218Y533476D01*
X162210Y533552D01*
X162211Y533628D01*
X162184Y533797D01*
X162166Y533967D01*
X162146Y534040D01*
X162134Y534115D01*
X162081Y534278D01*
X162036Y534442D01*
X162004Y534512D01*
X161980Y534584D01*
X161901Y534735D01*
X161830Y534891D01*
X161787Y534954D01*
X161752Y535022D01*
X161686Y535104D01*
X161554Y535300D01*
X161393Y535472D01*
X161327Y535555D01*
X158551Y538330D01*
X156463Y543372D01*
X156463Y548828D01*
X158552Y553870D01*
X161327Y556645D01*
X161376Y556703D01*
X161432Y556756D01*
X161536Y556891D01*
X161646Y557021D01*
X161686Y557086D01*
X161732Y557147D01*
X161813Y557297D01*
X161901Y557444D01*
X161929Y557515D01*
X161965Y557582D01*
X162021Y557743D01*
X162084Y557902D01*
X162100Y557976D01*
X162125Y558048D01*
X162154Y558217D01*
X162191Y558384D01*
X162195Y558460D01*
X162208Y558535D01*
X162209Y558706D01*
X162218Y558876D01*
X162210Y558952D01*
X162211Y559028D01*
X162184Y559197D01*
X162166Y559367D01*
X162146Y559440D01*
X162134Y559515D01*
X162081Y559678D01*
X162036Y559842D01*
X162004Y559912D01*
X161980Y559984D01*
X161901Y560135D01*
X161830Y560291D01*
X161787Y560354D01*
X161752Y560422D01*
X161686Y560504D01*
X161554Y560700D01*
X161393Y560872D01*
X161327Y560955D01*
X158551Y563730D01*
X156463Y568772D01*
X156463Y574228D01*
X158552Y579270D01*
X162712Y583430D01*
X162829Y583568D01*
X162952Y583700D01*
X162988Y583756D01*
X163031Y583806D01*
X163125Y583961D01*
X163224Y584111D01*
X163252Y584172D01*
X163286Y584229D01*
X163353Y584396D01*
X163427Y584561D01*
X163445Y584625D01*
X163469Y584687D01*
X163508Y584863D01*
X163555Y585038D01*
X163562Y585104D01*
X163576Y585169D01*
X163586Y585349D01*
X163604Y585528D01*
X163600Y585595D01*
X163604Y585661D01*
X163584Y585841D01*
X163573Y586021D01*
X163558Y586086D01*
X163551Y586152D01*
X163504Y586326D01*
X163463Y586502D01*
X163438Y586563D01*
X163421Y586628D01*
X163345Y586792D01*
X163277Y586959D01*
X163243Y587015D01*
X163215Y587076D01*
X163114Y587226D01*
X163020Y587380D01*
X162977Y587430D01*
X162940Y587485D01*
X162816Y587617D01*
X162698Y587754D01*
X162647Y587796D01*
X162602Y587845D01*
X162459Y587955D01*
X162320Y588071D01*
X162274Y588096D01*
X162210Y588145D01*
X161776Y588378D01*
X161744Y588389D01*
X161723Y588400D01*
X159920Y589148D01*
X93847Y655220D01*
X92455Y658581D01*
X92455Y666664D01*
X92446Y666778D01*
X92447Y666892D01*
X92426Y667024D01*
X92415Y667156D01*
X92388Y667267D01*
X92370Y667380D01*
X92329Y667506D01*
X92297Y667635D01*
X92252Y667740D01*
X92216Y667848D01*
X92154Y667966D01*
X92102Y668088D01*
X92041Y668184D01*
X91988Y668286D01*
X91929Y668359D01*
X91837Y668504D01*
X91621Y668746D01*
X91563Y668819D01*
X90547Y669835D01*
X90518Y669859D01*
X90492Y669888D01*
X90330Y670019D01*
X90171Y670154D01*
X90138Y670174D01*
X90108Y670198D01*
X89928Y670301D01*
X89748Y670409D01*
X89713Y670423D01*
X89680Y670442D01*
X89484Y670515D01*
X89290Y670592D01*
X89253Y670600D01*
X89217Y670614D01*
X89012Y670654D01*
X88808Y670699D01*
X88770Y670701D01*
X88733Y670708D01*
X88525Y670715D01*
X88316Y670726D01*
X88278Y670722D01*
X88240Y670724D01*
X88033Y670696D01*
X87825Y670674D01*
X87789Y670664D01*
X87751Y670659D01*
X87551Y670599D01*
X87350Y670544D01*
X87315Y670528D01*
X87278Y670517D01*
X87091Y670425D01*
X86901Y670338D01*
X86869Y670317D01*
X86835Y670300D01*
X86665Y670179D01*
X86492Y670062D01*
X86464Y670036D01*
X86433Y670014D01*
X86284Y669868D01*
X86132Y669725D01*
X86109Y669694D01*
X86082Y669668D01*
X85959Y669499D01*
X85832Y669333D01*
X85814Y669300D01*
X85792Y669269D01*
X85698Y669083D01*
X85599Y668899D01*
X85587Y668862D01*
X85569Y668828D01*
X85507Y668629D01*
X85439Y668432D01*
X85433Y668394D01*
X85421Y668358D01*
X85411Y668266D01*
X85356Y667945D01*
X85355Y667773D01*
X85345Y667680D01*
X85345Y652750D01*
X85354Y652636D01*
X85353Y652522D01*
X85374Y652391D01*
X85385Y652258D01*
X85412Y652148D01*
X85430Y652035D01*
X85471Y651908D01*
X85503Y651780D01*
X85548Y651675D01*
X85584Y651566D01*
X85646Y651448D01*
X85698Y651326D01*
X85759Y651230D01*
X85812Y651129D01*
X85871Y651055D01*
X85963Y650910D01*
X86179Y650668D01*
X86237Y650595D01*
X122053Y614780D01*
X123445Y611419D01*
X123445Y606979D01*
X123454Y606865D01*
X123453Y606751D01*
X123474Y606620D01*
X123485Y606487D01*
X123512Y606377D01*
X123530Y606264D01*
X123571Y606137D01*
X123603Y606008D01*
X123648Y605904D01*
X123684Y605795D01*
X123746Y605677D01*
X123798Y605555D01*
X123859Y605459D01*
X123912Y605357D01*
X123971Y605284D01*
X124063Y605139D01*
X124279Y604897D01*
X124337Y604824D01*
X127001Y602161D01*
X127001Y591639D01*
X119561Y584199D01*
X109039Y584199D01*
X101240Y591998D01*
X101182Y592048D01*
X101130Y592103D01*
X100995Y592207D01*
X100864Y592318D01*
X100799Y592357D01*
X100739Y592403D01*
X100588Y592484D01*
X100442Y592572D01*
X100371Y592601D01*
X100304Y592637D01*
X100142Y592692D01*
X99984Y592755D01*
X99909Y592772D01*
X99837Y592797D01*
X99669Y592825D01*
X99502Y592862D01*
X99426Y592866D01*
X99351Y592879D01*
X99180Y592880D01*
X99009Y592890D01*
X98934Y592882D01*
X98858Y592882D01*
X98689Y592856D01*
X98519Y592838D01*
X98446Y592817D01*
X98370Y592806D01*
X98208Y592752D01*
X98043Y592707D01*
X97974Y592675D01*
X97902Y592651D01*
X97750Y592572D01*
X97595Y592501D01*
X97532Y592459D01*
X97464Y592423D01*
X97382Y592358D01*
X97185Y592226D01*
X97013Y592064D01*
X96931Y591998D01*
X92688Y587755D01*
X91947Y587755D01*
X91947Y596900D01*
X91947Y606045D01*
X92688Y606045D01*
X96931Y601802D01*
X96989Y601753D01*
X97041Y601697D01*
X97177Y601593D01*
X97307Y601482D01*
X97372Y601443D01*
X97432Y601397D01*
X97583Y601316D01*
X97729Y601228D01*
X97800Y601199D01*
X97867Y601163D01*
X98029Y601108D01*
X98187Y601045D01*
X98262Y601028D01*
X98334Y601003D01*
X98502Y600975D01*
X98669Y600938D01*
X98745Y600934D01*
X98820Y600921D01*
X98991Y600920D01*
X99162Y600910D01*
X99237Y600918D01*
X99314Y600918D01*
X99483Y600944D01*
X99652Y600962D01*
X99726Y600983D01*
X99801Y600994D01*
X99963Y601048D01*
X100128Y601093D01*
X100197Y601125D01*
X100270Y601149D01*
X100421Y601228D01*
X100576Y601299D01*
X100640Y601341D01*
X100707Y601377D01*
X100789Y601442D01*
X100986Y601574D01*
X101158Y601736D01*
X101240Y601802D01*
X103048Y603610D01*
X103098Y603668D01*
X103153Y603720D01*
X103257Y603855D01*
X103368Y603986D01*
X103407Y604051D01*
X103453Y604111D01*
X103534Y604262D01*
X103622Y604408D01*
X103651Y604479D01*
X103687Y604546D01*
X103742Y604708D01*
X103805Y604866D01*
X103822Y604941D01*
X103847Y605013D01*
X103875Y605181D01*
X103912Y605348D01*
X103916Y605424D01*
X103929Y605499D01*
X103930Y605670D01*
X103940Y605841D01*
X103932Y605916D01*
X103932Y605992D01*
X103906Y606161D01*
X103888Y606331D01*
X103867Y606405D01*
X103856Y606480D01*
X103802Y606642D01*
X103757Y606807D01*
X103725Y606876D01*
X103701Y606948D01*
X103622Y607100D01*
X103551Y607255D01*
X103509Y607318D01*
X103473Y607386D01*
X103408Y607468D01*
X103276Y607665D01*
X103114Y607837D01*
X103048Y607919D01*
X68447Y642520D01*
X67055Y645881D01*
X67055Y751119D01*
X68447Y754480D01*
X106119Y792151D01*
X106119Y792152D01*
X109120Y795153D01*
X112481Y796545D01*
X338369Y796545D01*
X341730Y795153D01*
X363353Y773530D01*
X364745Y770169D01*
X364745Y759379D01*
X364754Y759265D01*
X364753Y759151D01*
X364774Y759020D01*
X364785Y758887D01*
X364812Y758777D01*
X364830Y758664D01*
X364871Y758537D01*
X364903Y758408D01*
X364948Y758304D01*
X364984Y758195D01*
X365046Y758077D01*
X365098Y757955D01*
X365159Y757859D01*
X365212Y757757D01*
X365271Y757684D01*
X365363Y757539D01*
X365579Y757297D01*
X365637Y757224D01*
X368301Y754561D01*
X368301Y744039D01*
X362508Y738247D01*
X362484Y738218D01*
X362455Y738192D01*
X362324Y738030D01*
X362189Y737871D01*
X362169Y737838D01*
X362145Y737808D01*
X362042Y737627D01*
X361934Y737448D01*
X361920Y737413D01*
X361901Y737380D01*
X361828Y737184D01*
X361751Y736990D01*
X361743Y736953D01*
X361730Y736917D01*
X361690Y736712D01*
X361644Y736508D01*
X361642Y736470D01*
X361635Y736433D01*
X361628Y736225D01*
X361617Y736016D01*
X361621Y735978D01*
X361620Y735940D01*
X361647Y735733D01*
X361669Y735525D01*
X361679Y735489D01*
X361684Y735451D01*
X361744Y735251D01*
X361800Y735050D01*
X361815Y735015D01*
X361826Y734978D01*
X361918Y734791D01*
X362005Y734601D01*
X362027Y734569D01*
X362043Y734535D01*
X362164Y734366D01*
X362281Y734192D01*
X362307Y734164D01*
X362329Y734133D01*
X362475Y733985D01*
X362618Y733832D01*
X362649Y733809D01*
X362675Y733782D01*
X362844Y733659D01*
X363010Y733532D01*
X363043Y733514D01*
X363074Y733492D01*
X363260Y733398D01*
X363445Y733299D01*
X363481Y733286D01*
X363515Y733269D01*
X363713Y733207D01*
X363911Y733139D01*
X363949Y733133D01*
X363985Y733121D01*
X364078Y733111D01*
X364398Y733056D01*
X364570Y733055D01*
X364663Y733045D01*
X426750Y733045D01*
X426864Y733054D01*
X426978Y733053D01*
X427109Y733074D01*
X427242Y733085D01*
X427352Y733112D01*
X427465Y733130D01*
X427592Y733171D01*
X427720Y733203D01*
X427825Y733248D01*
X427934Y733284D01*
X428052Y733346D01*
X428174Y733398D01*
X428270Y733459D01*
X428371Y733512D01*
X428445Y733571D01*
X428590Y733663D01*
X428832Y733879D01*
X428905Y733937D01*
X443607Y748639D01*
X443681Y748726D01*
X443762Y748807D01*
X443840Y748914D01*
X443926Y749015D01*
X443985Y749113D01*
X444052Y749205D01*
X444112Y749324D01*
X444181Y749438D01*
X444223Y749544D01*
X444275Y749646D01*
X444315Y749773D01*
X444364Y749896D01*
X444389Y750007D01*
X444423Y750116D01*
X444433Y750210D01*
X444471Y750378D01*
X444489Y750702D01*
X444499Y750794D01*
X444499Y754561D01*
X451939Y762001D01*
X462461Y762001D01*
X465124Y759337D01*
X465211Y759263D01*
X465292Y759182D01*
X465399Y759104D01*
X465500Y759018D01*
X465598Y758959D01*
X465690Y758892D01*
X465809Y758832D01*
X465923Y758763D01*
X466029Y758721D01*
X466131Y758669D01*
X466258Y758629D01*
X466381Y758580D01*
X466492Y758555D01*
X466601Y758521D01*
X466695Y758511D01*
X466863Y758473D01*
X467187Y758455D01*
X467279Y758445D01*
X484419Y758445D01*
X487780Y757053D01*
X528453Y716380D01*
X529845Y713019D01*
X529845Y692236D01*
X529854Y692122D01*
X529853Y692008D01*
X529874Y691876D01*
X529885Y691744D01*
X529912Y691633D01*
X529930Y691520D01*
X529971Y691394D01*
X530003Y691265D01*
X530048Y691160D01*
X530084Y691052D01*
X530146Y690934D01*
X530198Y690812D01*
X530259Y690716D01*
X530312Y690614D01*
X530371Y690541D01*
X530463Y690396D01*
X530679Y690154D01*
X530737Y690081D01*
X532329Y688490D01*
X534417Y683448D01*
X534417Y662752D01*
X534277Y662415D01*
X534210Y662207D01*
X534140Y662001D01*
X534135Y661973D01*
X534126Y661946D01*
X534094Y661730D01*
X534057Y661515D01*
X534057Y661486D01*
X534053Y661458D01*
X534055Y661239D01*
X534054Y661021D01*
X534058Y660993D01*
X534059Y660965D01*
X534097Y660750D01*
X534131Y660534D01*
X534140Y660507D01*
X534144Y660479D01*
X534217Y660273D01*
X534285Y660065D01*
X534298Y660040D01*
X534307Y660013D01*
X534412Y659822D01*
X534513Y659628D01*
X534527Y659609D01*
X534543Y659580D01*
X534846Y659191D01*
X534905Y659136D01*
X534938Y659095D01*
X582553Y611479D01*
X582582Y611455D01*
X582608Y611426D01*
X582770Y611295D01*
X582929Y611160D01*
X582962Y611140D01*
X582992Y611116D01*
X583172Y611013D01*
X583352Y610905D01*
X583387Y610891D01*
X583420Y610872D01*
X583616Y610800D01*
X583810Y610722D01*
X583847Y610714D01*
X583883Y610701D01*
X584088Y610661D01*
X584292Y610615D01*
X584330Y610613D01*
X584367Y610606D01*
X584575Y610599D01*
X584784Y610588D01*
X584822Y610592D01*
X584860Y610591D01*
X585067Y610618D01*
X585275Y610640D01*
X585311Y610650D01*
X585349Y610655D01*
X585549Y610715D01*
X585750Y610771D01*
X585785Y610786D01*
X585822Y610797D01*
X586009Y610889D01*
X586199Y610976D01*
X586231Y610998D01*
X586265Y611014D01*
X586435Y611135D01*
X586608Y611252D01*
X586636Y611278D01*
X586667Y611300D01*
X586816Y611447D01*
X586968Y611590D01*
X586991Y611620D01*
X587018Y611647D01*
X587141Y611815D01*
X587268Y611981D01*
X587286Y612014D01*
X587308Y612045D01*
X587402Y612232D01*
X587501Y612416D01*
X587513Y612452D01*
X587531Y612486D01*
X587593Y612685D01*
X587661Y612882D01*
X587667Y612920D01*
X587679Y612956D01*
X587689Y613049D01*
X587744Y613369D01*
X587745Y613541D01*
X587755Y613634D01*
X587755Y617250D01*
X587746Y617364D01*
X587747Y617478D01*
X587726Y617609D01*
X587715Y617742D01*
X587688Y617852D01*
X587670Y617965D01*
X587629Y618092D01*
X587597Y618220D01*
X587552Y618325D01*
X587516Y618434D01*
X587454Y618552D01*
X587402Y618674D01*
X587341Y618770D01*
X587288Y618871D01*
X587229Y618945D01*
X587137Y619090D01*
X586921Y619332D01*
X586863Y619405D01*
X551047Y655220D01*
X549655Y658581D01*
X549655Y718850D01*
X549646Y718964D01*
X549647Y719078D01*
X549626Y719209D01*
X549615Y719342D01*
X549588Y719452D01*
X549570Y719565D01*
X549529Y719691D01*
X549497Y719820D01*
X549452Y719925D01*
X549416Y720034D01*
X549354Y720152D01*
X549302Y720274D01*
X549241Y720370D01*
X549188Y720471D01*
X549129Y720545D01*
X549037Y720690D01*
X548821Y720932D01*
X548763Y721005D01*
X534061Y735707D01*
X533974Y735781D01*
X533893Y735862D01*
X533786Y735940D01*
X533685Y736026D01*
X533587Y736085D01*
X533495Y736152D01*
X533376Y736212D01*
X533262Y736281D01*
X533156Y736323D01*
X533054Y736375D01*
X532927Y736415D01*
X532804Y736464D01*
X532693Y736489D01*
X532584Y736523D01*
X532490Y736533D01*
X532322Y736571D01*
X531998Y736589D01*
X531906Y736599D01*
X528139Y736599D01*
X520699Y744039D01*
X520699Y754561D01*
X528139Y762001D01*
X538661Y762001D01*
X546101Y754561D01*
X546101Y750794D01*
X546110Y750680D01*
X546109Y750566D01*
X546130Y750435D01*
X546141Y750302D01*
X546168Y750192D01*
X546186Y750079D01*
X546227Y749952D01*
X546259Y749824D01*
X546304Y749719D01*
X546340Y749610D01*
X546402Y749492D01*
X546454Y749370D01*
X546515Y749274D01*
X546568Y749173D01*
X546627Y749099D01*
X546719Y748954D01*
X546935Y748712D01*
X546993Y748639D01*
X566553Y729080D01*
X567945Y725719D01*
X567945Y665450D01*
X567954Y665336D01*
X567953Y665222D01*
X567974Y665091D01*
X567985Y664958D01*
X568012Y664848D01*
X568030Y664735D01*
X568071Y664608D01*
X568103Y664480D01*
X568148Y664375D01*
X568184Y664266D01*
X568246Y664148D01*
X568298Y664026D01*
X568359Y663930D01*
X568412Y663829D01*
X568471Y663755D01*
X568563Y663610D01*
X568779Y663368D01*
X568837Y663295D01*
X604653Y627480D01*
X606045Y624119D01*
X606045Y404581D01*
X604653Y401220D01*
X551280Y347847D01*
X547919Y346455D01*
X543479Y346455D01*
X543365Y346446D01*
X543251Y346447D01*
X543120Y346426D01*
X542987Y346415D01*
X542877Y346388D01*
X542764Y346370D01*
X542637Y346329D01*
X542508Y346297D01*
X542404Y346252D01*
X542295Y346216D01*
X542177Y346154D01*
X542055Y346102D01*
X541959Y346041D01*
X541857Y345988D01*
X541784Y345929D01*
X541639Y345837D01*
X541397Y345621D01*
X541324Y345563D01*
X538661Y342899D01*
X528139Y342899D01*
X520340Y350698D01*
X520282Y350748D01*
X520230Y350803D01*
X520095Y350907D01*
X519964Y351018D01*
X519899Y351057D01*
X519839Y351103D01*
X519688Y351184D01*
X519542Y351272D01*
X519471Y351301D01*
X519404Y351337D01*
X519242Y351392D01*
X519084Y351455D01*
X519009Y351472D01*
X518937Y351497D01*
X518769Y351525D01*
X518602Y351562D01*
X518526Y351566D01*
X518451Y351579D01*
X518280Y351580D01*
X518109Y351590D01*
X518034Y351582D01*
X517958Y351582D01*
X517789Y351556D01*
X517619Y351538D01*
X517546Y351517D01*
X517470Y351506D01*
X517308Y351452D01*
X517143Y351407D01*
X517074Y351375D01*
X517002Y351351D01*
X516850Y351272D01*
X516695Y351201D01*
X516632Y351159D01*
X516564Y351123D01*
X516482Y351058D01*
X516285Y350926D01*
X516113Y350764D01*
X516031Y350698D01*
X511788Y346455D01*
X511047Y346455D01*
X511047Y355600D01*
X511047Y364745D01*
X511788Y364745D01*
X516031Y360502D01*
X516089Y360453D01*
X516141Y360397D01*
X516277Y360293D01*
X516407Y360182D01*
X516472Y360143D01*
X516532Y360097D01*
X516683Y360016D01*
X516829Y359928D01*
X516900Y359899D01*
X516967Y359863D01*
X517129Y359808D01*
X517287Y359745D01*
X517362Y359728D01*
X517434Y359703D01*
X517603Y359675D01*
X517769Y359638D01*
X517845Y359634D01*
X517920Y359621D01*
X518091Y359620D01*
X518262Y359610D01*
X518337Y359618D01*
X518414Y359618D01*
X518583Y359644D01*
X518752Y359662D01*
X518826Y359683D01*
X518901Y359694D01*
X519063Y359748D01*
X519228Y359793D01*
X519297Y359825D01*
X519370Y359849D01*
X519521Y359928D01*
X519676Y359999D01*
X519740Y360041D01*
X519807Y360077D01*
X519889Y360142D01*
X520086Y360274D01*
X520258Y360436D01*
X520340Y360502D01*
X528139Y368301D01*
X538661Y368301D01*
X540110Y366852D01*
X540168Y366802D01*
X540220Y366747D01*
X540355Y366643D01*
X540486Y366532D01*
X540551Y366493D01*
X540611Y366447D01*
X540762Y366366D01*
X540908Y366278D01*
X540979Y366250D01*
X541046Y366213D01*
X541208Y366158D01*
X541366Y366095D01*
X541441Y366078D01*
X541513Y366053D01*
X541681Y366025D01*
X541848Y365988D01*
X541924Y365984D01*
X541999Y365971D01*
X542170Y365970D01*
X542341Y365960D01*
X542416Y365968D01*
X542492Y365968D01*
X542661Y365994D01*
X542831Y366012D01*
X542904Y366033D01*
X542980Y366044D01*
X543142Y366098D01*
X543307Y366143D01*
X543376Y366175D01*
X543448Y366199D01*
X543600Y366278D01*
X543755Y366349D01*
X543818Y366391D01*
X543886Y366427D01*
X543968Y366492D01*
X544165Y366624D01*
X544337Y366786D01*
X544419Y366852D01*
X556921Y379353D01*
X556945Y379382D01*
X556974Y379408D01*
X557105Y379570D01*
X557240Y379729D01*
X557260Y379762D01*
X557284Y379792D01*
X557387Y379972D01*
X557495Y380152D01*
X557509Y380187D01*
X557528Y380220D01*
X557600Y380416D01*
X557678Y380610D01*
X557686Y380647D01*
X557699Y380683D01*
X557739Y380888D01*
X557785Y381092D01*
X557787Y381130D01*
X557794Y381167D01*
X557801Y381375D01*
X557812Y381584D01*
X557808Y381622D01*
X557809Y381660D01*
X557782Y381867D01*
X557760Y382075D01*
X557750Y382111D01*
X557745Y382149D01*
X557685Y382349D01*
X557629Y382550D01*
X557614Y382585D01*
X557603Y382622D01*
X557511Y382809D01*
X557424Y382999D01*
X557402Y383031D01*
X557386Y383065D01*
X557265Y383234D01*
X557148Y383408D01*
X557122Y383436D01*
X557100Y383467D01*
X556954Y383615D01*
X556810Y383768D01*
X556780Y383791D01*
X556753Y383818D01*
X556585Y383941D01*
X556419Y384068D01*
X556386Y384086D01*
X556355Y384108D01*
X556169Y384202D01*
X555984Y384301D01*
X555948Y384314D01*
X555914Y384331D01*
X555715Y384393D01*
X555518Y384461D01*
X555480Y384467D01*
X555444Y384479D01*
X555351Y384489D01*
X555031Y384544D01*
X554859Y384545D01*
X554766Y384555D01*
X423083Y384555D01*
X422969Y384546D01*
X422855Y384547D01*
X422723Y384526D01*
X422591Y384515D01*
X422481Y384488D01*
X422368Y384470D01*
X422241Y384429D01*
X422112Y384397D01*
X422007Y384352D01*
X421899Y384316D01*
X421781Y384255D01*
X421659Y384202D01*
X421563Y384141D01*
X421461Y384088D01*
X421388Y384029D01*
X421243Y383937D01*
X421001Y383721D01*
X420928Y383663D01*
X420198Y382933D01*
X417607Y381859D01*
X417460Y381784D01*
X417309Y381716D01*
X417240Y381671D01*
X417168Y381634D01*
X417035Y381536D01*
X416897Y381445D01*
X416836Y381390D01*
X416771Y381341D01*
X416655Y381223D01*
X416534Y381111D01*
X416483Y381047D01*
X416426Y380988D01*
X416331Y380853D01*
X416229Y380723D01*
X416190Y380651D01*
X416143Y380584D01*
X416071Y380435D01*
X415992Y380290D01*
X415965Y380213D01*
X415929Y380140D01*
X415882Y379981D01*
X415827Y379825D01*
X415813Y379745D01*
X415790Y379666D01*
X415769Y379502D01*
X415740Y379340D01*
X415739Y379258D01*
X415728Y379177D01*
X415735Y379012D01*
X415732Y378846D01*
X415744Y378765D01*
X415747Y378684D01*
X415780Y378522D01*
X415804Y378358D01*
X415828Y378280D01*
X415845Y378200D01*
X415903Y378046D01*
X415953Y377888D01*
X415990Y377815D01*
X416019Y377739D01*
X416102Y377596D01*
X416177Y377448D01*
X416225Y377382D01*
X416266Y377312D01*
X416371Y377184D01*
X416468Y377050D01*
X416527Y376993D01*
X416578Y376930D01*
X416702Y376821D01*
X416820Y376705D01*
X416873Y376669D01*
X416948Y376603D01*
X417366Y376341D01*
X417380Y376335D01*
X417389Y376329D01*
X417797Y376121D01*
X418961Y375275D01*
X419979Y374257D01*
X420825Y373093D01*
X421479Y371810D01*
X421629Y371347D01*
X406400Y371347D01*
X391171Y371347D01*
X391321Y371810D01*
X391975Y373093D01*
X392821Y374257D01*
X393839Y375275D01*
X395003Y376121D01*
X395411Y376329D01*
X395552Y376416D01*
X395697Y376495D01*
X395761Y376545D01*
X395831Y376588D01*
X395956Y376696D01*
X396086Y376797D01*
X396141Y376857D01*
X396203Y376911D01*
X396309Y377038D01*
X396422Y377159D01*
X396467Y377227D01*
X396519Y377290D01*
X396603Y377433D01*
X396694Y377570D01*
X396728Y377644D01*
X396769Y377715D01*
X396829Y377869D01*
X396897Y378020D01*
X396918Y378099D01*
X396948Y378175D01*
X396982Y378337D01*
X397025Y378496D01*
X397033Y378577D01*
X397050Y378658D01*
X397058Y378823D01*
X397074Y378987D01*
X397069Y379069D01*
X397073Y379150D01*
X397053Y379315D01*
X397043Y379480D01*
X397025Y379559D01*
X397016Y379640D01*
X396970Y379799D01*
X396933Y379961D01*
X396903Y380036D01*
X396880Y380115D01*
X396810Y380264D01*
X396747Y380418D01*
X396705Y380487D01*
X396670Y380561D01*
X396576Y380697D01*
X396490Y380838D01*
X396437Y380900D01*
X396391Y380968D01*
X396276Y381087D01*
X396168Y381212D01*
X396106Y381265D01*
X396049Y381324D01*
X395917Y381423D01*
X395790Y381529D01*
X395735Y381560D01*
X395655Y381620D01*
X395218Y381849D01*
X395203Y381854D01*
X395193Y381859D01*
X392602Y382933D01*
X391872Y383663D01*
X391785Y383737D01*
X391704Y383818D01*
X391597Y383896D01*
X391496Y383982D01*
X391398Y384041D01*
X391306Y384108D01*
X391187Y384168D01*
X391073Y384237D01*
X390967Y384279D01*
X390865Y384331D01*
X390739Y384371D01*
X390615Y384420D01*
X390504Y384445D01*
X390395Y384479D01*
X390301Y384489D01*
X390134Y384527D01*
X389809Y384545D01*
X389717Y384555D01*
X373350Y384555D01*
X373236Y384546D01*
X373122Y384547D01*
X372991Y384526D01*
X372858Y384515D01*
X372748Y384488D01*
X372635Y384470D01*
X372508Y384429D01*
X372380Y384397D01*
X372275Y384352D01*
X372166Y384316D01*
X372048Y384254D01*
X371926Y384202D01*
X371830Y384141D01*
X371729Y384088D01*
X371655Y384029D01*
X371510Y383937D01*
X371268Y383721D01*
X371195Y383663D01*
X325681Y338149D01*
X322680Y335147D01*
X319319Y333755D01*
X270683Y333755D01*
X270569Y333746D01*
X270455Y333747D01*
X270324Y333726D01*
X270191Y333715D01*
X270081Y333688D01*
X269968Y333670D01*
X269841Y333629D01*
X269712Y333597D01*
X269608Y333552D01*
X269499Y333516D01*
X269381Y333454D01*
X269259Y333402D01*
X269163Y333341D01*
X269061Y333288D01*
X268988Y333229D01*
X268843Y333137D01*
X268601Y332921D01*
X268528Y332863D01*
X267798Y332133D01*
X265207Y331059D01*
X265060Y330984D01*
X264909Y330916D01*
X264840Y330871D01*
X264768Y330834D01*
X264635Y330736D01*
X264497Y330645D01*
X264436Y330590D01*
X264371Y330541D01*
X264255Y330423D01*
X264134Y330311D01*
X264083Y330247D01*
X264026Y330188D01*
X263931Y330053D01*
X263829Y329923D01*
X263790Y329851D01*
X263743Y329784D01*
X263671Y329635D01*
X263592Y329490D01*
X263565Y329413D01*
X263529Y329340D01*
X263482Y329181D01*
X263427Y329025D01*
X263413Y328945D01*
X263390Y328866D01*
X263369Y328702D01*
X263340Y328540D01*
X263339Y328458D01*
X263328Y328377D01*
X263335Y328212D01*
X263332Y328046D01*
X263344Y327965D01*
X263347Y327884D01*
X263380Y327722D01*
X263404Y327558D01*
X263428Y327480D01*
X263445Y327400D01*
X263503Y327246D01*
X263553Y327088D01*
X263590Y327015D01*
X263619Y326939D01*
X263702Y326796D01*
X263777Y326648D01*
X263825Y326582D01*
X263866Y326512D01*
X263971Y326384D01*
X264068Y326250D01*
X264127Y326193D01*
X264178Y326130D01*
X264302Y326021D01*
X264420Y325905D01*
X264473Y325869D01*
X264548Y325803D01*
X264966Y325541D01*
X264980Y325535D01*
X264989Y325529D01*
X265397Y325321D01*
X266561Y324475D01*
X267579Y323457D01*
X268425Y322293D01*
X269079Y321010D01*
X269229Y320547D01*
X254000Y320547D01*
X254000Y320547D01*
G37*
%LPD*%
G36*
X570475Y419532D02*
X570475Y419532D01*
X570656Y419531D01*
X570722Y419542D01*
X570788Y419544D01*
X570965Y419580D01*
X571143Y419608D01*
X571206Y419629D01*
X571272Y419642D01*
X571441Y419706D01*
X571612Y419762D01*
X571671Y419793D01*
X571733Y419816D01*
X571889Y419907D01*
X572049Y419990D01*
X572091Y420023D01*
X572160Y420063D01*
X572542Y420375D01*
X572564Y420401D01*
X572583Y420415D01*
X574163Y421995D01*
X574237Y422082D01*
X574318Y422163D01*
X574396Y422270D01*
X574482Y422371D01*
X574541Y422469D01*
X574608Y422561D01*
X574668Y422680D01*
X574737Y422794D01*
X574779Y422900D01*
X574831Y423002D01*
X574871Y423129D01*
X574920Y423252D01*
X574945Y423363D01*
X574979Y423472D01*
X574989Y423566D01*
X575027Y423734D01*
X575045Y424058D01*
X575055Y424150D01*
X575055Y591850D01*
X575046Y591964D01*
X575047Y592078D01*
X575026Y592209D01*
X575015Y592342D01*
X574988Y592452D01*
X574970Y592565D01*
X574929Y592692D01*
X574897Y592820D01*
X574852Y592925D01*
X574816Y593034D01*
X574754Y593152D01*
X574702Y593274D01*
X574641Y593370D01*
X574588Y593471D01*
X574529Y593545D01*
X574437Y593690D01*
X574221Y593932D01*
X574163Y594005D01*
X515949Y652219D01*
X515725Y652443D01*
X515717Y652449D01*
X515711Y652457D01*
X515530Y652608D01*
X515349Y652762D01*
X515340Y652767D01*
X515333Y652774D01*
X515297Y652793D01*
X514926Y653017D01*
X514805Y653066D01*
X514736Y653104D01*
X512930Y653852D01*
X509072Y657710D01*
X508664Y658694D01*
X508585Y658848D01*
X508514Y659006D01*
X508473Y659067D01*
X508439Y659133D01*
X508336Y659273D01*
X508240Y659416D01*
X508190Y659471D01*
X508146Y659530D01*
X508022Y659651D01*
X507904Y659777D01*
X507846Y659823D01*
X507793Y659875D01*
X507651Y659974D01*
X507514Y660080D01*
X507449Y660115D01*
X507389Y660158D01*
X507233Y660233D01*
X507081Y660315D01*
X507011Y660339D01*
X506944Y660372D01*
X506778Y660421D01*
X506615Y660477D01*
X506542Y660490D01*
X506471Y660511D01*
X506299Y660533D01*
X506129Y660562D01*
X506055Y660563D01*
X505981Y660572D01*
X505809Y660566D01*
X505636Y660568D01*
X505562Y660557D01*
X505488Y660554D01*
X505319Y660520D01*
X505148Y660494D01*
X505078Y660471D01*
X505005Y660456D01*
X504843Y660395D01*
X504679Y660342D01*
X504613Y660308D01*
X504543Y660282D01*
X504394Y660195D01*
X504240Y660116D01*
X504180Y660072D01*
X504116Y660035D01*
X503982Y659925D01*
X503843Y659823D01*
X503804Y659780D01*
X503734Y659723D01*
X503408Y659353D01*
X503395Y659332D01*
X503383Y659319D01*
X503050Y658861D01*
X501919Y657730D01*
X500625Y656790D01*
X499200Y656064D01*
X498347Y655787D01*
X498347Y673100D01*
X498347Y690413D01*
X499200Y690136D01*
X500625Y689410D01*
X501919Y688470D01*
X503050Y687339D01*
X503383Y686881D01*
X503496Y686750D01*
X503602Y686613D01*
X503656Y686563D01*
X503705Y686506D01*
X503837Y686395D01*
X503964Y686278D01*
X504026Y686236D01*
X504082Y686189D01*
X504230Y686101D01*
X504375Y686005D01*
X504442Y685974D01*
X504506Y685936D01*
X504667Y685873D01*
X504824Y685802D01*
X504896Y685783D01*
X504965Y685756D01*
X505134Y685719D01*
X505301Y685674D01*
X505375Y685667D01*
X505447Y685651D01*
X505620Y685642D01*
X505792Y685625D01*
X505866Y685630D01*
X505940Y685626D01*
X506112Y685645D01*
X506284Y685656D01*
X506356Y685672D01*
X506430Y685681D01*
X506597Y685727D01*
X506765Y685766D01*
X506834Y685794D01*
X506905Y685814D01*
X507062Y685887D01*
X507222Y685952D01*
X507285Y685990D01*
X507353Y686022D01*
X507496Y686119D01*
X507643Y686209D01*
X507699Y686257D01*
X507761Y686299D01*
X507886Y686418D01*
X508017Y686531D01*
X508065Y686588D01*
X508118Y686639D01*
X508223Y686776D01*
X508334Y686909D01*
X508362Y686960D01*
X508417Y687032D01*
X508648Y687468D01*
X508655Y687491D01*
X508664Y687506D01*
X509072Y688490D01*
X510663Y690081D01*
X510737Y690168D01*
X510818Y690248D01*
X510896Y690356D01*
X510982Y690457D01*
X511041Y690555D01*
X511108Y690647D01*
X511168Y690766D01*
X511237Y690880D01*
X511279Y690986D01*
X511331Y691088D01*
X511371Y691214D01*
X511420Y691338D01*
X511445Y691449D01*
X511479Y691558D01*
X511489Y691652D01*
X511527Y691819D01*
X511545Y692144D01*
X511555Y692236D01*
X511555Y706150D01*
X511546Y706264D01*
X511547Y706378D01*
X511526Y706509D01*
X511515Y706642D01*
X511488Y706752D01*
X511470Y706865D01*
X511429Y706992D01*
X511397Y707120D01*
X511352Y707225D01*
X511316Y707334D01*
X511254Y707452D01*
X511202Y707574D01*
X511141Y707670D01*
X511088Y707771D01*
X511029Y707845D01*
X510937Y707990D01*
X510721Y708232D01*
X510663Y708305D01*
X479705Y739263D01*
X479618Y739337D01*
X479537Y739418D01*
X479430Y739496D01*
X479329Y739582D01*
X479231Y739641D01*
X479139Y739708D01*
X479020Y739768D01*
X478906Y739837D01*
X478800Y739879D01*
X478698Y739931D01*
X478571Y739971D01*
X478448Y740020D01*
X478337Y740045D01*
X478228Y740079D01*
X478134Y740089D01*
X477966Y740127D01*
X477642Y740145D01*
X477550Y740155D01*
X467279Y740155D01*
X467165Y740146D01*
X467051Y740147D01*
X466920Y740126D01*
X466787Y740115D01*
X466677Y740088D01*
X466564Y740070D01*
X466437Y740029D01*
X466308Y739997D01*
X466204Y739952D01*
X466095Y739916D01*
X465977Y739854D01*
X465855Y739802D01*
X465759Y739741D01*
X465657Y739688D01*
X465584Y739629D01*
X465439Y739537D01*
X465197Y739321D01*
X465124Y739263D01*
X462461Y736599D01*
X458694Y736599D01*
X458580Y736590D01*
X458466Y736591D01*
X458335Y736570D01*
X458202Y736559D01*
X458092Y736532D01*
X457979Y736514D01*
X457852Y736473D01*
X457724Y736441D01*
X457619Y736396D01*
X457510Y736360D01*
X457392Y736298D01*
X457270Y736246D01*
X457174Y736185D01*
X457073Y736132D01*
X456999Y736073D01*
X456854Y735981D01*
X456612Y735765D01*
X456539Y735707D01*
X440537Y719705D01*
X440488Y719647D01*
X440432Y719595D01*
X440328Y719459D01*
X440218Y719329D01*
X440178Y719263D01*
X440132Y719203D01*
X440052Y719053D01*
X439963Y718906D01*
X439935Y718835D01*
X439899Y718768D01*
X439843Y718607D01*
X439780Y718448D01*
X439764Y718374D01*
X439739Y718302D01*
X439710Y718133D01*
X439673Y717967D01*
X439669Y717890D01*
X439656Y717815D01*
X439655Y717644D01*
X439646Y717474D01*
X439654Y717398D01*
X439653Y717322D01*
X439680Y717153D01*
X439698Y716983D01*
X439718Y716910D01*
X439730Y716835D01*
X439783Y716672D01*
X439829Y716508D01*
X439860Y716438D01*
X439884Y716366D01*
X439963Y716215D01*
X440034Y716059D01*
X440077Y715996D01*
X440112Y715928D01*
X440178Y715846D01*
X440310Y715650D01*
X440472Y715477D01*
X440537Y715395D01*
X461718Y694214D01*
X461885Y694072D01*
X462049Y693928D01*
X462073Y693913D01*
X462094Y693895D01*
X462282Y693781D01*
X462466Y693666D01*
X462492Y693655D01*
X462517Y693640D01*
X462720Y693559D01*
X462921Y693474D01*
X462949Y693467D01*
X462975Y693457D01*
X463188Y693410D01*
X463401Y693358D01*
X463429Y693356D01*
X463457Y693350D01*
X463675Y693338D01*
X463893Y693322D01*
X463921Y693324D01*
X463949Y693323D01*
X464167Y693346D01*
X464384Y693365D01*
X464406Y693371D01*
X464440Y693375D01*
X464916Y693505D01*
X464989Y693539D01*
X465039Y693554D01*
X467172Y694437D01*
X472628Y694437D01*
X477670Y692348D01*
X481528Y688490D01*
X481936Y687506D01*
X482015Y687352D01*
X482086Y687194D01*
X482127Y687133D01*
X482161Y687067D01*
X482264Y686927D01*
X482360Y686784D01*
X482410Y686729D01*
X482454Y686670D01*
X482578Y686549D01*
X482696Y686423D01*
X482754Y686377D01*
X482807Y686325D01*
X482949Y686226D01*
X483086Y686120D01*
X483151Y686085D01*
X483211Y686042D01*
X483367Y685967D01*
X483519Y685885D01*
X483589Y685861D01*
X483656Y685828D01*
X483822Y685779D01*
X483985Y685723D01*
X484058Y685710D01*
X484129Y685689D01*
X484301Y685667D01*
X484471Y685638D01*
X484545Y685637D01*
X484619Y685628D01*
X484791Y685634D01*
X484964Y685632D01*
X485038Y685643D01*
X485112Y685646D01*
X485281Y685680D01*
X485452Y685706D01*
X485522Y685729D01*
X485595Y685744D01*
X485757Y685805D01*
X485921Y685858D01*
X485987Y685892D01*
X486057Y685918D01*
X486206Y686005D01*
X486360Y686084D01*
X486420Y686128D01*
X486484Y686165D01*
X486618Y686275D01*
X486757Y686377D01*
X486796Y686420D01*
X486866Y686477D01*
X487192Y686847D01*
X487205Y686868D01*
X487217Y686881D01*
X487550Y687339D01*
X488681Y688470D01*
X489975Y689410D01*
X491400Y690136D01*
X492253Y690413D01*
X492253Y673100D01*
X492253Y655787D01*
X491400Y656064D01*
X489975Y656790D01*
X488681Y657730D01*
X487550Y658861D01*
X487217Y659319D01*
X487104Y659450D01*
X486998Y659587D01*
X486944Y659637D01*
X486895Y659694D01*
X486763Y659805D01*
X486636Y659922D01*
X486574Y659964D01*
X486518Y660011D01*
X486370Y660099D01*
X486225Y660195D01*
X486158Y660226D01*
X486094Y660264D01*
X485933Y660327D01*
X485776Y660398D01*
X485704Y660417D01*
X485635Y660444D01*
X485466Y660481D01*
X485299Y660526D01*
X485225Y660533D01*
X485153Y660549D01*
X484980Y660558D01*
X484808Y660575D01*
X484734Y660570D01*
X484660Y660574D01*
X484488Y660555D01*
X484316Y660544D01*
X484244Y660528D01*
X484170Y660519D01*
X484003Y660473D01*
X483835Y660434D01*
X483766Y660406D01*
X483695Y660386D01*
X483538Y660313D01*
X483378Y660248D01*
X483315Y660210D01*
X483247Y660178D01*
X483104Y660081D01*
X482957Y659991D01*
X482901Y659943D01*
X482839Y659901D01*
X482714Y659782D01*
X482583Y659669D01*
X482535Y659612D01*
X482482Y659561D01*
X482377Y659424D01*
X482266Y659291D01*
X482238Y659240D01*
X482183Y659168D01*
X481952Y658732D01*
X481945Y658709D01*
X481936Y658694D01*
X481528Y657710D01*
X480953Y657135D01*
X480879Y657048D01*
X480798Y656968D01*
X480720Y656860D01*
X480634Y656759D01*
X480575Y656661D01*
X480508Y656569D01*
X480448Y656450D01*
X480379Y656336D01*
X480337Y656230D01*
X480285Y656128D01*
X480245Y656002D01*
X480196Y655878D01*
X480171Y655767D01*
X480137Y655658D01*
X480127Y655564D01*
X480089Y655397D01*
X480071Y655072D01*
X480061Y654980D01*
X480061Y653171D01*
X480070Y653057D01*
X480069Y652943D01*
X480090Y652812D01*
X480101Y652679D01*
X480128Y652568D01*
X480146Y652456D01*
X480187Y652329D01*
X480219Y652200D01*
X480264Y652096D01*
X480300Y651987D01*
X480362Y651869D01*
X480414Y651747D01*
X480475Y651651D01*
X480528Y651549D01*
X480587Y651476D01*
X480679Y651331D01*
X480787Y651210D01*
X480814Y651172D01*
X480889Y651096D01*
X480895Y651089D01*
X480953Y651016D01*
X503914Y628056D01*
X505461Y624321D01*
X505461Y615020D01*
X505470Y614906D01*
X505469Y614792D01*
X505490Y614660D01*
X505501Y614528D01*
X505528Y614417D01*
X505546Y614304D01*
X505588Y614178D01*
X505619Y614049D01*
X505664Y613944D01*
X505700Y613836D01*
X505761Y613718D01*
X505814Y613596D01*
X505875Y613500D01*
X505928Y613398D01*
X505987Y613325D01*
X506079Y613180D01*
X506295Y612938D01*
X506353Y612865D01*
X506928Y612290D01*
X507336Y611306D01*
X507415Y611152D01*
X507486Y610994D01*
X507527Y610933D01*
X507561Y610867D01*
X507664Y610727D01*
X507760Y610584D01*
X507810Y610529D01*
X507854Y610470D01*
X507978Y610349D01*
X508096Y610223D01*
X508154Y610177D01*
X508207Y610125D01*
X508349Y610026D01*
X508486Y609920D01*
X508551Y609885D01*
X508611Y609842D01*
X508767Y609767D01*
X508919Y609685D01*
X508989Y609661D01*
X509056Y609628D01*
X509222Y609579D01*
X509385Y609523D01*
X509458Y609510D01*
X509529Y609489D01*
X509701Y609467D01*
X509871Y609438D01*
X509945Y609437D01*
X510019Y609428D01*
X510191Y609434D01*
X510364Y609432D01*
X510438Y609443D01*
X510512Y609446D01*
X510681Y609480D01*
X510852Y609506D01*
X510922Y609529D01*
X510995Y609544D01*
X511157Y609605D01*
X511321Y609658D01*
X511387Y609692D01*
X511457Y609718D01*
X511606Y609805D01*
X511760Y609884D01*
X511820Y609928D01*
X511884Y609965D01*
X512018Y610075D01*
X512157Y610177D01*
X512196Y610220D01*
X512266Y610277D01*
X512592Y610647D01*
X512605Y610668D01*
X512617Y610681D01*
X512950Y611139D01*
X514081Y612270D01*
X515375Y613210D01*
X516800Y613936D01*
X517653Y614213D01*
X517653Y596900D01*
X517653Y579587D01*
X516800Y579864D01*
X515375Y580590D01*
X514081Y581530D01*
X512950Y582661D01*
X512617Y583119D01*
X512504Y583250D01*
X512398Y583387D01*
X512344Y583437D01*
X512295Y583494D01*
X512163Y583605D01*
X512036Y583722D01*
X511974Y583764D01*
X511918Y583811D01*
X511770Y583899D01*
X511625Y583995D01*
X511558Y584026D01*
X511494Y584064D01*
X511333Y584127D01*
X511176Y584198D01*
X511104Y584217D01*
X511035Y584244D01*
X510866Y584281D01*
X510699Y584326D01*
X510625Y584333D01*
X510553Y584349D01*
X510380Y584358D01*
X510208Y584375D01*
X510134Y584370D01*
X510060Y584374D01*
X509888Y584355D01*
X509716Y584344D01*
X509644Y584328D01*
X509570Y584319D01*
X509403Y584273D01*
X509235Y584234D01*
X509166Y584206D01*
X509095Y584186D01*
X508938Y584113D01*
X508778Y584048D01*
X508715Y584010D01*
X508647Y583978D01*
X508504Y583881D01*
X508357Y583791D01*
X508301Y583743D01*
X508239Y583701D01*
X508114Y583582D01*
X507983Y583469D01*
X507935Y583412D01*
X507882Y583361D01*
X507777Y583224D01*
X507666Y583091D01*
X507638Y583040D01*
X507583Y582968D01*
X507352Y582532D01*
X507345Y582509D01*
X507336Y582494D01*
X506928Y581510D01*
X503070Y577652D01*
X498028Y575563D01*
X492572Y575563D01*
X487530Y577652D01*
X483672Y581510D01*
X481583Y586552D01*
X481583Y607248D01*
X483671Y612290D01*
X484247Y612865D01*
X484321Y612952D01*
X484402Y613032D01*
X484480Y613140D01*
X484566Y613241D01*
X484625Y613339D01*
X484692Y613431D01*
X484752Y613550D01*
X484821Y613664D01*
X484863Y613770D01*
X484915Y613872D01*
X484955Y613998D01*
X485004Y614122D01*
X485029Y614233D01*
X485063Y614342D01*
X485073Y614436D01*
X485111Y614603D01*
X485129Y614928D01*
X485139Y615020D01*
X485139Y616829D01*
X485130Y616943D01*
X485131Y617057D01*
X485110Y617188D01*
X485099Y617321D01*
X485072Y617432D01*
X485054Y617544D01*
X485013Y617671D01*
X484981Y617800D01*
X484936Y617904D01*
X484900Y618013D01*
X484838Y618131D01*
X484786Y618253D01*
X484725Y618349D01*
X484672Y618451D01*
X484613Y618524D01*
X484521Y618669D01*
X484305Y618911D01*
X484247Y618984D01*
X461286Y641944D01*
X459739Y645679D01*
X459739Y654980D01*
X459730Y655094D01*
X459731Y655208D01*
X459710Y655340D01*
X459699Y655472D01*
X459672Y655583D01*
X459654Y655695D01*
X459613Y655822D01*
X459581Y655951D01*
X459536Y656056D01*
X459500Y656164D01*
X459438Y656282D01*
X459386Y656404D01*
X459325Y656500D01*
X459272Y656602D01*
X459213Y656675D01*
X459121Y656820D01*
X458905Y657062D01*
X458847Y657135D01*
X458272Y657710D01*
X456183Y662752D01*
X456183Y672622D01*
X456174Y672736D01*
X456175Y672850D01*
X456154Y672981D01*
X456143Y673114D01*
X456116Y673224D01*
X456098Y673337D01*
X456057Y673464D01*
X456025Y673592D01*
X455980Y673697D01*
X455944Y673806D01*
X455882Y673924D01*
X455830Y674046D01*
X455769Y674142D01*
X455716Y674243D01*
X455657Y674317D01*
X455565Y674462D01*
X455349Y674704D01*
X455291Y674777D01*
X428905Y701163D01*
X428818Y701237D01*
X428737Y701318D01*
X428630Y701396D01*
X428529Y701482D01*
X428431Y701541D01*
X428339Y701608D01*
X428220Y701668D01*
X428106Y701737D01*
X428000Y701779D01*
X427898Y701831D01*
X427771Y701871D01*
X427648Y701920D01*
X427537Y701945D01*
X427428Y701979D01*
X427334Y701989D01*
X427166Y702027D01*
X426842Y702045D01*
X426750Y702055D01*
X411450Y702055D01*
X411336Y702046D01*
X411222Y702047D01*
X411091Y702026D01*
X410958Y702015D01*
X410848Y701988D01*
X410735Y701970D01*
X410608Y701929D01*
X410480Y701897D01*
X410375Y701852D01*
X410266Y701816D01*
X410148Y701754D01*
X410026Y701702D01*
X409930Y701641D01*
X409829Y701588D01*
X409755Y701529D01*
X409610Y701437D01*
X409368Y701221D01*
X409295Y701163D01*
X394593Y686461D01*
X394519Y686374D01*
X394438Y686293D01*
X394360Y686186D01*
X394274Y686085D01*
X394215Y685987D01*
X394148Y685895D01*
X394088Y685776D01*
X394019Y685662D01*
X393977Y685556D01*
X393925Y685454D01*
X393885Y685327D01*
X393836Y685204D01*
X393811Y685093D01*
X393777Y684984D01*
X393767Y684890D01*
X393729Y684722D01*
X393711Y684398D01*
X393701Y684306D01*
X393701Y680539D01*
X386261Y673099D01*
X375739Y673099D01*
X367940Y680898D01*
X367882Y680947D01*
X367830Y681003D01*
X367694Y681107D01*
X367564Y681218D01*
X367499Y681257D01*
X367439Y681303D01*
X367288Y681384D01*
X367142Y681472D01*
X367071Y681501D01*
X367004Y681537D01*
X366842Y681592D01*
X366684Y681655D01*
X366609Y681672D01*
X366537Y681697D01*
X366369Y681725D01*
X366202Y681762D01*
X366126Y681766D01*
X366051Y681779D01*
X365880Y681780D01*
X365709Y681790D01*
X365634Y681782D01*
X365557Y681782D01*
X365388Y681756D01*
X365219Y681738D01*
X365146Y681717D01*
X365070Y681706D01*
X364908Y681652D01*
X364743Y681607D01*
X364674Y681575D01*
X364602Y681551D01*
X364450Y681472D01*
X364295Y681401D01*
X364232Y681359D01*
X364164Y681323D01*
X364082Y681258D01*
X363885Y681126D01*
X363713Y680964D01*
X363631Y680898D01*
X359388Y676655D01*
X358647Y676655D01*
X358647Y685800D01*
X358647Y694945D01*
X359388Y694945D01*
X363631Y690702D01*
X363689Y690652D01*
X363741Y690597D01*
X363876Y690493D01*
X364007Y690382D01*
X364072Y690343D01*
X364132Y690297D01*
X364283Y690216D01*
X364429Y690128D01*
X364500Y690099D01*
X364567Y690063D01*
X364729Y690008D01*
X364887Y689945D01*
X364962Y689928D01*
X365034Y689903D01*
X365202Y689875D01*
X365369Y689838D01*
X365445Y689834D01*
X365520Y689821D01*
X365691Y689820D01*
X365862Y689810D01*
X365937Y689818D01*
X366014Y689818D01*
X366182Y689844D01*
X366352Y689862D01*
X366425Y689883D01*
X366501Y689894D01*
X366663Y689948D01*
X366828Y689993D01*
X366897Y690025D01*
X366969Y690049D01*
X367121Y690128D01*
X367276Y690199D01*
X367340Y690241D01*
X367407Y690277D01*
X367489Y690342D01*
X367686Y690474D01*
X367858Y690636D01*
X367940Y690702D01*
X375739Y698501D01*
X379506Y698501D01*
X379620Y698510D01*
X379734Y698509D01*
X379865Y698530D01*
X379998Y698541D01*
X380108Y698568D01*
X380221Y698586D01*
X380347Y698627D01*
X380476Y698659D01*
X380581Y698704D01*
X380690Y698740D01*
X380808Y698802D01*
X380930Y698854D01*
X381026Y698915D01*
X381127Y698968D01*
X381201Y699027D01*
X381346Y699119D01*
X381588Y699335D01*
X381661Y699393D01*
X391821Y709553D01*
X391845Y709582D01*
X391874Y709608D01*
X392005Y709770D01*
X392140Y709929D01*
X392160Y709962D01*
X392184Y709992D01*
X392287Y710172D01*
X392395Y710352D01*
X392409Y710387D01*
X392428Y710420D01*
X392500Y710616D01*
X392578Y710810D01*
X392586Y710847D01*
X392599Y710883D01*
X392639Y711088D01*
X392685Y711292D01*
X392687Y711330D01*
X392694Y711367D01*
X392701Y711575D01*
X392712Y711784D01*
X392708Y711822D01*
X392709Y711860D01*
X392682Y712067D01*
X392660Y712275D01*
X392650Y712311D01*
X392645Y712349D01*
X392585Y712549D01*
X392529Y712750D01*
X392514Y712785D01*
X392503Y712822D01*
X392411Y713009D01*
X392324Y713199D01*
X392302Y713231D01*
X392286Y713265D01*
X392165Y713434D01*
X392048Y713608D01*
X392022Y713636D01*
X392000Y713667D01*
X391854Y713815D01*
X391710Y713968D01*
X391680Y713991D01*
X391653Y714018D01*
X391485Y714141D01*
X391319Y714268D01*
X391286Y714286D01*
X391255Y714308D01*
X391069Y714402D01*
X390884Y714501D01*
X390848Y714514D01*
X390814Y714531D01*
X390615Y714593D01*
X390418Y714661D01*
X390380Y714667D01*
X390344Y714679D01*
X390251Y714689D01*
X389931Y714744D01*
X389759Y714745D01*
X389666Y714755D01*
X347950Y714755D01*
X347836Y714746D01*
X347722Y714747D01*
X347591Y714726D01*
X347458Y714715D01*
X347348Y714688D01*
X347235Y714670D01*
X347108Y714629D01*
X346980Y714597D01*
X346875Y714552D01*
X346766Y714516D01*
X346648Y714454D01*
X346526Y714402D01*
X346430Y714341D01*
X346329Y714288D01*
X346255Y714229D01*
X346110Y714137D01*
X345868Y713921D01*
X345795Y713863D01*
X318393Y686461D01*
X318319Y686374D01*
X318238Y686293D01*
X318160Y686186D01*
X318074Y686085D01*
X318015Y685987D01*
X317948Y685895D01*
X317888Y685776D01*
X317819Y685662D01*
X317777Y685556D01*
X317725Y685454D01*
X317685Y685327D01*
X317636Y685204D01*
X317611Y685093D01*
X317577Y684984D01*
X317567Y684890D01*
X317529Y684722D01*
X317511Y684398D01*
X317501Y684306D01*
X317501Y680539D01*
X310061Y673099D01*
X299539Y673099D01*
X291740Y680898D01*
X291682Y680947D01*
X291630Y681003D01*
X291494Y681107D01*
X291364Y681218D01*
X291299Y681257D01*
X291239Y681303D01*
X291088Y681384D01*
X290942Y681472D01*
X290871Y681501D01*
X290804Y681537D01*
X290642Y681592D01*
X290484Y681655D01*
X290409Y681672D01*
X290337Y681697D01*
X290169Y681725D01*
X290002Y681762D01*
X289926Y681766D01*
X289851Y681779D01*
X289680Y681780D01*
X289509Y681790D01*
X289434Y681782D01*
X289357Y681782D01*
X289188Y681756D01*
X289019Y681738D01*
X288946Y681717D01*
X288870Y681706D01*
X288708Y681652D01*
X288543Y681607D01*
X288474Y681575D01*
X288402Y681551D01*
X288250Y681472D01*
X288095Y681401D01*
X288032Y681359D01*
X287964Y681323D01*
X287882Y681258D01*
X287685Y681126D01*
X287513Y680964D01*
X287431Y680898D01*
X283188Y676655D01*
X282447Y676655D01*
X282447Y685800D01*
X282441Y685876D01*
X282444Y685952D01*
X282421Y686121D01*
X282407Y686291D01*
X282389Y686365D01*
X282379Y686441D01*
X282330Y686605D01*
X282289Y686770D01*
X282259Y686840D01*
X282237Y686913D01*
X282162Y687067D01*
X282094Y687224D01*
X282053Y687288D01*
X282020Y687356D01*
X281921Y687496D01*
X281829Y687640D01*
X281778Y687696D01*
X281734Y687759D01*
X281614Y687880D01*
X281500Y688008D01*
X281441Y688056D01*
X281388Y688110D01*
X281387Y688110D01*
X281249Y688211D01*
X281116Y688318D01*
X281050Y688356D01*
X280988Y688400D01*
X280836Y688477D01*
X280687Y688562D01*
X280616Y688588D01*
X280548Y688623D01*
X280385Y688674D01*
X280225Y688734D01*
X280150Y688748D01*
X280077Y688771D01*
X279973Y688783D01*
X279741Y688828D01*
X279505Y688836D01*
X279400Y688847D01*
X270255Y688847D01*
X270255Y689588D01*
X275633Y694966D01*
X275650Y694968D01*
X275858Y694985D01*
X275895Y694994D01*
X275933Y694998D01*
X276134Y695053D01*
X276337Y695103D01*
X276372Y695118D01*
X276408Y695129D01*
X276598Y695216D01*
X276790Y695298D01*
X276822Y695318D01*
X276857Y695334D01*
X277030Y695451D01*
X277206Y695563D01*
X277234Y695588D01*
X277266Y695610D01*
X277418Y695753D01*
X277574Y695892D01*
X277598Y695921D01*
X277626Y695947D01*
X277753Y696113D01*
X277884Y696276D01*
X277903Y696309D01*
X277926Y696339D01*
X278025Y696523D01*
X278128Y696704D01*
X278141Y696740D01*
X278159Y696774D01*
X278227Y696971D01*
X278299Y697167D01*
X278307Y697204D01*
X278319Y697240D01*
X278354Y697447D01*
X278394Y697651D01*
X278395Y697689D01*
X278402Y697727D01*
X278403Y697936D01*
X278409Y698144D01*
X278404Y698182D01*
X278405Y698220D01*
X278372Y698427D01*
X278345Y698633D01*
X278334Y698670D01*
X278328Y698707D01*
X278263Y698906D01*
X278203Y699105D01*
X278186Y699140D01*
X278174Y699176D01*
X278077Y699361D01*
X277986Y699549D01*
X277964Y699580D01*
X277946Y699614D01*
X277888Y699686D01*
X277700Y699951D01*
X277579Y700073D01*
X277521Y700147D01*
X213005Y764663D01*
X212918Y764737D01*
X212837Y764818D01*
X212730Y764896D01*
X212629Y764982D01*
X212531Y765041D01*
X212439Y765108D01*
X212320Y765168D01*
X212206Y765237D01*
X212100Y765279D01*
X211998Y765331D01*
X211871Y765371D01*
X211748Y765420D01*
X211637Y765445D01*
X211528Y765479D01*
X211434Y765489D01*
X211266Y765527D01*
X210942Y765545D01*
X210850Y765555D01*
X157450Y765555D01*
X157336Y765546D01*
X157222Y765547D01*
X157091Y765526D01*
X156958Y765515D01*
X156848Y765488D01*
X156735Y765470D01*
X156608Y765429D01*
X156480Y765397D01*
X156375Y765352D01*
X156266Y765316D01*
X156148Y765254D01*
X156026Y765202D01*
X155930Y765141D01*
X155829Y765088D01*
X155755Y765029D01*
X155610Y764937D01*
X155368Y764721D01*
X155295Y764663D01*
X137037Y746405D01*
X136963Y746318D01*
X136882Y746237D01*
X136804Y746130D01*
X136718Y746029D01*
X136659Y745931D01*
X136592Y745839D01*
X136532Y745720D01*
X136463Y745606D01*
X136421Y745500D01*
X136369Y745398D01*
X136329Y745271D01*
X136280Y745148D01*
X136255Y745037D01*
X136221Y744928D01*
X136211Y744834D01*
X136173Y744666D01*
X136155Y744342D01*
X136145Y744250D01*
X136145Y704936D01*
X136153Y704840D01*
X136151Y704782D01*
X136154Y704760D01*
X136153Y704708D01*
X136174Y704576D01*
X136185Y704444D01*
X136207Y704354D01*
X136215Y704293D01*
X136222Y704269D01*
X136230Y704220D01*
X136271Y704094D01*
X136303Y703965D01*
X136339Y703883D01*
X136358Y703820D01*
X136370Y703795D01*
X136384Y703752D01*
X136446Y703634D01*
X136498Y703512D01*
X136544Y703440D01*
X136574Y703377D01*
X136593Y703352D01*
X136612Y703314D01*
X136671Y703241D01*
X136763Y703096D01*
X136817Y703036D01*
X136860Y702975D01*
X136977Y702856D01*
X136979Y702854D01*
X137037Y702781D01*
X138628Y701190D01*
X139036Y700206D01*
X139115Y700052D01*
X139186Y699894D01*
X139227Y699833D01*
X139261Y699767D01*
X139364Y699628D01*
X139460Y699484D01*
X139510Y699429D01*
X139554Y699370D01*
X139678Y699249D01*
X139796Y699122D01*
X139854Y699077D01*
X139907Y699025D01*
X140049Y698926D01*
X140186Y698820D01*
X140251Y698785D01*
X140311Y698742D01*
X140467Y698667D01*
X140619Y698585D01*
X140689Y698560D01*
X140756Y698528D01*
X140922Y698479D01*
X141085Y698423D01*
X141158Y698410D01*
X141229Y698389D01*
X141401Y698367D01*
X141571Y698338D01*
X141645Y698337D01*
X141719Y698328D01*
X141891Y698334D01*
X142064Y698332D01*
X142138Y698343D01*
X142212Y698346D01*
X142381Y698380D01*
X142552Y698406D01*
X142623Y698429D01*
X142695Y698444D01*
X142857Y698505D01*
X143021Y698558D01*
X143087Y698592D01*
X143157Y698618D01*
X143306Y698705D01*
X143460Y698784D01*
X143520Y698828D01*
X143584Y698865D01*
X143717Y698974D01*
X143857Y699077D01*
X143896Y699120D01*
X143966Y699177D01*
X144292Y699547D01*
X144305Y699568D01*
X144317Y699581D01*
X144650Y700039D01*
X145781Y701170D01*
X147075Y702110D01*
X148500Y702836D01*
X149353Y703113D01*
X149353Y685800D01*
X149353Y668487D01*
X148500Y668764D01*
X147075Y669490D01*
X145781Y670430D01*
X144650Y671561D01*
X144317Y672019D01*
X144204Y672150D01*
X144098Y672287D01*
X144044Y672337D01*
X143995Y672394D01*
X143863Y672505D01*
X143736Y672623D01*
X143674Y672664D01*
X143618Y672711D01*
X143469Y672800D01*
X143325Y672895D01*
X143258Y672926D01*
X143194Y672964D01*
X143033Y673027D01*
X142876Y673098D01*
X142804Y673117D01*
X142735Y673144D01*
X142566Y673181D01*
X142399Y673226D01*
X142325Y673233D01*
X142253Y673249D01*
X142080Y673258D01*
X141908Y673275D01*
X141834Y673270D01*
X141760Y673274D01*
X141588Y673255D01*
X141416Y673244D01*
X141344Y673228D01*
X141270Y673219D01*
X141103Y673173D01*
X140935Y673134D01*
X140866Y673106D01*
X140795Y673086D01*
X140638Y673014D01*
X140478Y672948D01*
X140415Y672910D01*
X140347Y672878D01*
X140205Y672781D01*
X140057Y672691D01*
X140001Y672643D01*
X139940Y672601D01*
X139814Y672482D01*
X139683Y672369D01*
X139635Y672312D01*
X139582Y672261D01*
X139477Y672124D01*
X139366Y671991D01*
X139338Y671940D01*
X139283Y671868D01*
X139052Y671433D01*
X139044Y671409D01*
X139036Y671394D01*
X138628Y670410D01*
X134770Y666552D01*
X129728Y664463D01*
X124272Y664463D01*
X119230Y666552D01*
X116455Y669327D01*
X116397Y669376D01*
X116344Y669432D01*
X116209Y669536D01*
X116079Y669646D01*
X116013Y669686D01*
X115953Y669732D01*
X115803Y669813D01*
X115656Y669901D01*
X115585Y669929D01*
X115518Y669965D01*
X115357Y670021D01*
X115198Y670084D01*
X115124Y670100D01*
X115052Y670125D01*
X114883Y670154D01*
X114716Y670191D01*
X114640Y670195D01*
X114565Y670208D01*
X114394Y670209D01*
X114224Y670218D01*
X114148Y670210D01*
X114072Y670211D01*
X113903Y670184D01*
X113733Y670166D01*
X113660Y670146D01*
X113585Y670134D01*
X113422Y670081D01*
X113258Y670036D01*
X113188Y670004D01*
X113116Y669980D01*
X112965Y669901D01*
X112809Y669830D01*
X112746Y669787D01*
X112678Y669752D01*
X112596Y669686D01*
X112400Y669554D01*
X112228Y669392D01*
X112145Y669327D01*
X111637Y668819D01*
X111563Y668732D01*
X111482Y668652D01*
X111404Y668544D01*
X111318Y668443D01*
X111259Y668345D01*
X111192Y668253D01*
X111132Y668134D01*
X111063Y668020D01*
X111021Y667914D01*
X110969Y667812D01*
X110929Y667686D01*
X110880Y667562D01*
X110855Y667451D01*
X110821Y667342D01*
X110810Y667248D01*
X110773Y667081D01*
X110755Y666756D01*
X110745Y666664D01*
X110745Y665450D01*
X110754Y665336D01*
X110753Y665222D01*
X110774Y665091D01*
X110785Y664958D01*
X110812Y664848D01*
X110830Y664735D01*
X110871Y664608D01*
X110903Y664480D01*
X110948Y664375D01*
X110984Y664266D01*
X111046Y664148D01*
X111098Y664026D01*
X111159Y663930D01*
X111212Y663829D01*
X111271Y663755D01*
X111363Y663610D01*
X111579Y663368D01*
X111637Y663295D01*
X167995Y606937D01*
X168082Y606863D01*
X168163Y606782D01*
X168270Y606704D01*
X168371Y606618D01*
X168469Y606559D01*
X168561Y606492D01*
X168680Y606432D01*
X168794Y606363D01*
X168900Y606321D01*
X169002Y606269D01*
X169129Y606229D01*
X169252Y606180D01*
X169363Y606155D01*
X169472Y606121D01*
X169566Y606111D01*
X169734Y606073D01*
X170058Y606055D01*
X170150Y606045D01*
X237317Y606045D01*
X237431Y606054D01*
X237545Y606053D01*
X237676Y606074D01*
X237809Y606085D01*
X237919Y606112D01*
X238032Y606130D01*
X238159Y606171D01*
X238288Y606203D01*
X238392Y606248D01*
X238501Y606284D01*
X238619Y606346D01*
X238741Y606398D01*
X238837Y606459D01*
X238939Y606512D01*
X239012Y606571D01*
X239157Y606663D01*
X239399Y606879D01*
X239472Y606937D01*
X240488Y607953D01*
X240512Y607982D01*
X240541Y608008D01*
X240672Y608170D01*
X240807Y608329D01*
X240827Y608362D01*
X240851Y608392D01*
X240954Y608572D01*
X241062Y608752D01*
X241076Y608787D01*
X241095Y608820D01*
X241167Y609016D01*
X241245Y609210D01*
X241253Y609247D01*
X241266Y609283D01*
X241307Y609488D01*
X241352Y609692D01*
X241354Y609730D01*
X241361Y609767D01*
X241368Y609975D01*
X241379Y610184D01*
X241375Y610222D01*
X241376Y610260D01*
X241349Y610467D01*
X241327Y610675D01*
X241317Y610711D01*
X241312Y610749D01*
X241252Y610949D01*
X241196Y611150D01*
X241181Y611185D01*
X241170Y611222D01*
X241078Y611409D01*
X240991Y611599D01*
X240969Y611631D01*
X240953Y611665D01*
X240832Y611835D01*
X240715Y612008D01*
X240689Y612036D01*
X240667Y612067D01*
X240520Y612216D01*
X240378Y612368D01*
X240347Y612391D01*
X240321Y612418D01*
X240152Y612541D01*
X239986Y612668D01*
X239953Y612686D01*
X239922Y612708D01*
X239735Y612802D01*
X239551Y612901D01*
X239515Y612913D01*
X239481Y612931D01*
X239282Y612993D01*
X239085Y613061D01*
X239047Y613067D01*
X239011Y613079D01*
X238918Y613089D01*
X238598Y613144D01*
X238426Y613145D01*
X238333Y613155D01*
X226781Y613155D01*
X223420Y614547D01*
X173049Y664919D01*
X172825Y665143D01*
X172817Y665149D01*
X172811Y665157D01*
X172629Y665309D01*
X172449Y665462D01*
X172440Y665467D01*
X172433Y665474D01*
X172397Y665493D01*
X172026Y665717D01*
X171905Y665766D01*
X171836Y665804D01*
X170030Y666552D01*
X166172Y670410D01*
X165764Y671394D01*
X165685Y671548D01*
X165614Y671706D01*
X165573Y671767D01*
X165539Y671833D01*
X165436Y671972D01*
X165340Y672116D01*
X165290Y672171D01*
X165246Y672230D01*
X165122Y672351D01*
X165004Y672478D01*
X164946Y672523D01*
X164893Y672575D01*
X164751Y672674D01*
X164614Y672780D01*
X164549Y672815D01*
X164489Y672858D01*
X164333Y672933D01*
X164181Y673015D01*
X164111Y673040D01*
X164044Y673072D01*
X163878Y673121D01*
X163715Y673177D01*
X163642Y673190D01*
X163571Y673211D01*
X163399Y673233D01*
X163229Y673262D01*
X163155Y673263D01*
X163081Y673272D01*
X162909Y673266D01*
X162736Y673268D01*
X162662Y673257D01*
X162588Y673254D01*
X162419Y673220D01*
X162248Y673194D01*
X162177Y673171D01*
X162105Y673156D01*
X161943Y673095D01*
X161779Y673042D01*
X161713Y673008D01*
X161643Y672982D01*
X161494Y672895D01*
X161340Y672816D01*
X161280Y672772D01*
X161216Y672735D01*
X161083Y672626D01*
X160943Y672523D01*
X160904Y672480D01*
X160834Y672423D01*
X160508Y672053D01*
X160495Y672032D01*
X160483Y672019D01*
X160150Y671561D01*
X159019Y670430D01*
X157725Y669490D01*
X156300Y668764D01*
X155447Y668487D01*
X155447Y685800D01*
X155447Y703113D01*
X156300Y702836D01*
X157725Y702110D01*
X159019Y701170D01*
X160150Y700039D01*
X160483Y699581D01*
X160596Y699450D01*
X160702Y699313D01*
X160756Y699263D01*
X160805Y699206D01*
X160937Y699095D01*
X161064Y698977D01*
X161126Y698936D01*
X161182Y698889D01*
X161331Y698800D01*
X161475Y698705D01*
X161542Y698674D01*
X161606Y698636D01*
X161767Y698573D01*
X161924Y698502D01*
X161996Y698483D01*
X162065Y698456D01*
X162234Y698419D01*
X162401Y698374D01*
X162475Y698367D01*
X162547Y698351D01*
X162720Y698342D01*
X162892Y698325D01*
X162966Y698330D01*
X163040Y698326D01*
X163212Y698345D01*
X163384Y698356D01*
X163456Y698372D01*
X163530Y698381D01*
X163697Y698427D01*
X163865Y698466D01*
X163934Y698494D01*
X164005Y698514D01*
X164162Y698586D01*
X164322Y698652D01*
X164385Y698690D01*
X164453Y698722D01*
X164595Y698819D01*
X164743Y698909D01*
X164799Y698957D01*
X164860Y698999D01*
X164986Y699118D01*
X165117Y699231D01*
X165165Y699288D01*
X165218Y699339D01*
X165323Y699476D01*
X165434Y699609D01*
X165462Y699660D01*
X165517Y699732D01*
X165748Y700167D01*
X165756Y700191D01*
X165764Y700206D01*
X166172Y701190D01*
X170030Y705048D01*
X175072Y707137D01*
X180528Y707137D01*
X185570Y705049D01*
X188345Y702273D01*
X188403Y702224D01*
X188455Y702168D01*
X188591Y702064D01*
X188721Y701954D01*
X188787Y701914D01*
X188847Y701868D01*
X188997Y701787D01*
X189144Y701699D01*
X189214Y701671D01*
X189282Y701635D01*
X189443Y701579D01*
X189602Y701516D01*
X189676Y701500D01*
X189748Y701475D01*
X189917Y701446D01*
X190083Y701409D01*
X190160Y701405D01*
X190235Y701392D01*
X190406Y701391D01*
X190576Y701382D01*
X190652Y701390D01*
X190728Y701389D01*
X190897Y701416D01*
X191067Y701434D01*
X191140Y701454D01*
X191215Y701466D01*
X191378Y701519D01*
X191542Y701564D01*
X191612Y701596D01*
X191684Y701620D01*
X191836Y701699D01*
X191991Y701770D01*
X192054Y701813D01*
X192122Y701848D01*
X192204Y701914D01*
X192400Y702046D01*
X192572Y702208D01*
X192655Y702273D01*
X195430Y705048D01*
X200472Y707137D01*
X205928Y707137D01*
X210970Y705049D01*
X213745Y702273D01*
X213803Y702224D01*
X213855Y702168D01*
X213991Y702064D01*
X214121Y701954D01*
X214187Y701914D01*
X214247Y701868D01*
X214397Y701787D01*
X214544Y701699D01*
X214614Y701671D01*
X214682Y701635D01*
X214843Y701579D01*
X215002Y701516D01*
X215076Y701500D01*
X215148Y701475D01*
X215317Y701446D01*
X215483Y701409D01*
X215560Y701405D01*
X215635Y701392D01*
X215806Y701391D01*
X215976Y701382D01*
X216052Y701390D01*
X216128Y701389D01*
X216297Y701416D01*
X216467Y701434D01*
X216540Y701454D01*
X216615Y701466D01*
X216778Y701519D01*
X216942Y701564D01*
X217012Y701596D01*
X217084Y701620D01*
X217236Y701699D01*
X217391Y701770D01*
X217454Y701813D01*
X217522Y701848D01*
X217604Y701914D01*
X217800Y702046D01*
X217972Y702208D01*
X218055Y702273D01*
X220830Y705048D01*
X225872Y707137D01*
X231328Y707137D01*
X236370Y705048D01*
X240228Y701190D01*
X242317Y696148D01*
X242317Y675452D01*
X240228Y670410D01*
X236370Y666552D01*
X231328Y664463D01*
X225872Y664463D01*
X224217Y665149D01*
X224081Y665192D01*
X223949Y665245D01*
X223847Y665268D01*
X223747Y665300D01*
X223606Y665321D01*
X223467Y665352D01*
X223363Y665358D01*
X223260Y665373D01*
X223117Y665372D01*
X222975Y665380D01*
X222871Y665369D01*
X222766Y665367D01*
X222626Y665343D01*
X222484Y665327D01*
X222383Y665300D01*
X222280Y665282D01*
X222146Y665235D01*
X222008Y665197D01*
X221913Y665153D01*
X221815Y665119D01*
X221690Y665051D01*
X221560Y664991D01*
X221473Y664933D01*
X221382Y664883D01*
X221269Y664795D01*
X221151Y664716D01*
X221075Y664644D01*
X220992Y664580D01*
X220895Y664475D01*
X220791Y664378D01*
X220728Y664295D01*
X220657Y664218D01*
X220578Y664100D01*
X220491Y663986D01*
X220442Y663894D01*
X220384Y663807D01*
X220325Y663677D01*
X220258Y663552D01*
X220224Y663453D01*
X220181Y663358D01*
X220144Y663220D01*
X220098Y663085D01*
X220080Y662982D01*
X220053Y662881D01*
X220039Y662739D01*
X220015Y662599D01*
X220014Y662494D01*
X220004Y662390D01*
X220013Y662248D01*
X220012Y662105D01*
X220028Y662002D01*
X220035Y661898D01*
X220067Y661759D01*
X220089Y661618D01*
X220121Y661519D01*
X220145Y661417D01*
X220198Y661285D01*
X220243Y661149D01*
X220291Y661057D01*
X220331Y660960D01*
X220405Y660838D01*
X220471Y660712D01*
X220520Y660650D01*
X220588Y660539D01*
X220757Y660342D01*
X220778Y660313D01*
X220812Y660279D01*
X220872Y660209D01*
X220896Y660179D01*
X236037Y645037D01*
X236124Y644963D01*
X236205Y644882D01*
X236312Y644804D01*
X236413Y644718D01*
X236511Y644659D01*
X236604Y644592D01*
X236722Y644532D01*
X236836Y644463D01*
X236942Y644421D01*
X237044Y644369D01*
X237171Y644329D01*
X237294Y644280D01*
X237405Y644255D01*
X237514Y644221D01*
X237608Y644211D01*
X237776Y644173D01*
X238100Y644155D01*
X238192Y644145D01*
X408219Y644145D01*
X411580Y642753D01*
X414581Y639752D01*
X414581Y639751D01*
X436551Y617781D01*
X439553Y614780D01*
X440945Y611419D01*
X440945Y582381D01*
X439553Y579020D01*
X424280Y563748D01*
X423018Y563225D01*
X423010Y563220D01*
X423001Y563217D01*
X422790Y563108D01*
X422579Y563000D01*
X422572Y562994D01*
X422563Y562990D01*
X422531Y562964D01*
X422183Y562707D01*
X422091Y562613D01*
X422030Y562564D01*
X420420Y560955D01*
X420371Y560897D01*
X420315Y560844D01*
X420212Y560709D01*
X420101Y560579D01*
X420061Y560513D01*
X420015Y560453D01*
X419934Y560303D01*
X419846Y560156D01*
X419818Y560085D01*
X419782Y560018D01*
X419726Y559857D01*
X419663Y559698D01*
X419647Y559624D01*
X419622Y559552D01*
X419593Y559383D01*
X419556Y559216D01*
X419552Y559140D01*
X419539Y559065D01*
X419538Y558894D01*
X419529Y558724D01*
X419537Y558648D01*
X419536Y558572D01*
X419563Y558403D01*
X419581Y558233D01*
X419601Y558160D01*
X419613Y558085D01*
X419666Y557922D01*
X419712Y557758D01*
X419743Y557689D01*
X419767Y557616D01*
X419846Y557464D01*
X419917Y557309D01*
X419960Y557246D01*
X419995Y557178D01*
X420061Y557096D01*
X420193Y556900D01*
X420355Y556728D01*
X420420Y556645D01*
X420928Y556137D01*
X421015Y556063D01*
X421096Y555982D01*
X421203Y555904D01*
X421304Y555818D01*
X421402Y555759D01*
X421494Y555692D01*
X421613Y555632D01*
X421727Y555563D01*
X421833Y555521D01*
X421935Y555469D01*
X422062Y555429D01*
X422185Y555380D01*
X422296Y555355D01*
X422405Y555321D01*
X422499Y555311D01*
X422666Y555273D01*
X422991Y555255D01*
X423083Y555245D01*
X526964Y555245D01*
X527078Y555254D01*
X527192Y555253D01*
X527324Y555274D01*
X527456Y555285D01*
X527567Y555312D01*
X527679Y555330D01*
X527806Y555371D01*
X527935Y555403D01*
X528040Y555448D01*
X528148Y555484D01*
X528266Y555546D01*
X528388Y555598D01*
X528484Y555659D01*
X528586Y555712D01*
X528659Y555771D01*
X528804Y555863D01*
X529046Y556079D01*
X529119Y556137D01*
X530710Y557728D01*
X535752Y559817D01*
X556448Y559817D01*
X561490Y557728D01*
X565348Y553870D01*
X567437Y548828D01*
X567437Y543372D01*
X565348Y538330D01*
X562573Y535555D01*
X562524Y535497D01*
X562468Y535444D01*
X562364Y535309D01*
X562254Y535179D01*
X562214Y535114D01*
X562168Y535053D01*
X562087Y534903D01*
X561999Y534756D01*
X561971Y534685D01*
X561935Y534618D01*
X561879Y534457D01*
X561816Y534298D01*
X561800Y534224D01*
X561775Y534152D01*
X561746Y533983D01*
X561709Y533816D01*
X561705Y533740D01*
X561692Y533665D01*
X561691Y533494D01*
X561682Y533324D01*
X561690Y533248D01*
X561689Y533172D01*
X561716Y533003D01*
X561734Y532833D01*
X561754Y532760D01*
X561766Y532685D01*
X561819Y532522D01*
X561864Y532358D01*
X561896Y532288D01*
X561920Y532216D01*
X561999Y532065D01*
X562070Y531909D01*
X562113Y531846D01*
X562148Y531778D01*
X562214Y531696D01*
X562346Y531500D01*
X562507Y531328D01*
X562573Y531245D01*
X565349Y528470D01*
X567437Y523428D01*
X567437Y517972D01*
X565348Y512930D01*
X562573Y510155D01*
X562524Y510097D01*
X562468Y510044D01*
X562364Y509909D01*
X562254Y509779D01*
X562214Y509714D01*
X562168Y509653D01*
X562087Y509503D01*
X561999Y509356D01*
X561971Y509285D01*
X561935Y509218D01*
X561879Y509057D01*
X561816Y508898D01*
X561800Y508824D01*
X561775Y508752D01*
X561746Y508583D01*
X561709Y508416D01*
X561705Y508340D01*
X561692Y508265D01*
X561691Y508094D01*
X561682Y507924D01*
X561690Y507848D01*
X561689Y507772D01*
X561716Y507603D01*
X561734Y507433D01*
X561754Y507360D01*
X561766Y507285D01*
X561819Y507122D01*
X561864Y506958D01*
X561896Y506888D01*
X561920Y506816D01*
X561999Y506665D01*
X562070Y506509D01*
X562113Y506446D01*
X562148Y506378D01*
X562214Y506296D01*
X562346Y506100D01*
X562507Y505928D01*
X562573Y505845D01*
X565349Y503070D01*
X567437Y498028D01*
X567437Y492572D01*
X565348Y487530D01*
X562573Y484755D01*
X562524Y484697D01*
X562468Y484644D01*
X562364Y484509D01*
X562254Y484379D01*
X562214Y484314D01*
X562168Y484253D01*
X562087Y484103D01*
X561999Y483956D01*
X561971Y483885D01*
X561935Y483818D01*
X561879Y483657D01*
X561816Y483498D01*
X561800Y483424D01*
X561775Y483352D01*
X561746Y483183D01*
X561709Y483016D01*
X561705Y482940D01*
X561692Y482865D01*
X561691Y482694D01*
X561682Y482524D01*
X561690Y482448D01*
X561689Y482372D01*
X561716Y482203D01*
X561734Y482033D01*
X561754Y481960D01*
X561766Y481885D01*
X561819Y481722D01*
X561864Y481558D01*
X561896Y481488D01*
X561920Y481416D01*
X561999Y481265D01*
X562070Y481109D01*
X562113Y481046D01*
X562148Y480978D01*
X562214Y480896D01*
X562346Y480700D01*
X562507Y480528D01*
X562573Y480445D01*
X565349Y477670D01*
X567437Y472628D01*
X567437Y467172D01*
X565348Y462130D01*
X562573Y459355D01*
X562524Y459297D01*
X562468Y459244D01*
X562364Y459109D01*
X562254Y458979D01*
X562214Y458914D01*
X562168Y458853D01*
X562087Y458703D01*
X561999Y458556D01*
X561971Y458485D01*
X561935Y458418D01*
X561879Y458257D01*
X561816Y458098D01*
X561800Y458024D01*
X561775Y457952D01*
X561746Y457783D01*
X561709Y457616D01*
X561705Y457540D01*
X561692Y457465D01*
X561691Y457294D01*
X561682Y457124D01*
X561690Y457048D01*
X561689Y456972D01*
X561716Y456803D01*
X561734Y456633D01*
X561754Y456560D01*
X561766Y456485D01*
X561819Y456322D01*
X561864Y456158D01*
X561896Y456088D01*
X561920Y456016D01*
X561999Y455865D01*
X562070Y455709D01*
X562113Y455646D01*
X562148Y455578D01*
X562214Y455496D01*
X562346Y455300D01*
X562507Y455128D01*
X562573Y455045D01*
X565349Y452270D01*
X567437Y447228D01*
X567437Y441772D01*
X565348Y436730D01*
X562573Y433955D01*
X562524Y433897D01*
X562468Y433844D01*
X562364Y433709D01*
X562254Y433579D01*
X562214Y433514D01*
X562168Y433453D01*
X562087Y433303D01*
X561999Y433156D01*
X561971Y433085D01*
X561935Y433018D01*
X561879Y432857D01*
X561816Y432698D01*
X561800Y432624D01*
X561775Y432552D01*
X561746Y432383D01*
X561709Y432216D01*
X561705Y432140D01*
X561692Y432065D01*
X561691Y431894D01*
X561682Y431724D01*
X561690Y431648D01*
X561689Y431572D01*
X561716Y431403D01*
X561734Y431233D01*
X561754Y431160D01*
X561766Y431085D01*
X561819Y430922D01*
X561864Y430758D01*
X561896Y430688D01*
X561920Y430616D01*
X561999Y430465D01*
X562070Y430309D01*
X562113Y430246D01*
X562148Y430178D01*
X562214Y430096D01*
X562346Y429900D01*
X562507Y429728D01*
X562573Y429645D01*
X565349Y426870D01*
X567613Y421404D01*
X567695Y421244D01*
X567770Y421079D01*
X567807Y421024D01*
X567838Y420965D01*
X567945Y420820D01*
X568046Y420670D01*
X568091Y420621D01*
X568131Y420568D01*
X568260Y420442D01*
X568383Y420310D01*
X568436Y420270D01*
X568484Y420223D01*
X568632Y420120D01*
X568775Y420010D01*
X568833Y419979D01*
X568888Y419940D01*
X569051Y419862D01*
X569210Y419777D01*
X569272Y419755D01*
X569332Y419726D01*
X569505Y419675D01*
X569676Y419617D01*
X569742Y419606D01*
X569806Y419587D01*
X569984Y419565D01*
X570163Y419534D01*
X570229Y419534D01*
X570295Y419526D01*
X570475Y419532D01*
G37*
%LPC*%
G36*
X523747Y599947D02*
X523747Y599947D01*
X523747Y614213D01*
X524600Y613936D01*
X526025Y613210D01*
X527319Y612270D01*
X528450Y611139D01*
X529390Y609845D01*
X530116Y608420D01*
X530611Y606899D01*
X530861Y605320D01*
X530861Y599947D01*
X523747Y599947D01*
G37*
%LPD*%
%LPC*%
G36*
X523747Y593853D02*
X523747Y593853D01*
X530861Y593853D01*
X530861Y588480D01*
X530611Y586901D01*
X530116Y585380D01*
X529390Y583955D01*
X528450Y582661D01*
X527319Y581530D01*
X526025Y580590D01*
X524600Y579864D01*
X523747Y579587D01*
X523747Y593853D01*
G37*
%LPD*%
%LPC*%
G36*
X180847Y752347D02*
X180847Y752347D01*
X180847Y758445D01*
X181588Y758445D01*
X186945Y753088D01*
X186945Y752347D01*
X180847Y752347D01*
G37*
%LPD*%
%LPC*%
G36*
X180847Y740155D02*
X180847Y740155D01*
X180847Y746253D01*
X186945Y746253D01*
X186945Y745512D01*
X181588Y740155D01*
X180847Y740155D01*
G37*
%LPD*%
%LPC*%
G36*
X346455Y688847D02*
X346455Y688847D01*
X346455Y689588D01*
X351812Y694945D01*
X352553Y694945D01*
X352553Y688847D01*
X346455Y688847D01*
G37*
%LPD*%
%LPC*%
G36*
X168655Y752347D02*
X168655Y752347D01*
X168655Y753088D01*
X174012Y758445D01*
X174753Y758445D01*
X174753Y752347D01*
X168655Y752347D01*
G37*
%LPD*%
%LPC*%
G36*
X79755Y599947D02*
X79755Y599947D01*
X79755Y600688D01*
X85112Y606045D01*
X85853Y606045D01*
X85853Y599947D01*
X79755Y599947D01*
G37*
%LPD*%
%LPC*%
G36*
X79755Y498347D02*
X79755Y498347D01*
X79755Y499088D01*
X85112Y504445D01*
X85853Y504445D01*
X85853Y498347D01*
X79755Y498347D01*
G37*
%LPD*%
%LPC*%
G36*
X79755Y447547D02*
X79755Y447547D01*
X79755Y448288D01*
X85112Y453645D01*
X85853Y453645D01*
X85853Y447547D01*
X79755Y447547D01*
G37*
%LPD*%
%LPC*%
G36*
X498855Y358647D02*
X498855Y358647D01*
X498855Y359388D01*
X504212Y364745D01*
X504953Y364745D01*
X504953Y358647D01*
X498855Y358647D01*
G37*
%LPD*%
%LPC*%
G36*
X174012Y740155D02*
X174012Y740155D01*
X168655Y745512D01*
X168655Y746253D01*
X174753Y746253D01*
X174753Y740155D01*
X174012Y740155D01*
G37*
%LPD*%
%LPC*%
G36*
X275612Y676655D02*
X275612Y676655D01*
X270255Y682012D01*
X270255Y682753D01*
X276353Y682753D01*
X276353Y676655D01*
X275612Y676655D01*
G37*
%LPD*%
%LPC*%
G36*
X351812Y676655D02*
X351812Y676655D01*
X346455Y682012D01*
X346455Y682753D01*
X352553Y682753D01*
X352553Y676655D01*
X351812Y676655D01*
G37*
%LPD*%
%LPC*%
G36*
X85112Y587755D02*
X85112Y587755D01*
X79755Y593112D01*
X79755Y593853D01*
X85853Y593853D01*
X85853Y587755D01*
X85112Y587755D01*
G37*
%LPD*%
%LPC*%
G36*
X85112Y486155D02*
X85112Y486155D01*
X79755Y491512D01*
X79755Y492253D01*
X85853Y492253D01*
X85853Y486155D01*
X85112Y486155D01*
G37*
%LPD*%
%LPC*%
G36*
X85112Y435355D02*
X85112Y435355D01*
X79755Y440712D01*
X79755Y441453D01*
X85853Y441453D01*
X85853Y435355D01*
X85112Y435355D01*
G37*
%LPD*%
%LPC*%
G36*
X504212Y346455D02*
X504212Y346455D01*
X498855Y351812D01*
X498855Y352553D01*
X504953Y352553D01*
X504953Y346455D01*
X504212Y346455D01*
G37*
%LPD*%
D10*
X88900Y495300D03*
X114300Y495300D03*
X88900Y444500D03*
X114300Y444500D03*
X355600Y685800D03*
X381000Y685800D03*
X279400Y685800D03*
X304800Y685800D03*
D11*
X469900Y680720D02*
X469900Y665480D01*
X495300Y665480D02*
X495300Y680720D01*
X520700Y680720D02*
X520700Y665480D01*
D12*
X260604Y596900D02*
X247396Y596900D01*
X247396Y571500D02*
X260604Y571500D01*
X260604Y546100D02*
X247396Y546100D01*
X247396Y520700D02*
X260604Y520700D01*
X260604Y495300D02*
X247396Y495300D01*
X247396Y469900D02*
X260604Y469900D01*
X260604Y444500D02*
X247396Y444500D01*
X247396Y419100D02*
X260604Y419100D01*
X260604Y393700D02*
X247396Y393700D01*
X247396Y368300D02*
X260604Y368300D01*
X260604Y342900D02*
X247396Y342900D01*
X247396Y317500D02*
X260604Y317500D01*
X260604Y292100D02*
X247396Y292100D01*
X247396Y266700D02*
X260604Y266700D01*
X260604Y241300D02*
X247396Y241300D01*
X247396Y215900D02*
X260604Y215900D01*
X260604Y190500D02*
X247396Y190500D01*
X247396Y165100D02*
X260604Y165100D01*
X260604Y139700D02*
X247396Y139700D01*
X247396Y114300D02*
X260604Y114300D01*
X399796Y114300D02*
X413004Y114300D01*
X413004Y139700D02*
X399796Y139700D01*
X399796Y165100D02*
X413004Y165100D01*
X413004Y190500D02*
X399796Y190500D01*
X399796Y215900D02*
X413004Y215900D01*
X413004Y241300D02*
X399796Y241300D01*
X399796Y266700D02*
X413004Y266700D01*
X413004Y292100D02*
X399796Y292100D01*
X399796Y317500D02*
X413004Y317500D01*
X413004Y342900D02*
X399796Y342900D01*
X399796Y368300D02*
X413004Y368300D01*
X413004Y393700D02*
X399796Y393700D01*
X399796Y419100D02*
X413004Y419100D01*
X413004Y444500D02*
X399796Y444500D01*
X399796Y469900D02*
X413004Y469900D01*
X413004Y495300D02*
X399796Y495300D01*
X399796Y520700D02*
X413004Y520700D01*
X413004Y546100D02*
X399796Y546100D01*
X399796Y571500D02*
X413004Y571500D01*
X413004Y596900D02*
X399796Y596900D01*
D11*
X538480Y419100D02*
X553720Y419100D01*
X553720Y444500D02*
X538480Y444500D01*
X538480Y469900D02*
X553720Y469900D01*
X553720Y495300D02*
X538480Y495300D01*
X538480Y520700D02*
X553720Y520700D01*
X553720Y546100D02*
X538480Y546100D01*
X538480Y114300D02*
X553720Y114300D01*
X553720Y139700D02*
X538480Y139700D01*
X538480Y165100D02*
X553720Y165100D01*
X553720Y190500D02*
X538480Y190500D01*
X538480Y215900D02*
X553720Y215900D01*
X553720Y241300D02*
X538480Y241300D01*
X538480Y266700D02*
X553720Y266700D01*
X553720Y292100D02*
X538480Y292100D01*
X109220Y292100D02*
X93980Y292100D01*
X93980Y266700D02*
X109220Y266700D01*
X109220Y241300D02*
X93980Y241300D01*
X93980Y215900D02*
X109220Y215900D01*
X109220Y190500D02*
X93980Y190500D01*
X93980Y165100D02*
X109220Y165100D01*
X109220Y139700D02*
X93980Y139700D01*
X93980Y114300D02*
X109220Y114300D01*
X101600Y678180D02*
X101600Y693420D01*
X127000Y693420D02*
X127000Y678180D01*
X152400Y678180D02*
X152400Y693420D01*
X177800Y693420D02*
X177800Y678180D01*
X203200Y678180D02*
X203200Y693420D01*
X228600Y693420D02*
X228600Y678180D01*
X495300Y604520D02*
X495300Y589280D01*
X520700Y589280D02*
X520700Y604520D01*
X185420Y571500D02*
X170180Y571500D01*
X170180Y546100D02*
X185420Y546100D01*
X185420Y520700D02*
X170180Y520700D01*
X170180Y495300D02*
X185420Y495300D01*
X185420Y469900D02*
X170180Y469900D01*
X170180Y444500D02*
X185420Y444500D01*
D13*
X114300Y596900D03*
X88900Y596900D03*
X533400Y355600D03*
X508000Y355600D03*
D14*
X101600Y375412D02*
X101600Y386588D01*
X152400Y386588D02*
X152400Y375412D01*
D13*
X177800Y749300D03*
X101600Y749300D03*
X355600Y749300D03*
X279400Y749300D03*
X533400Y749300D03*
X457200Y749300D03*
D15*
X381000Y622300D02*
X406400Y596900D01*
X228600Y622300D02*
X177800Y673100D01*
X177800Y685800D01*
X228600Y622300D02*
X381000Y622300D01*
X406400Y635000D02*
X431800Y609600D01*
X431800Y584200D01*
X419100Y571500D01*
X406400Y571500D01*
X203200Y664942D02*
X203200Y685800D01*
X203200Y664942D02*
X233142Y635000D01*
X406400Y635000D01*
X406400Y419100D02*
X546100Y419100D01*
X546100Y444500D02*
X406400Y444500D01*
X406400Y469900D02*
X546100Y469900D01*
X546100Y495300D02*
X406400Y495300D01*
X406400Y520700D02*
X546100Y520700D01*
X546100Y546100D02*
X406400Y546100D01*
X254000Y139700D02*
X215900Y139700D01*
D16*
X215900Y139700D03*
X500634Y114300D03*
D15*
X546100Y114300D01*
X254000Y114300D02*
X215900Y114300D01*
D16*
X215900Y114300D03*
X495352Y139648D03*
D15*
X495404Y139700D01*
X546100Y139700D01*
X444500Y114300D02*
X406400Y114300D01*
X444500Y114300D02*
X495300Y165100D01*
X546100Y165100D01*
X444500Y139700D02*
X406400Y139700D01*
X444500Y139700D02*
X495300Y190500D01*
X546100Y190500D01*
X431800Y266700D02*
X406400Y266700D01*
X431800Y266700D02*
X482600Y215900D01*
X546100Y215900D01*
X431800Y292100D02*
X406400Y292100D01*
X431800Y292100D02*
X482600Y241300D01*
X546100Y241300D01*
X431800Y317500D02*
X406400Y317500D01*
X431800Y317500D02*
X482600Y266700D01*
X546100Y266700D01*
X431800Y342900D02*
X406400Y342900D01*
X431800Y342900D02*
X482600Y292100D01*
X546100Y292100D01*
X254000Y571500D02*
X177800Y571500D01*
X177800Y546100D02*
X254000Y546100D01*
X254000Y520700D02*
X177800Y520700D01*
X177800Y495300D02*
X254000Y495300D01*
X254000Y469900D02*
X177800Y469900D01*
X177800Y444500D02*
X254000Y444500D01*
X152400Y292100D02*
X101600Y292100D01*
X152400Y292100D02*
X203200Y241300D01*
X254000Y241300D01*
X152400Y266700D02*
X101600Y266700D01*
X152400Y266700D02*
X203200Y215900D01*
X254000Y215900D01*
X152400Y241300D02*
X101600Y241300D01*
X152400Y241300D02*
X203200Y190500D01*
X254000Y190500D01*
X101600Y241300D02*
X50800Y241300D01*
D16*
X50800Y241300D03*
X254052Y762052D03*
D15*
X254000Y762000D01*
X266700Y762000D01*
X279400Y749300D01*
X152400Y215900D02*
X101600Y215900D01*
X152400Y215900D02*
X203200Y165100D01*
X254000Y165100D01*
X101600Y190500D02*
X76200Y190500D01*
X38100Y152400D01*
X78800Y51816D02*
X294042Y51816D01*
X341376Y99150D01*
X38608Y151892D02*
X38100Y152400D01*
X341376Y150876D02*
X341376Y99150D01*
X38608Y92008D02*
X38608Y151892D01*
X38608Y92008D02*
X78800Y51816D01*
X341376Y150876D02*
X355600Y165100D01*
X406400Y165100D01*
X101600Y165100D02*
X76200Y165100D01*
X50800Y139700D01*
X83850Y64008D02*
X288992Y64008D01*
X329184Y176784D02*
X342900Y190500D01*
X83850Y64008D02*
X51308Y96550D01*
X288992Y64008D02*
X329184Y104200D01*
X329184Y176784D01*
X51308Y139192D02*
X50800Y139700D01*
X51308Y139192D02*
X51308Y96550D01*
X342900Y190500D02*
X406400Y190500D01*
X101600Y139700D02*
X76200Y139700D01*
X63500Y127000D01*
X63500Y101600D01*
X88900Y76200D01*
X316992Y202692D02*
X330200Y215900D01*
X316992Y202692D02*
X316992Y109250D01*
X283942Y76200D02*
X88900Y76200D01*
X283942Y76200D02*
X316992Y109250D01*
X330200Y215900D02*
X406400Y215900D01*
X127000Y88900D02*
X101600Y114300D01*
X127000Y88900D02*
X279400Y88900D01*
X304800Y114300D02*
X304800Y228600D01*
X317500Y241300D01*
X406400Y241300D01*
X304800Y114300D02*
X279400Y88900D01*
X101600Y685800D02*
X101600Y749300D01*
X165100Y596900D02*
X254000Y596900D01*
X165100Y596900D02*
X101600Y660400D01*
X101600Y685800D01*
D17*
X495300Y673100D02*
X495300Y647700D01*
X520700Y622300D01*
X520700Y596900D01*
D15*
X495300Y368300D02*
X406400Y368300D01*
X495300Y368300D02*
X508000Y355600D01*
X152400Y685800D02*
X152400Y736600D01*
X165100Y749300D01*
X177800Y749300D01*
X88900Y596900D02*
X88900Y495300D01*
X88900Y444500D01*
X254000Y317500D02*
X317500Y317500D01*
X368300Y368300D01*
X406400Y368300D01*
X215900Y711200D02*
X177800Y749300D01*
X215900Y711200D02*
X254000Y711200D01*
X279400Y685800D01*
X330200Y660400D02*
X355600Y685800D01*
X330200Y660400D02*
X304800Y660400D01*
X279400Y685800D01*
X127000Y533400D02*
X88900Y495300D01*
D16*
X127000Y533400D03*
X152452Y635052D03*
D15*
X152452Y685748D01*
X152400Y685800D01*
X457200Y749300D02*
X482600Y749300D01*
X520700Y711200D01*
X520700Y673100D01*
X368300Y393700D02*
X317500Y342900D01*
X254000Y342900D01*
X304800Y685800D02*
X342900Y723900D01*
X431800Y723900D01*
X457200Y749300D01*
X127000Y749300D02*
X127000Y685800D01*
X127000Y749300D02*
X152400Y774700D01*
X215900Y774700D01*
X304800Y685800D01*
X368300Y393700D02*
X406400Y393700D01*
X558800Y393700D01*
X584200Y419100D01*
X584200Y596900D01*
X520700Y660400D01*
X520700Y673100D01*
D17*
X469900Y673100D02*
X469900Y647700D01*
X495300Y622300D01*
X495300Y596900D01*
D15*
X381000Y685800D02*
X406400Y711200D01*
X431800Y711200D01*
X469900Y673100D01*
X533400Y355600D02*
X546100Y355600D01*
X596900Y406400D01*
X596900Y622300D02*
X558800Y660400D01*
X558800Y723900D01*
X533400Y749300D01*
X596900Y622300D02*
X596900Y406400D01*
X76200Y647700D02*
X76200Y749300D01*
X76200Y647700D02*
X114300Y609600D01*
X114300Y596900D01*
X76200Y749300D02*
X114300Y787400D01*
X336550Y787400D02*
X355600Y768350D01*
X355600Y749300D01*
X336550Y787400D02*
X114300Y787400D01*
X152400Y381000D02*
X241300Y292100D01*
X254000Y292100D01*
X152400Y381000D02*
X139700Y393700D01*
X139700Y482600D01*
X127000Y495300D01*
X114300Y495300D01*
X101600Y381000D02*
X139700Y342900D01*
X165100Y342900D01*
X241300Y266700D01*
X254000Y266700D01*
X114300Y393700D02*
X101600Y381000D01*
X114300Y393700D02*
X114300Y444500D01*
M02*
